<svg width="1363" height="167" viewBox="0 0 1363 167" fill="none" xmlns="http://www.w3.org/2000/svg">
<path d="M1348 0H15C6.71573 0 0 6.71573 0 15V152C0 160.284 6.71573 167 15 167H1348C1356.28 167 1363 160.284 1363 152V15C1363 6.71573 1356.28 0 1348 0Z" fill="#F0F0F0"/>
<path d="M0 15C0 6.71573 6.71573 0 15 0H37V167H15C6.71573 167 0 160.284 0 152V15Z" fill="#DF8A27"/>
<path d="M102.635 83.0078V115H94.9443V83.0078H102.635ZM115.181 96.2573V115H107.776V91.2256H114.72L115.181 96.2573ZM114.28 102.3L112.588 102.344C112.588 100.674 112.786 99.1357 113.182 97.7295C113.577 96.3232 114.163 95.1001 114.939 94.0601C115.716 93.02 116.668 92.2144 117.796 91.6431C118.938 91.0718 120.257 90.7861 121.751 90.7861C122.791 90.7861 123.736 90.9473 124.585 91.2695C125.435 91.5771 126.167 92.0679 126.783 92.7417C127.398 93.4009 127.867 94.2651 128.189 95.3345C128.526 96.3892 128.694 97.6562 128.694 99.1357V115H121.29V100.081C121.29 99.0698 121.172 98.3081 120.938 97.7954C120.718 97.2827 120.396 96.9385 119.971 96.7627C119.546 96.5869 119.026 96.499 118.411 96.499C117.767 96.499 117.188 96.6455 116.675 96.9385C116.163 97.2314 115.723 97.6416 115.357 98.1689C115.005 98.6816 114.734 99.2896 114.544 99.9927C114.368 100.696 114.28 101.465 114.28 102.3ZM127.859 102.3L125.794 102.344C125.794 100.674 125.977 99.1357 126.343 97.7295C126.724 96.3232 127.288 95.1001 128.035 94.0601C128.797 93.02 129.742 92.2144 130.87 91.6431C131.998 91.0718 133.309 90.7861 134.803 90.7861C135.887 90.7861 136.883 90.9473 137.791 91.2695C138.699 91.5918 139.483 92.1118 140.142 92.8296C140.801 93.5474 141.314 94.4995 141.68 95.686C142.046 96.8579 142.229 98.3081 142.229 100.037V115H134.803V100.037C134.803 99.0552 134.686 98.3154 134.451 97.8174C134.231 97.3047 133.909 96.9604 133.484 96.7847C133.06 96.5942 132.554 96.499 131.968 96.499C131.265 96.499 130.657 96.6455 130.145 96.9385C129.632 97.2314 129.2 97.6416 128.848 98.1689C128.511 98.6816 128.262 99.2896 128.101 99.9927C127.94 100.696 127.859 101.465 127.859 102.3ZM153.941 95.7959V124.141H146.536V91.2256H153.436L153.941 95.7959ZM168.531 102.827V103.289C168.531 105.017 168.333 106.621 167.938 108.101C167.542 109.58 166.956 110.869 166.18 111.968C165.403 113.066 164.437 113.923 163.279 114.539C162.137 115.139 160.811 115.439 159.302 115.439C157.881 115.439 156.658 115.125 155.633 114.495C154.607 113.865 153.75 112.993 153.062 111.88C152.374 110.767 151.817 109.492 151.392 108.057C150.967 106.621 150.63 105.105 150.381 103.508V102.915C150.63 101.201 150.967 99.6118 151.392 98.147C151.817 96.6675 152.374 95.3784 153.062 94.2798C153.75 93.1812 154.6 92.3242 155.611 91.709C156.636 91.0938 157.859 90.7861 159.28 90.7861C160.789 90.7861 162.115 91.0718 163.257 91.6431C164.415 92.2144 165.381 93.0347 166.158 94.104C166.949 95.1587 167.542 96.4258 167.938 97.9053C168.333 99.3848 168.531 101.025 168.531 102.827ZM161.126 103.289V102.827C161.126 101.904 161.06 101.062 160.928 100.3C160.796 99.5239 160.584 98.8501 160.291 98.2788C160.013 97.7075 159.639 97.2681 159.17 96.9604C158.702 96.6528 158.123 96.499 157.435 96.499C156.644 96.499 155.977 96.6235 155.435 96.8726C154.908 97.1069 154.483 97.4731 154.161 97.9712C153.853 98.4546 153.633 99.0625 153.501 99.7949C153.384 100.513 153.333 101.355 153.348 102.322V104.124C153.318 105.237 153.428 106.218 153.677 107.068C153.926 107.903 154.358 108.555 154.974 109.023C155.589 109.492 156.424 109.727 157.479 109.727C158.182 109.727 158.768 109.565 159.236 109.243C159.705 108.906 160.079 108.445 160.357 107.859C160.635 107.258 160.833 106.57 160.95 105.793C161.067 105.017 161.126 104.182 161.126 103.289ZM179.649 81.25V115H172.222V81.25H179.649ZM195.733 115.439C193.799 115.439 192.071 115.139 190.547 114.539C189.024 113.923 187.735 113.081 186.68 112.012C185.64 110.942 184.842 109.712 184.285 108.32C183.743 106.929 183.472 105.457 183.472 103.904V103.069C183.472 101.326 183.714 99.7144 184.197 98.2349C184.681 96.7407 185.398 95.437 186.351 94.3237C187.303 93.2104 188.497 92.3462 189.932 91.731C191.368 91.1011 193.038 90.7861 194.942 90.7861C196.626 90.7861 198.135 91.0571 199.468 91.5991C200.801 92.1411 201.929 92.9175 202.852 93.9282C203.79 94.939 204.5 96.1621 204.983 97.5977C205.481 99.0332 205.73 100.645 205.73 102.432V105.442H186.307V100.806H198.501V100.234C198.516 99.4434 198.377 98.7695 198.084 98.2129C197.806 97.6562 197.396 97.2314 196.854 96.9385C196.312 96.6455 195.652 96.499 194.876 96.499C194.07 96.499 193.404 96.6748 192.876 97.0264C192.364 97.3779 191.961 97.8613 191.668 98.4766C191.39 99.0771 191.192 99.7729 191.075 100.564C190.958 101.355 190.899 102.19 190.899 103.069V103.904C190.899 104.783 191.016 105.581 191.25 106.299C191.5 107.017 191.851 107.632 192.305 108.145C192.774 108.643 193.331 109.031 193.975 109.309C194.634 109.587 195.381 109.727 196.216 109.727C197.227 109.727 198.223 109.536 199.205 109.155C200.186 108.774 201.028 108.145 201.731 107.266L205.093 111.265C204.61 111.953 203.921 112.62 203.028 113.264C202.149 113.909 201.094 114.436 199.864 114.846C198.633 115.242 197.256 115.439 195.733 115.439ZM216.211 96.2573V115H208.807V91.2256H215.75L216.211 96.2573ZM215.311 102.3L213.619 102.344C213.619 100.674 213.816 99.1357 214.212 97.7295C214.607 96.3232 215.193 95.1001 215.97 94.0601C216.746 93.02 217.698 92.2144 218.826 91.6431C219.969 91.0718 221.287 90.7861 222.781 90.7861C223.821 90.7861 224.766 90.9473 225.616 91.2695C226.465 91.5771 227.198 92.0679 227.813 92.7417C228.428 93.4009 228.897 94.2651 229.219 95.3345C229.556 96.3892 229.725 97.6562 229.725 99.1357V115H222.32V100.081C222.32 99.0698 222.203 98.3081 221.968 97.7954C221.749 97.2827 221.426 96.9385 221.001 96.7627C220.577 96.5869 220.057 96.499 219.441 96.499C218.797 96.499 218.218 96.6455 217.706 96.9385C217.193 97.2314 216.753 97.6416 216.387 98.1689C216.036 98.6816 215.765 99.2896 215.574 99.9927C215.398 100.696 215.311 101.465 215.311 102.3ZM228.89 102.3L226.824 102.344C226.824 100.674 227.007 99.1357 227.374 97.7295C227.754 96.3232 228.318 95.1001 229.065 94.0601C229.827 93.02 230.772 92.2144 231.9 91.6431C233.028 91.0718 234.339 90.7861 235.833 90.7861C236.917 90.7861 237.913 90.9473 238.821 91.2695C239.729 91.5918 240.513 92.1118 241.172 92.8296C241.832 93.5474 242.344 94.4995 242.71 95.686C243.077 96.8579 243.26 98.3081 243.26 100.037V115H235.833V100.037C235.833 99.0552 235.716 98.3154 235.481 97.8174C235.262 97.3047 234.939 96.9604 234.515 96.7847C234.09 96.5942 233.584 96.499 232.999 96.499C232.295 96.499 231.688 96.6455 231.175 96.9385C230.662 97.2314 230.23 97.6416 229.878 98.1689C229.542 98.6816 229.292 99.2896 229.131 99.9927C228.97 100.696 228.89 101.465 228.89 102.3ZM259.014 115.439C257.081 115.439 255.352 115.139 253.829 114.539C252.305 113.923 251.016 113.081 249.961 112.012C248.921 110.942 248.123 109.712 247.566 108.32C247.024 106.929 246.753 105.457 246.753 103.904V103.069C246.753 101.326 246.995 99.7144 247.479 98.2349C247.962 96.7407 248.68 95.437 249.632 94.3237C250.584 93.2104 251.778 92.3462 253.213 91.731C254.649 91.1011 256.319 90.7861 258.223 90.7861C259.908 90.7861 261.417 91.0571 262.75 91.5991C264.083 92.1411 265.21 92.9175 266.133 93.9282C267.071 94.939 267.781 96.1621 268.265 97.5977C268.763 99.0332 269.012 100.645 269.012 102.432V105.442H249.588V100.806H261.783V100.234C261.797 99.4434 261.658 98.7695 261.365 98.2129C261.087 97.6562 260.677 97.2314 260.135 96.9385C259.593 96.6455 258.934 96.499 258.157 96.499C257.352 96.499 256.685 96.6748 256.158 97.0264C255.645 97.3779 255.242 97.8613 254.949 98.4766C254.671 99.0771 254.473 99.7729 254.356 100.564C254.239 101.355 254.18 102.19 254.18 103.069V103.904C254.18 104.783 254.297 105.581 254.532 106.299C254.781 107.017 255.132 107.632 255.586 108.145C256.055 108.643 256.612 109.031 257.256 109.309C257.916 109.587 258.663 109.727 259.498 109.727C260.508 109.727 261.504 109.536 262.486 109.155C263.467 108.774 264.31 108.145 265.013 107.266L268.375 111.265C267.891 111.953 267.203 112.62 266.309 113.264C265.43 113.909 264.375 114.436 263.145 114.846C261.915 115.242 260.538 115.439 259.014 115.439ZM279.295 96.3013V115H271.89V91.2256H278.833L279.295 96.3013ZM278.416 102.3L276.68 102.344C276.68 100.527 276.9 98.9087 277.339 97.4878C277.779 96.0522 278.401 94.8364 279.207 93.8403C280.013 92.8442 280.972 92.0898 282.085 91.5771C283.213 91.0498 284.466 90.7861 285.843 90.7861C286.941 90.7861 287.945 90.9473 288.853 91.2695C289.776 91.5918 290.567 92.1118 291.226 92.8296C291.9 93.5474 292.413 94.4995 292.764 95.686C293.13 96.8579 293.313 98.3081 293.313 100.037V115H285.865V100.015C285.865 99.0625 285.733 98.3374 285.469 97.8394C285.206 97.3267 284.825 96.9751 284.327 96.7847C283.829 96.5942 283.221 96.499 282.503 96.499C281.741 96.499 281.097 96.6455 280.569 96.9385C280.042 97.2314 279.617 97.6416 279.295 98.1689C278.987 98.6816 278.76 99.2896 278.614 99.9927C278.482 100.696 278.416 101.465 278.416 102.3ZM309.947 91.2256V96.3672H295.621V91.2256H309.947ZM298.631 85.3149H306.036V107.244C306.036 107.874 306.109 108.364 306.255 108.716C306.402 109.053 306.651 109.294 307.002 109.441C307.369 109.573 307.852 109.639 308.453 109.639C308.877 109.639 309.229 109.631 309.507 109.617C309.786 109.587 310.049 109.551 310.298 109.507V114.802C309.668 115.007 309.009 115.161 308.321 115.264C307.632 115.381 306.9 115.439 306.124 115.439C304.542 115.439 303.187 115.19 302.059 114.692C300.945 114.194 300.096 113.411 299.51 112.341C298.924 111.272 298.631 109.88 298.631 108.167V85.3149ZM325.24 109.023V99.2236C325.24 98.5498 325.145 97.9712 324.954 97.4878C324.764 97.0044 324.463 96.6309 324.053 96.3672C323.643 96.0889 323.094 95.9497 322.405 95.9497C321.849 95.9497 321.373 96.0449 320.977 96.2354C320.582 96.4258 320.281 96.7114 320.076 97.0923C319.871 97.4731 319.769 97.9565 319.769 98.5425H312.364C312.364 97.4438 312.605 96.4258 313.089 95.4883C313.587 94.5361 314.29 93.7085 315.198 93.0054C316.121 92.3022 317.22 91.7603 318.494 91.3794C319.783 90.9839 321.219 90.7861 322.801 90.7861C324.69 90.7861 326.375 91.1011 327.854 91.731C329.349 92.3608 330.528 93.3057 331.392 94.5654C332.256 95.8105 332.688 97.3779 332.688 99.2676V109.001C332.688 110.554 332.776 111.733 332.952 112.539C333.128 113.33 333.377 114.026 333.699 114.626V115H326.272C325.921 114.268 325.657 113.374 325.481 112.319C325.32 111.25 325.24 110.151 325.24 109.023ZM326.141 100.476L326.185 104.431H322.911C322.222 104.431 321.636 104.526 321.153 104.717C320.684 104.907 320.303 105.171 320.01 105.508C319.732 105.83 319.527 106.196 319.395 106.606C319.278 107.017 319.219 107.449 319.219 107.903C319.219 108.342 319.322 108.738 319.527 109.089C319.747 109.426 320.04 109.69 320.406 109.88C320.772 110.071 321.182 110.166 321.636 110.166C322.457 110.166 323.152 110.012 323.724 109.705C324.31 109.382 324.756 108.994 325.064 108.54C325.372 108.086 325.525 107.661 325.525 107.266L327.151 110.298C326.858 110.884 326.521 111.477 326.141 112.078C325.774 112.678 325.313 113.235 324.756 113.748C324.214 114.246 323.548 114.656 322.757 114.978C321.966 115.286 321.006 115.439 319.878 115.439C318.414 115.439 317.066 115.139 315.835 114.539C314.62 113.938 313.646 113.103 312.913 112.034C312.181 110.95 311.814 109.705 311.814 108.298C311.814 107.068 312.034 105.969 312.474 105.002C312.928 104.036 313.609 103.215 314.517 102.542C315.425 101.868 316.583 101.355 317.989 101.003C319.395 100.652 321.05 100.476 322.955 100.476H326.141ZM349.322 91.2256V96.3672H334.996V91.2256H349.322ZM338.006 85.3149H345.411V107.244C345.411 107.874 345.484 108.364 345.63 108.716C345.777 109.053 346.026 109.294 346.377 109.441C346.744 109.573 347.227 109.639 347.828 109.639C348.252 109.639 348.604 109.631 348.882 109.617C349.161 109.587 349.424 109.551 349.673 109.507V114.802C349.043 115.007 348.384 115.161 347.696 115.264C347.007 115.381 346.275 115.439 345.499 115.439C343.917 115.439 342.562 115.19 341.434 114.692C340.32 114.194 339.471 113.411 338.885 112.341C338.299 111.272 338.006 109.88 338.006 108.167V85.3149ZM360.088 91.2256V115H352.662V91.2256H360.088ZM352.222 85.0952C352.222 84.0405 352.603 83.1763 353.365 82.5024C354.126 81.8286 355.115 81.4917 356.331 81.4917C357.547 81.4917 358.536 81.8286 359.297 82.5024C360.059 83.1763 360.44 84.0405 360.44 85.0952C360.44 86.1499 360.059 87.0142 359.297 87.688C358.536 88.3618 357.547 88.6987 356.331 88.6987C355.115 88.6987 354.126 88.3618 353.365 87.688C352.603 87.0142 352.222 86.1499 352.222 85.0952ZM363.736 103.354V102.893C363.736 101.15 363.985 99.5459 364.483 98.0811C364.981 96.6016 365.713 95.3198 366.68 94.2358C367.647 93.1519 368.841 92.3096 370.262 91.709C371.683 91.0938 373.323 90.7861 375.184 90.7861C377.059 90.7861 378.707 91.0938 380.127 91.709C381.563 92.3096 382.764 93.1519 383.731 94.2358C384.698 95.3198 385.43 96.6016 385.928 98.0811C386.426 99.5459 386.675 101.15 386.675 102.893V103.354C386.675 105.083 386.426 106.687 385.928 108.167C385.43 109.631 384.698 110.913 383.731 112.012C382.764 113.096 381.57 113.938 380.149 114.539C378.729 115.139 377.088 115.439 375.228 115.439C373.367 115.439 371.719 115.139 370.284 114.539C368.848 113.938 367.647 113.096 366.68 112.012C365.713 110.913 364.981 109.631 364.483 108.167C363.985 106.687 363.736 105.083 363.736 103.354ZM371.141 102.893V103.354C371.141 104.248 371.207 105.083 371.338 105.859C371.47 106.636 371.69 107.317 371.998 107.903C372.305 108.474 372.723 108.921 373.25 109.243C373.777 109.565 374.437 109.727 375.228 109.727C376.004 109.727 376.648 109.565 377.161 109.243C377.688 108.921 378.106 108.474 378.414 107.903C378.721 107.317 378.941 106.636 379.073 105.859C379.205 105.083 379.271 104.248 379.271 103.354V102.893C379.271 102.029 379.205 101.216 379.073 100.454C378.941 99.6777 378.721 98.9966 378.414 98.4106C378.106 97.8101 377.688 97.3413 377.161 97.0044C376.634 96.6675 375.975 96.499 375.184 96.499C374.407 96.499 373.755 96.6675 373.228 97.0044C372.715 97.3413 372.305 97.8101 371.998 98.4106C371.69 98.9966 371.47 99.6777 371.338 100.454C371.207 101.216 371.141 102.029 371.141 102.893ZM397.244 96.3013V115H389.839V91.2256H396.783L397.244 96.3013ZM396.365 102.3L394.629 102.344C394.629 100.527 394.849 98.9087 395.289 97.4878C395.728 96.0522 396.351 94.8364 397.156 93.8403C397.962 92.8442 398.921 92.0898 400.035 91.5771C401.163 91.0498 402.415 90.7861 403.792 90.7861C404.891 90.7861 405.894 90.9473 406.802 91.2695C407.725 91.5918 408.516 92.1118 409.175 92.8296C409.849 93.5474 410.362 94.4995 410.713 95.686C411.08 96.8579 411.263 98.3081 411.263 100.037V115H403.814V100.015C403.814 99.0625 403.682 98.3374 403.418 97.8394C403.155 97.3267 402.774 96.9751 402.276 96.7847C401.778 96.5942 401.17 96.499 400.452 96.499C399.69 96.499 399.046 96.6455 398.519 96.9385C397.991 97.2314 397.566 97.6416 397.244 98.1689C396.937 98.6816 396.709 99.2896 396.563 99.9927C396.431 100.696 396.365 101.465 396.365 102.3Z" fill="#424241"/>
<path d="M1363 15C1363 6.71573 1356.28 0 1348 0H1134V167H1348C1356.28 167 1363 160.284 1363 152V15Z" fill="#026483"/>
<path d="M1281.5 49H1216.5L1214 51.5V116.5L1216.5 119H1281.5L1284 116.5V51.5L1281.5 49ZM1279 114H1234V104H1245.5C1247 107 1250.5 109 1254 109C1259.5 109 1264 104.5 1264 99C1264 93.5 1259.5 89 1254 89C1248.5 89 1244 93.5 1244 99H1229V114H1219V54H1229V65.5C1226 67 1224 70.5 1224 74C1224 79.5 1228.5 84 1234 84C1239.5 84 1244 79.5 1244 74H1254C1254 79.5 1258.5 84 1264 84C1269.5 84 1274 79.5 1274 74C1274 68.5 1269.5 64 1264 64C1260.5 64 1257 66 1255.5 69H1242.5C1241 66 1237.5 64 1234 64V54H1279V114ZM1249 99C1249 96 1251 94 1254 94C1257 94 1259 96 1259 99C1259 102 1257 104 1254 104C1251 104 1249 102 1249 99ZM1234 69C1237 69 1239 71 1239 74C1239 77 1237 79 1234 79C1231 79 1229 77 1229 74C1229 71 1231 69 1234 69ZM1264 69C1267 69 1269 71 1269 74C1269 77 1267 79 1264 79C1261 79 1259 77 1259 74C1259 71 1261 69 1264 69Z" fill="white"/>
<path d="M100.511 54.9219L93 52.2383V49.0859L103.207 53.375V55.6367L100.511 54.9219ZM93 57.1719L100.523 54.4297L103.207 53.7852V56.0352L93 60.3242V57.1719Z" fill="#888888"/>
<path d="M115.123 45.5455H119.674L124.48 57.2727H124.685L129.492 45.5455H134.043V63H130.463V51.6392H130.319L125.801 62.9148H123.364L118.847 51.5966H118.702V63H115.123V45.5455ZM137.015 63V49.9091H140.646V63H137.015ZM138.839 48.2216C138.299 48.2216 137.836 48.0426 137.45 47.6847C137.069 47.321 136.879 46.8864 136.879 46.3807C136.879 45.8807 137.069 45.4517 137.45 45.0938C137.836 44.7301 138.299 44.5483 138.839 44.5483C139.379 44.5483 139.839 44.7301 140.22 45.0938C140.606 45.4517 140.799 45.8807 140.799 46.3807C140.799 46.8864 140.606 47.321 140.22 47.6847C139.839 48.0426 139.379 48.2216 138.839 48.2216ZM147.185 55.4318V63H143.554V49.9091H147.015V52.2188H147.168C147.458 51.4574 147.944 50.8551 148.625 50.4119C149.307 49.9631 150.134 49.7386 151.105 49.7386C152.015 49.7386 152.807 49.9375 153.483 50.3352C154.159 50.733 154.685 51.3011 155.06 52.0398C155.435 52.7727 155.623 53.6477 155.623 54.6648V63H151.992V55.3125C151.998 54.5114 151.793 53.8864 151.378 53.4375C150.963 52.983 150.392 52.7557 149.665 52.7557C149.176 52.7557 148.745 52.8608 148.37 53.071C148 53.2812 147.711 53.5881 147.5 53.9915C147.296 54.3892 147.191 54.8693 147.185 55.4318ZM163.308 63.2131C162.314 63.2131 161.413 62.9574 160.606 62.446C159.805 61.929 159.169 61.1705 158.697 60.1705C158.231 59.1648 157.998 57.9318 157.998 56.4716C157.998 54.9716 158.24 53.7244 158.723 52.7301C159.206 51.7301 159.848 50.983 160.649 50.4886C161.456 49.9886 162.339 49.7386 163.299 49.7386C164.032 49.7386 164.643 49.8636 165.132 50.1136C165.626 50.358 166.024 50.6648 166.325 51.0341C166.632 51.3977 166.865 51.7557 167.024 52.108H167.135V45.5455H170.757V63H167.177V60.9034H167.024C166.853 61.267 166.612 61.6278 166.299 61.9858C165.993 62.3381 165.592 62.6307 165.098 62.8636C164.609 63.0966 164.012 63.2131 163.308 63.2131ZM164.458 60.3239C165.044 60.3239 165.538 60.1648 165.941 59.8466C166.35 59.5227 166.663 59.071 166.879 58.4915C167.1 57.9119 167.211 57.233 167.211 56.4545C167.211 55.6761 167.103 55 166.887 54.4261C166.672 53.8523 166.359 53.4091 165.95 53.0966C165.541 52.7841 165.044 52.6278 164.458 52.6278C163.862 52.6278 163.359 52.7898 162.95 53.1136C162.541 53.4375 162.231 53.8864 162.021 54.4602C161.811 55.0341 161.706 55.6989 161.706 56.4545C161.706 57.2159 161.811 57.8892 162.021 58.4744C162.237 59.054 162.547 59.5085 162.95 59.8381C163.359 60.1619 163.862 60.3239 164.458 60.3239ZM183.279 50.5653C183.211 49.8778 182.918 49.3437 182.401 48.9631C181.884 48.5824 181.182 48.392 180.296 48.392C179.694 48.392 179.185 48.4773 178.77 48.6477C178.355 48.8125 178.037 49.0426 177.816 49.3381C177.6 49.6335 177.492 49.9688 177.492 50.3438C177.48 50.6562 177.546 50.929 177.688 51.1619C177.836 51.3949 178.037 51.5966 178.293 51.767C178.549 51.9318 178.844 52.0767 179.179 52.2017C179.515 52.321 179.873 52.4233 180.253 52.5085L181.821 52.8835C182.583 53.054 183.282 53.2812 183.918 53.5653C184.554 53.8494 185.105 54.1989 185.571 54.6136C186.037 55.0284 186.398 55.517 186.654 56.0795C186.915 56.642 187.049 57.2869 187.054 58.0142C187.049 59.0824 186.776 60.0085 186.236 60.7926C185.702 61.571 184.929 62.1761 183.918 62.608C182.912 63.0341 181.699 63.2472 180.279 63.2472C178.87 63.2472 177.642 63.0312 176.597 62.5994C175.557 62.1676 174.745 61.5284 174.159 60.6818C173.58 59.8295 173.276 58.7756 173.248 57.5199H176.819C176.858 58.1051 177.026 58.5937 177.321 58.9858C177.623 59.3722 178.023 59.6648 178.523 59.8636C179.029 60.0568 179.6 60.1534 180.236 60.1534C180.861 60.1534 181.404 60.0625 181.864 59.8807C182.33 59.6989 182.691 59.446 182.946 59.1222C183.202 58.7983 183.33 58.4261 183.33 58.0057C183.33 57.6136 183.213 57.2841 182.98 57.017C182.753 56.75 182.418 56.5227 181.975 56.3352C181.537 56.1477 181 55.9773 180.364 55.8239L178.463 55.3466C176.992 54.9886 175.83 54.429 174.978 53.6676C174.125 52.9062 173.702 51.8807 173.708 50.5909C173.702 49.5341 173.983 48.6108 174.551 47.821C175.125 47.0312 175.912 46.4148 176.912 45.9716C177.912 45.5284 179.049 45.3068 180.321 45.3068C181.617 45.3068 182.748 45.5284 183.713 45.9716C184.685 46.4148 185.441 47.0312 185.98 47.821C186.52 48.6108 186.799 49.5256 186.816 50.5653H183.279ZM193.099 55.4318V63H189.468V45.5455H192.997V52.2188H193.15C193.446 51.446 193.923 50.8409 194.582 50.4034C195.241 49.9602 196.068 49.7386 197.062 49.7386C197.971 49.7386 198.764 49.9375 199.44 50.3352C200.122 50.7273 200.65 51.2926 201.025 52.0312C201.406 52.7642 201.593 53.642 201.588 54.6648V63H197.957V55.3125C197.963 54.5057 197.758 53.8778 197.343 53.429C196.934 52.9801 196.36 52.7557 195.622 52.7557C195.127 52.7557 194.69 52.8608 194.309 53.071C193.934 53.2812 193.639 53.5881 193.423 53.9915C193.213 54.3892 193.105 54.8693 193.099 55.4318ZM204.445 63V49.9091H208.076V63H204.445ZM206.269 48.2216C205.729 48.2216 205.266 48.0426 204.88 47.6847C204.499 47.321 204.309 46.8864 204.309 46.3807C204.309 45.8807 204.499 45.4517 204.88 45.0938C205.266 44.7301 205.729 44.5483 206.269 44.5483C206.809 44.5483 207.269 44.7301 207.65 45.0938C208.036 45.4517 208.229 45.8807 208.229 46.3807C208.229 46.8864 208.036 47.321 207.65 47.6847C207.269 48.0426 206.809 48.2216 206.269 48.2216ZM218.024 49.9091V52.6364H209.944V49.9091H218.024ZM211.794 63V48.9631C211.794 48.0142 211.978 47.2273 212.348 46.6023C212.723 45.9773 213.234 45.5085 213.882 45.196C214.529 44.8835 215.265 44.7273 216.089 44.7273C216.646 44.7273 217.154 44.7699 217.615 44.8551C218.081 44.9403 218.427 45.017 218.654 45.0852L218.007 47.8125C217.865 47.767 217.689 47.7244 217.478 47.6847C217.274 47.6449 217.064 47.625 216.848 47.625C216.314 47.625 215.941 47.75 215.731 48C215.521 48.2443 215.416 48.5881 215.416 49.0312V63H211.794ZM227.205 49.9091V52.6364H219.321V49.9091H227.205ZM221.111 46.7727H224.742V58.9773C224.742 59.3125 224.793 59.5739 224.895 59.7614C224.998 59.9432 225.14 60.071 225.321 60.1449C225.509 60.2187 225.725 60.2557 225.969 60.2557C226.14 60.2557 226.31 60.2415 226.48 60.2131C226.651 60.179 226.782 60.1534 226.873 60.1364L227.444 62.8381C227.262 62.8949 227.006 62.9602 226.676 63.0341C226.347 63.1136 225.946 63.1619 225.475 63.179C224.6 63.2131 223.833 63.0966 223.174 62.8295C222.52 62.5625 222.012 62.1477 221.648 61.5852C221.284 61.0227 221.105 60.3125 221.111 59.4545V46.7727Z" fill="#929292"/>
</svg>
