<svg width="1363" height="301" viewBox="0 0 1363 301" fill="none" xmlns="http://www.w3.org/2000/svg">
<path d="M1348 0H15C6.71573 0 0 6.71573 0 15V286C0 294.284 6.71573 301 15 301H1348C1356.28 301 1363 294.284 1363 286V15C1363 6.71573 1356.28 0 1348 0Z" fill="#F0F0F0"/>
<path d="M0 15C0 6.71573 6.71573 0 15 0H37V301H15C6.71573 301 0 294.284 0 286V15Z" fill="#026483"/>
<path d="M1257.67 181H105.333C97.9695 181 92 186.97 92 194.333V247.667C92 255.03 97.9695 261 105.333 261H1257.67C1265.03 261 1271 255.03 1271 247.667V194.333C1271 186.97 1265.03 181 1257.67 181Z" fill="#2994B7"/>
<path d="M323.333 196H124.667C122.089 196 120 198.089 120 200.667V240.667C120 243.244 122.089 245.333 124.667 245.333H323.333C325.911 245.333 328 243.244 328 240.667V200.667C328 198.089 325.911 196 323.333 196Z" fill="#0D6582" stroke="#0D6582" stroke-width="4"/>
<path d="M197 213H202.969C204.136 213 205.149 213.173 206.011 213.52C206.872 213.868 207.535 214.382 208 215.062C208.472 215.743 208.708 216.583 208.708 217.583C208.708 218.451 208.573 219.177 208.302 219.76C208.031 220.343 207.653 220.826 207.167 221.208C206.688 221.583 206.129 221.892 205.49 222.135L204.292 222.812H199.281L199.261 219.989H202.969C203.434 219.989 203.82 219.906 204.125 219.739C204.431 219.573 204.66 219.336 204.813 219.031C204.972 218.718 205.052 218.347 205.052 217.916C205.052 217.479 204.972 217.104 204.813 216.791C204.653 216.479 204.417 216.239 204.104 216.073C203.799 215.906 203.42 215.823 202.969 215.823H200.656V228.166H197V213ZM205.302 228.166L201.948 221.458L205.823 221.437L209.219 228.01V228.166H205.302ZM216.208 228.375C215.292 228.375 214.472 228.232 213.75 227.948C213.028 227.656 212.417 227.257 211.917 226.75C211.424 226.243 211.045 225.659 210.781 225C210.524 224.34 210.396 223.642 210.396 222.906V222.51C210.396 221.684 210.511 220.92 210.74 220.218C210.969 219.51 211.309 218.892 211.761 218.364C212.212 217.836 212.778 217.427 213.458 217.135C214.139 216.836 214.931 216.687 215.833 216.687C216.632 216.687 217.347 216.816 217.979 217.073C218.611 217.329 219.146 217.698 219.583 218.177C220.028 218.656 220.365 219.236 220.594 219.916C220.83 220.597 220.948 221.361 220.948 222.208V223.635H211.74V221.437H217.521V221.166C217.528 220.791 217.462 220.472 217.323 220.208C217.191 219.944 216.997 219.743 216.74 219.604C216.483 219.465 216.17 219.395 215.802 219.395C215.42 219.395 215.104 219.479 214.854 219.645C214.611 219.812 214.42 220.041 214.281 220.333C214.149 220.618 214.056 220.948 214 221.323C213.945 221.698 213.917 222.093 213.917 222.51V222.906C213.917 223.323 213.972 223.701 214.083 224.041C214.202 224.382 214.368 224.673 214.583 224.916C214.806 225.152 215.07 225.336 215.375 225.468C215.688 225.6 216.042 225.666 216.438 225.666C216.917 225.666 217.389 225.576 217.854 225.395C218.32 225.215 218.719 224.916 219.052 224.5L220.646 226.395C220.417 226.722 220.09 227.038 219.667 227.343C219.25 227.649 218.75 227.899 218.167 228.093C217.583 228.281 216.931 228.375 216.208 228.375ZM228.229 225.333V220.687C228.229 220.368 228.184 220.093 228.094 219.864C228.004 219.635 227.861 219.458 227.667 219.333C227.472 219.201 227.212 219.135 226.886 219.135C226.622 219.135 226.396 219.18 226.208 219.27C226.021 219.361 225.879 219.496 225.781 219.677C225.684 219.857 225.636 220.086 225.636 220.364H222.125C222.125 219.843 222.24 219.361 222.469 218.916C222.705 218.465 223.038 218.073 223.469 217.739C223.906 217.406 224.427 217.149 225.031 216.968C225.643 216.781 226.323 216.687 227.073 216.687C227.969 216.687 228.768 216.836 229.469 217.135C230.177 217.434 230.736 217.882 231.146 218.479C231.556 219.069 231.761 219.812 231.761 220.708V225.323C231.761 226.059 231.802 226.618 231.886 227C231.969 227.375 232.087 227.704 232.24 227.989V228.166H228.719C228.552 227.819 228.427 227.395 228.344 226.895C228.268 226.388 228.229 225.868 228.229 225.333ZM228.656 221.281L228.677 223.156H227.125C226.799 223.156 226.521 223.201 226.292 223.291C226.07 223.382 225.889 223.507 225.75 223.666C225.618 223.819 225.521 223.993 225.458 224.187C225.403 224.382 225.375 224.586 225.375 224.802C225.375 225.01 225.424 225.198 225.521 225.364C225.625 225.524 225.764 225.649 225.938 225.739C226.111 225.829 226.306 225.875 226.521 225.875C226.91 225.875 227.24 225.802 227.511 225.656C227.788 225.503 228 225.319 228.146 225.104C228.292 224.888 228.365 224.687 228.365 224.5L229.136 225.937C228.997 226.215 228.837 226.496 228.656 226.781C228.483 227.066 228.264 227.329 228 227.573C227.743 227.809 227.427 228.003 227.052 228.156C226.677 228.302 226.222 228.375 225.688 228.375C224.993 228.375 224.354 228.232 223.771 227.948C223.195 227.663 222.733 227.267 222.386 226.76C222.038 226.246 221.865 225.656 221.865 224.989C221.865 224.406 221.969 223.885 222.177 223.427C222.393 222.968 222.715 222.579 223.146 222.26C223.577 221.941 224.125 221.698 224.792 221.531C225.458 221.364 226.243 221.281 227.146 221.281H228.656ZM238.469 225.666C238.795 225.666 239.073 225.607 239.302 225.489C239.538 225.364 239.715 225.191 239.833 224.968C239.958 224.739 240.018 224.465 240.011 224.145H243.313C243.32 224.993 243.111 225.736 242.688 226.375C242.271 227.007 241.702 227.5 240.979 227.854C240.264 228.201 239.455 228.375 238.552 228.375C237.67 228.375 236.899 228.232 236.24 227.948C235.58 227.656 235.028 227.253 234.583 226.739C234.146 226.218 233.816 225.611 233.594 224.916C233.379 224.222 233.271 223.468 233.271 222.656V222.416C233.271 221.604 233.379 220.85 233.594 220.156C233.816 219.454 234.146 218.847 234.583 218.333C235.028 217.812 235.577 217.409 236.229 217.125C236.889 216.833 237.656 216.687 238.531 216.687C239.469 216.687 240.295 216.864 241.011 217.218C241.733 217.573 242.299 218.086 242.708 218.76C243.118 219.434 243.32 220.25 243.313 221.208H240.011C240.018 220.868 239.965 220.562 239.854 220.291C239.743 220.02 239.57 219.805 239.333 219.645C239.104 219.479 238.809 219.395 238.448 219.395C238.087 219.395 237.795 219.475 237.573 219.635C237.351 219.795 237.181 220.017 237.063 220.302C236.952 220.579 236.875 220.899 236.833 221.26C236.799 221.621 236.781 222.007 236.781 222.416V222.656C236.781 223.073 236.799 223.465 236.833 223.833C236.875 224.194 236.955 224.513 237.073 224.791C237.191 225.062 237.361 225.277 237.583 225.437C237.806 225.59 238.101 225.666 238.469 225.666ZM250.75 216.895V219.333H243.958V216.895H250.75ZM245.386 214.093H248.896V224.489C248.896 224.788 248.931 225.02 249 225.187C249.07 225.347 249.188 225.461 249.354 225.531C249.528 225.593 249.757 225.625 250.042 225.625C250.243 225.625 250.41 225.621 250.542 225.614C250.674 225.6 250.799 225.583 250.917 225.562V228.073C250.618 228.17 250.306 228.243 249.979 228.291C249.653 228.347 249.306 228.375 248.938 228.375C248.188 228.375 247.545 228.257 247.011 228.02C246.483 227.784 246.08 227.413 245.802 226.906C245.524 226.399 245.386 225.739 245.386 224.927V214.093Z" fill="white"/>
<path d="M564.333 196H365.667C363.089 196 361 198.089 361 200.667V240.667C361 243.244 363.089 245.333 365.667 245.333H564.333C566.911 245.333 569 243.244 569 240.667V200.667C569 198.089 566.911 196 564.333 196Z" fill="#0D6582" stroke="#0D6582" stroke-width="4"/>
<path d="M98.2273 47.7273L103.852 65.4091H104.068L109.705 47.7273H115.159L107.136 71H100.795L92.7614 47.7273H98.2273ZM122.71 47.7273V71H117.869V47.7273H122.71ZM131.565 71.3295C130.452 71.3295 129.459 71.1364 128.588 70.75C127.717 70.3561 127.027 69.7765 126.52 69.0114C126.02 68.2386 125.77 67.2765 125.77 66.125C125.77 65.1553 125.948 64.3409 126.304 63.6818C126.66 63.0227 127.145 62.4924 127.759 62.0909C128.372 61.6894 129.069 61.3864 129.849 61.1818C130.637 60.9773 131.463 60.8333 132.327 60.75C133.342 60.6439 134.16 60.5455 134.781 60.4545C135.402 60.3561 135.853 60.2121 136.134 60.0227C136.414 59.8333 136.554 59.553 136.554 59.1818V59.1136C136.554 58.3939 136.327 57.8371 135.872 57.4432C135.425 57.0492 134.789 56.8523 133.963 56.8523C133.092 56.8523 132.399 57.0455 131.884 57.4318C131.368 57.8106 131.027 58.2879 130.861 58.8636L126.384 58.5C126.611 57.4394 127.058 56.5227 127.724 55.75C128.391 54.9697 129.251 54.3712 130.304 53.9545C131.365 53.5303 132.592 53.3182 133.986 53.3182C134.955 53.3182 135.884 53.4318 136.77 53.6591C137.664 53.8864 138.455 54.2386 139.145 54.7159C139.842 55.1932 140.391 55.8068 140.793 56.5568C141.194 57.2992 141.395 58.1894 141.395 59.2273V71H136.804V68.5795H136.668C136.387 69.125 136.012 69.6061 135.543 70.0227C135.073 70.4318 134.509 70.7538 133.849 70.9886C133.19 71.2159 132.429 71.3295 131.565 71.3295ZM132.952 67.9886C133.664 67.9886 134.293 67.8485 134.838 67.5682C135.384 67.2803 135.812 66.8939 136.122 66.4091C136.433 65.9242 136.588 65.375 136.588 64.7614V62.9091C136.437 63.0076 136.228 63.0985 135.963 63.1818C135.705 63.2576 135.414 63.3295 135.088 63.3977C134.762 63.4583 134.437 63.5152 134.111 63.5682C133.785 63.6136 133.49 63.6553 133.224 63.6932C132.656 63.7765 132.16 63.9091 131.736 64.0909C131.312 64.2727 130.982 64.5189 130.747 64.8295C130.512 65.1326 130.395 65.5114 130.395 65.9659C130.395 66.625 130.634 67.1288 131.111 67.4773C131.596 67.8182 132.209 67.9886 132.952 67.9886ZM151.582 71.2841C150.257 71.2841 149.056 70.9432 147.98 70.2614C146.912 69.572 146.063 68.5606 145.435 67.2273C144.813 65.8864 144.503 64.2424 144.503 62.2955C144.503 60.2955 144.825 58.6326 145.469 57.3068C146.113 55.9735 146.969 54.9773 148.037 54.3182C149.113 53.6515 150.291 53.3182 151.571 53.3182C152.548 53.3182 153.363 53.4848 154.014 53.8182C154.673 54.1439 155.204 54.553 155.605 55.0455C156.014 55.5303 156.325 56.0076 156.537 56.4773H156.685V47.7273H161.514V71H156.741V68.2045H156.537C156.31 68.6894 155.988 69.1705 155.571 69.6477C155.162 70.1174 154.628 70.5076 153.969 70.8182C153.317 71.1288 152.522 71.2841 151.582 71.2841ZM153.116 67.4318C153.897 67.4318 154.556 67.2197 155.094 66.7955C155.639 66.3636 156.056 65.7614 156.344 64.9886C156.639 64.2159 156.787 63.3106 156.787 62.2727C156.787 61.2348 156.643 60.3333 156.355 59.5682C156.067 58.803 155.651 58.2121 155.105 57.7955C154.56 57.3788 153.897 57.1705 153.116 57.1705C152.321 57.1705 151.651 57.3864 151.105 57.8182C150.56 58.25 150.147 58.8485 149.866 59.6136C149.586 60.3788 149.446 61.2652 149.446 62.2727C149.446 63.2879 149.586 64.1856 149.866 64.9659C150.154 65.7386 150.567 66.3447 151.105 66.7841C151.651 67.2159 152.321 67.4318 153.116 67.4318ZM165.494 71V53.5455H170.335V71H165.494ZM167.926 51.2955C167.206 51.2955 166.589 51.0568 166.074 50.5795C165.566 50.0947 165.312 49.5152 165.312 48.8409C165.312 48.1742 165.566 47.6023 166.074 47.125C166.589 46.6402 167.206 46.3977 167.926 46.3977C168.646 46.3977 169.259 46.6402 169.767 47.125C170.282 47.6023 170.54 48.1742 170.54 48.8409C170.54 49.5152 170.282 50.0947 169.767 50.5795C169.259 51.0568 168.646 51.2955 167.926 51.2955ZM174.213 71V53.5455H178.827V56.625H179.031C179.395 55.6023 180.001 54.7955 180.849 54.2045C181.698 53.6136 182.713 53.3182 183.895 53.3182C185.092 53.3182 186.111 53.6174 186.952 54.2159C187.793 54.8068 188.353 55.6098 188.634 56.625H188.815C189.171 55.625 189.815 54.8258 190.747 54.2273C191.687 53.6212 192.796 53.3182 194.077 53.3182C195.705 53.3182 197.027 53.8371 198.043 54.875C199.065 55.9053 199.577 57.3674 199.577 59.2614V71H194.747V60.2159C194.747 59.2462 194.49 58.5189 193.974 58.0341C193.459 57.5492 192.815 57.3068 192.043 57.3068C191.164 57.3068 190.478 57.5871 189.986 58.1477C189.493 58.7008 189.247 59.4318 189.247 60.3409V71H184.554V60.1136C184.554 59.2576 184.308 58.5758 183.815 58.0682C183.33 57.5606 182.69 57.3068 181.895 57.3068C181.357 57.3068 180.872 57.4432 180.44 57.7159C180.016 57.9811 179.679 58.3561 179.429 58.8409C179.179 59.3182 179.054 59.8788 179.054 60.5227V71H174.213ZM203.401 71V53.5455H208.241V71H203.401ZM205.832 51.2955C205.113 51.2955 204.495 51.0568 203.98 50.5795C203.473 50.0947 203.219 49.5152 203.219 48.8409C203.219 48.1742 203.473 47.6023 203.98 47.125C204.495 46.6402 205.113 46.3977 205.832 46.3977C206.552 46.3977 207.166 46.6402 207.673 47.125C208.188 47.6023 208.446 48.1742 208.446 48.8409C208.446 49.5152 208.188 50.0947 207.673 50.5795C207.166 51.0568 206.552 51.2955 205.832 51.2955ZM212.119 71V53.5455H216.812V56.5909H216.994C217.313 55.5076 217.847 54.6894 218.597 54.1364C219.347 53.5758 220.21 53.2955 221.188 53.2955C221.43 53.2955 221.691 53.3106 221.972 53.3409C222.252 53.3712 222.498 53.4129 222.71 53.4659V57.7614C222.483 57.6932 222.169 57.6326 221.767 57.5795C221.366 57.5265 220.998 57.5 220.665 57.5C219.953 57.5 219.316 57.6553 218.756 57.9659C218.203 58.2689 217.763 58.6932 217.438 59.2386C217.119 59.7841 216.96 60.4129 216.96 61.125V71H212.119ZM232.71 47.7273H238.778L245.188 63.3636H245.46L251.869 47.7273H257.938V71H253.165V55.8523H252.972L246.949 70.8864H243.699L237.676 55.7955H237.483V71H232.71V47.7273ZM266.878 71.3295C265.764 71.3295 264.772 71.1364 263.901 70.75C263.029 70.3561 262.34 69.7765 261.832 69.0114C261.332 68.2386 261.082 67.2765 261.082 66.125C261.082 65.1553 261.26 64.3409 261.616 63.6818C261.973 63.0227 262.457 62.4924 263.071 62.0909C263.685 61.6894 264.382 61.3864 265.162 61.1818C265.95 60.9773 266.776 60.8333 267.639 60.75C268.654 60.6439 269.473 60.5455 270.094 60.4545C270.715 60.3561 271.166 60.2121 271.446 60.0227C271.726 59.8333 271.866 59.553 271.866 59.1818V59.1136C271.866 58.3939 271.639 57.8371 271.185 57.4432C270.738 57.0492 270.101 56.8523 269.276 56.8523C268.404 56.8523 267.711 57.0455 267.196 57.4318C266.681 57.8106 266.34 58.2879 266.173 58.8636L261.696 58.5C261.923 57.4394 262.37 56.5227 263.037 55.75C263.704 54.9697 264.563 54.3712 265.616 53.9545C266.677 53.5303 267.904 53.3182 269.298 53.3182C270.268 53.3182 271.196 53.4318 272.082 53.6591C272.976 53.8864 273.768 54.2386 274.457 54.7159C275.154 55.1932 275.704 55.8068 276.105 56.5568C276.507 57.2992 276.707 58.1894 276.707 59.2273V71H272.116V68.5795H271.98C271.7 69.125 271.325 69.6061 270.855 70.0227C270.385 70.4318 269.821 70.7538 269.162 70.9886C268.503 71.2159 267.741 71.3295 266.878 71.3295ZM268.264 67.9886C268.976 67.9886 269.605 67.8485 270.151 67.5682C270.696 67.2803 271.124 66.8939 271.435 66.4091C271.745 65.9242 271.901 65.375 271.901 64.7614V62.9091C271.749 63.0076 271.541 63.0985 271.276 63.1818C271.018 63.2576 270.726 63.3295 270.401 63.3977C270.075 63.4583 269.749 63.5152 269.423 63.5682C269.098 63.6136 268.802 63.6553 268.537 63.6932C267.969 63.7765 267.473 63.9091 267.048 64.0909C266.624 64.2727 266.295 64.5189 266.06 64.8295C265.825 65.1326 265.707 65.5114 265.707 65.9659C265.707 66.625 265.946 67.1288 266.423 67.4773C266.908 67.8182 267.522 67.9886 268.264 67.9886ZM283.906 71L279.156 53.5455H284.054L286.759 65.2727H286.918L289.736 53.5455H294.543L297.406 65.2045H297.554L300.213 53.5455H305.099L300.361 71H295.236L292.236 60.0227H292.02L289.02 71H283.906ZM312.523 47.7273V71H307.682V47.7273H312.523ZM321.378 71.3295C320.264 71.3295 319.272 71.1364 318.401 70.75C317.529 70.3561 316.84 69.7765 316.332 69.0114C315.832 68.2386 315.582 67.2765 315.582 66.125C315.582 65.1553 315.76 64.3409 316.116 63.6818C316.473 63.0227 316.957 62.4924 317.571 62.0909C318.185 61.6894 318.882 61.3864 319.662 61.1818C320.45 60.9773 321.276 60.8333 322.139 60.75C323.154 60.6439 323.973 60.5455 324.594 60.4545C325.215 60.3561 325.666 60.2121 325.946 60.0227C326.226 59.8333 326.366 59.553 326.366 59.1818V59.1136C326.366 58.3939 326.139 57.8371 325.685 57.4432C325.238 57.0492 324.601 56.8523 323.776 56.8523C322.904 56.8523 322.211 57.0455 321.696 57.4318C321.181 57.8106 320.84 58.2879 320.673 58.8636L316.196 58.5C316.423 57.4394 316.87 56.5227 317.537 55.75C318.204 54.9697 319.063 54.3712 320.116 53.9545C321.177 53.5303 322.404 53.3182 323.798 53.3182C324.768 53.3182 325.696 53.4318 326.582 53.6591C327.476 53.8864 328.268 54.2386 328.957 54.7159C329.654 55.1932 330.204 55.8068 330.605 56.5568C331.007 57.2992 331.207 58.1894 331.207 59.2273V71H326.616V68.5795H326.48C326.2 69.125 325.825 69.6061 325.355 70.0227C324.885 70.4318 324.321 70.7538 323.662 70.9886C323.003 71.2159 322.241 71.3295 321.378 71.3295ZM322.764 67.9886C323.476 67.9886 324.105 67.8485 324.651 67.5682C325.196 67.2803 325.624 66.8939 325.935 66.4091C326.245 65.9242 326.401 65.375 326.401 64.7614V62.9091C326.249 63.0076 326.041 63.0985 325.776 63.1818C325.518 63.2576 325.226 63.3295 324.901 63.3977C324.575 63.4583 324.249 63.5152 323.923 63.5682C323.598 63.6136 323.302 63.6553 323.037 63.6932C322.469 63.7765 321.973 63.9091 321.548 64.0909C321.124 64.2727 320.795 64.5189 320.56 64.8295C320.325 65.1326 320.207 65.5114 320.207 65.9659C320.207 66.625 320.446 67.1288 320.923 67.4773C321.408 67.8182 322.022 67.9886 322.764 67.9886Z" fill="#8C8C8C"/>
<path d="M95.4766 110H105.906L116.922 136.875H117.391L128.406 110H138.836V150H130.633V123.965H130.301L119.949 149.805H114.363L104.012 123.867H103.68V150H95.4766V110ZM145.647 150V120H153.968V150H145.647ZM149.827 116.133C148.59 116.133 147.529 115.723 146.644 114.902C145.771 114.069 145.335 113.073 145.335 111.914C145.335 110.768 145.771 109.785 146.644 108.965C147.529 108.132 148.59 107.715 149.827 107.715C151.064 107.715 152.119 108.132 152.991 108.965C153.877 109.785 154.319 110.768 154.319 111.914C154.319 113.073 153.877 114.069 152.991 114.902C152.119 115.723 151.064 116.133 149.827 116.133ZM168.953 132.656V150H160.633V120H168.563V125.293H168.914C169.578 123.548 170.691 122.168 172.254 121.152C173.816 120.124 175.711 119.609 177.938 119.609C180.021 119.609 181.837 120.065 183.387 120.977C184.936 121.888 186.141 123.19 187 124.883C187.859 126.562 188.289 128.568 188.289 130.898V150H179.969V132.383C179.982 130.547 179.513 129.115 178.563 128.086C177.612 127.044 176.303 126.523 174.637 126.523C173.517 126.523 172.527 126.764 171.668 127.246C170.822 127.728 170.158 128.431 169.676 129.355C169.207 130.267 168.966 131.367 168.953 132.656ZM205.901 150.488C203.623 150.488 201.559 149.902 199.71 148.73C197.874 147.546 196.416 145.807 195.335 143.516C194.267 141.211 193.733 138.385 193.733 135.039C193.733 131.602 194.287 128.743 195.394 126.465C196.5 124.173 197.972 122.461 199.808 121.328C201.657 120.182 203.681 119.609 205.882 119.609C207.562 119.609 208.961 119.896 210.081 120.469C211.214 121.029 212.125 121.732 212.815 122.578C213.519 123.411 214.052 124.232 214.417 125.039H214.671V110H222.972V150H214.769V145.195H214.417C214.026 146.029 213.473 146.855 212.757 147.676C212.054 148.483 211.136 149.154 210.003 149.687C208.883 150.221 207.516 150.488 205.901 150.488ZM208.538 143.867C209.879 143.867 211.012 143.503 211.937 142.773C212.874 142.031 213.59 140.996 214.085 139.668C214.593 138.34 214.847 136.784 214.847 135C214.847 133.216 214.599 131.667 214.104 130.352C213.61 129.036 212.894 128.021 211.956 127.305C211.019 126.589 209.879 126.23 208.538 126.23C207.171 126.23 206.019 126.602 205.081 127.344C204.144 128.086 203.434 129.115 202.952 130.43C202.47 131.745 202.229 133.268 202.229 135C202.229 136.745 202.47 138.288 202.952 139.629C203.447 140.957 204.157 141.999 205.081 142.754C206.019 143.496 207.171 143.867 208.538 143.867ZM251.668 121.504C251.512 119.928 250.841 118.704 249.656 117.832C248.471 116.96 246.863 116.523 244.832 116.523C243.452 116.523 242.286 116.719 241.336 117.109C240.385 117.487 239.656 118.014 239.148 118.691C238.654 119.368 238.406 120.137 238.406 120.996C238.38 121.712 238.53 122.337 238.855 122.871C239.194 123.405 239.656 123.867 240.242 124.258C240.828 124.635 241.505 124.967 242.273 125.254C243.042 125.527 243.862 125.762 244.734 125.957L248.328 126.816C250.073 127.207 251.674 127.728 253.133 128.379C254.591 129.03 255.854 129.831 256.922 130.781C257.99 131.732 258.816 132.852 259.402 134.141C260.001 135.43 260.307 136.908 260.32 138.574C260.307 141.022 259.682 143.145 258.445 144.941C257.221 146.725 255.451 148.112 253.133 149.102C250.828 150.078 248.048 150.566 244.793 150.566C241.564 150.566 238.751 150.072 236.355 149.082C233.973 148.092 232.111 146.628 230.77 144.687C229.441 142.734 228.745 140.319 228.68 137.441H236.863C236.954 138.783 237.339 139.902 238.016 140.801C238.706 141.686 239.624 142.357 240.77 142.812C241.928 143.255 243.237 143.477 244.695 143.477C246.128 143.477 247.371 143.268 248.426 142.852C249.493 142.435 250.32 141.855 250.906 141.113C251.492 140.371 251.785 139.518 251.785 138.555C251.785 137.656 251.518 136.901 250.984 136.289C250.464 135.677 249.695 135.156 248.68 134.727C247.677 134.297 246.447 133.906 244.988 133.555L240.633 132.461C237.26 131.641 234.598 130.358 232.645 128.613C230.691 126.868 229.721 124.518 229.734 121.562C229.721 119.141 230.366 117.025 231.668 115.215C232.983 113.405 234.786 111.992 237.078 110.977C239.37 109.961 241.974 109.453 244.891 109.453C247.859 109.453 250.451 109.961 252.664 110.977C254.891 111.992 256.622 113.405 257.859 115.215C259.096 117.025 259.734 119.121 259.773 121.504H251.668ZM274.173 132.656V150H265.853V110H273.938V125.293H274.29C274.967 123.522 276.061 122.135 277.571 121.133C279.082 120.117 280.976 119.609 283.255 119.609C285.338 119.609 287.155 120.065 288.704 120.977C290.267 121.875 291.478 123.171 292.337 124.863C293.209 126.543 293.639 128.555 293.626 130.898V150H285.306V132.383C285.319 130.534 284.85 129.095 283.899 128.066C282.962 127.038 281.647 126.523 279.954 126.523C278.821 126.523 277.819 126.764 276.946 127.246C276.087 127.728 275.41 128.431 274.915 129.355C274.433 130.267 274.186 131.367 274.173 132.656ZM300.174 150V120H308.494V150H300.174ZM304.354 116.133C303.117 116.133 302.055 115.723 301.17 114.902C300.298 114.069 299.861 113.073 299.861 111.914C299.861 110.768 300.298 109.785 301.17 108.965C302.055 108.132 303.117 107.715 304.354 107.715C305.59 107.715 306.645 108.132 307.518 108.965C308.403 109.785 308.846 110.768 308.846 111.914C308.846 113.073 308.403 114.069 307.518 114.902C306.645 115.723 305.59 116.133 304.354 116.133ZM331.292 120V126.25H312.776V120H331.292ZM317.015 150V117.832C317.015 115.658 317.438 113.854 318.284 112.422C319.144 110.99 320.315 109.915 321.8 109.199C323.284 108.483 324.97 108.125 326.858 108.125C328.134 108.125 329.3 108.223 330.354 108.418C331.422 108.613 332.216 108.789 332.737 108.945L331.253 115.195C330.927 115.091 330.524 114.993 330.042 114.902C329.573 114.811 329.091 114.766 328.597 114.766C327.373 114.766 326.52 115.052 326.038 115.625C325.556 116.185 325.315 116.973 325.315 117.988V150H317.015ZM352.332 120V126.25H334.266V120H352.332ZM338.367 112.812H346.688V140.781C346.688 141.549 346.805 142.148 347.039 142.578C347.273 142.995 347.599 143.288 348.016 143.457C348.445 143.626 348.94 143.711 349.5 143.711C349.891 143.711 350.281 143.678 350.672 143.613C351.062 143.535 351.362 143.477 351.57 143.437L352.879 149.629C352.462 149.759 351.876 149.909 351.121 150.078C350.366 150.26 349.448 150.371 348.367 150.41C346.362 150.488 344.604 150.221 343.094 149.609C341.596 148.997 340.431 148.047 339.598 146.758C338.764 145.469 338.354 143.841 338.367 141.875V112.812Z" fill="black"/>
<path d="M424 229.667V212.212H427.69V226.624H435.173V229.667H424ZM441.282 229.914C440.447 229.914 439.702 229.769 439.049 229.479C438.396 229.184 437.879 228.749 437.498 228.176C437.123 227.596 436.935 226.874 436.935 226.011C436.935 225.283 437.069 224.673 437.336 224.178C437.603 223.684 437.967 223.286 438.427 222.985C438.887 222.684 439.41 222.457 439.995 222.303C440.586 222.15 441.205 222.042 441.853 221.979C442.614 221.9 443.228 221.826 443.694 221.758C444.16 221.684 444.498 221.576 444.708 221.434C444.918 221.292 445.023 221.082 445.023 220.803V220.752C445.023 220.212 444.853 219.795 444.512 219.499C444.177 219.204 443.7 219.056 443.08 219.056C442.427 219.056 441.907 219.201 441.521 219.491C441.134 219.775 440.879 220.133 440.754 220.565L437.396 220.292C437.566 219.497 437.901 218.809 438.401 218.229C438.901 217.644 439.546 217.195 440.336 216.883C441.131 216.565 442.052 216.406 443.097 216.406C443.825 216.406 444.521 216.491 445.185 216.661C445.856 216.832 446.45 217.096 446.967 217.454C447.489 217.812 447.901 218.272 448.202 218.835C448.504 219.391 448.654 220.059 448.654 220.837V229.667H445.211V227.852H445.109C444.898 228.261 444.617 228.622 444.265 228.934C443.913 229.241 443.489 229.482 442.995 229.658C442.501 229.829 441.93 229.914 441.282 229.914ZM442.322 227.408C442.856 227.408 443.327 227.303 443.737 227.093C444.146 226.877 444.467 226.587 444.7 226.224C444.933 225.86 445.049 225.448 445.049 224.988V223.599C444.935 223.673 444.779 223.741 444.58 223.803C444.387 223.86 444.168 223.914 443.924 223.965C443.68 224.011 443.435 224.053 443.191 224.093C442.947 224.127 442.725 224.158 442.526 224.187C442.1 224.249 441.728 224.349 441.41 224.485C441.092 224.622 440.845 224.806 440.668 225.039C440.492 225.266 440.404 225.551 440.404 225.891C440.404 226.386 440.583 226.764 440.941 227.025C441.305 227.281 441.765 227.408 442.322 227.408ZM451.471 229.667V216.576H454.991V218.86H455.127C455.366 218.048 455.766 217.434 456.329 217.019C456.891 216.599 457.539 216.389 458.272 216.389C458.454 216.389 458.65 216.4 458.86 216.423C459.07 216.445 459.255 216.477 459.414 216.516V219.738C459.244 219.687 459.008 219.641 458.707 219.602C458.406 219.562 458.13 219.542 457.88 219.542C457.346 219.542 456.869 219.658 456.448 219.891C456.033 220.119 455.704 220.437 455.46 220.846C455.221 221.255 455.102 221.727 455.102 222.261V229.667H451.471ZM464.649 229.914C463.814 229.914 463.07 229.769 462.416 229.479C461.763 229.184 461.246 228.749 460.865 228.176C460.49 227.596 460.303 226.874 460.303 226.011C460.303 225.283 460.436 224.673 460.703 224.178C460.97 223.684 461.334 223.286 461.794 222.985C462.254 222.684 462.777 222.457 463.362 222.303C463.953 222.15 464.572 222.042 465.22 221.979C465.982 221.9 466.595 221.826 467.061 221.758C467.527 221.684 467.865 221.576 468.075 221.434C468.286 221.292 468.391 221.082 468.391 220.803V220.752C468.391 220.212 468.22 219.795 467.879 219.499C467.544 219.204 467.067 219.056 466.447 219.056C465.794 219.056 465.274 219.201 464.888 219.491C464.501 219.775 464.246 220.133 464.121 220.565L460.763 220.292C460.933 219.497 461.269 218.809 461.769 218.229C462.269 217.644 462.913 217.195 463.703 216.883C464.499 216.565 465.419 216.406 466.465 216.406C467.192 216.406 467.888 216.491 468.553 216.661C469.223 216.832 469.817 217.096 470.334 217.454C470.857 217.812 471.269 218.272 471.57 218.835C471.871 219.391 472.021 220.059 472.021 220.837V229.667H468.578V227.852H468.476C468.266 228.261 467.984 228.622 467.632 228.934C467.28 229.241 466.857 229.482 466.362 229.658C465.868 229.829 465.297 229.914 464.649 229.914ZM465.689 227.408C466.223 227.408 466.695 227.303 467.104 227.093C467.513 226.877 467.834 226.587 468.067 226.224C468.3 225.86 468.416 225.448 468.416 224.988V223.599C468.303 223.673 468.146 223.741 467.947 223.803C467.754 223.86 467.536 223.914 467.291 223.965C467.047 224.011 466.803 224.053 466.558 224.093C466.314 224.127 466.092 224.158 465.894 224.187C465.467 224.249 465.095 224.349 464.777 224.485C464.459 224.622 464.212 224.806 464.036 225.039C463.859 225.266 463.771 225.551 463.771 225.891C463.771 226.386 463.95 226.764 464.308 227.025C464.672 227.281 465.132 227.408 465.689 227.408ZM486.574 216.576L481.997 229.667H477.906L473.33 216.576H477.165L479.884 225.943H480.02L482.73 216.576H486.574ZM493.976 229.923C492.629 229.923 491.47 229.65 490.499 229.105C489.533 228.553 488.788 227.775 488.266 226.769C487.743 225.758 487.482 224.562 487.482 223.181C487.482 221.835 487.743 220.653 488.266 219.636C488.788 218.619 489.524 217.826 490.473 217.258C491.428 216.69 492.547 216.406 493.831 216.406C494.695 216.406 495.499 216.545 496.243 216.823C496.993 217.096 497.646 217.508 498.203 218.059C498.766 218.61 499.203 219.303 499.516 220.139C499.828 220.968 499.984 221.94 499.984 223.053V224.051H488.93V221.801H496.567C496.567 221.278 496.453 220.815 496.226 220.411C495.999 220.008 495.683 219.693 495.28 219.465C494.882 219.232 494.419 219.116 493.891 219.116C493.34 219.116 492.851 219.244 492.425 219.499C492.004 219.749 491.675 220.087 491.436 220.514C491.197 220.934 491.075 221.403 491.07 221.92V224.059C491.07 224.707 491.189 225.266 491.428 225.738C491.672 226.21 492.016 226.573 492.459 226.829C492.902 227.085 493.428 227.212 494.036 227.212C494.439 227.212 494.808 227.156 495.144 227.042C495.479 226.928 495.766 226.758 496.004 226.531C496.243 226.303 496.425 226.025 496.55 225.695L499.908 225.917C499.737 226.724 499.388 227.428 498.859 228.031C498.337 228.627 497.661 229.093 496.831 229.428C496.007 229.758 495.055 229.923 493.976 229.923ZM505.984 212.212V229.667H502.354V212.212H505.984Z" fill="white"/>
<path d="M805.333 196H606.667C604.089 196 602 198.089 602 200.667V240.667C602 243.244 604.089 245.333 606.667 245.333H805.333C807.911 245.333 810 243.244 810 240.667V200.667C810 198.089 807.911 196 805.333 196Z" fill="#0D6582" stroke="#0D6582" stroke-width="4"/>
<path d="M673.391 213H677.562L681.969 223.75H682.156L686.562 213H690.734V229H687.453V218.586H687.32L683.18 228.922H680.945L676.805 218.547H676.672V229H673.391V213ZM695.514 233.5C695.092 233.5 694.696 233.466 694.326 233.398C693.962 233.336 693.66 233.255 693.42 233.156L694.17 230.672C694.561 230.792 694.912 230.857 695.225 230.867C695.542 230.878 695.816 230.805 696.045 230.648C696.279 230.492 696.469 230.227 696.615 229.852L696.811 229.344L692.506 217H696.006L698.49 225.812H698.615L701.123 217H704.646L699.982 230.297C699.758 230.943 699.454 231.505 699.068 231.984C698.688 232.469 698.206 232.841 697.623 233.102C697.04 233.367 696.337 233.5 695.514 233.5ZM715.092 217.602C715.029 216.971 714.761 216.482 714.287 216.133C713.813 215.784 713.17 215.609 712.357 215.609C711.805 215.609 711.339 215.687 710.959 215.844C710.579 215.995 710.287 216.206 710.084 216.477C709.886 216.747 709.787 217.055 709.787 217.398C709.777 217.685 709.837 217.935 709.967 218.148C710.102 218.362 710.287 218.547 710.521 218.703C710.756 218.854 711.027 218.987 711.334 219.102C711.641 219.211 711.969 219.305 712.318 219.383L713.756 219.727C714.454 219.883 715.094 220.091 715.678 220.352C716.261 220.612 716.766 220.932 717.193 221.312C717.62 221.693 717.951 222.141 718.186 222.656C718.425 223.172 718.548 223.763 718.553 224.43C718.548 225.409 718.298 226.258 717.803 226.977C717.313 227.69 716.605 228.245 715.678 228.641C714.756 229.031 713.644 229.227 712.342 229.227C711.05 229.227 709.925 229.029 708.967 228.633C708.014 228.237 707.269 227.651 706.732 226.875C706.201 226.094 705.923 225.128 705.896 223.977H709.17C709.206 224.513 709.36 224.961 709.631 225.32C709.907 225.674 710.274 225.943 710.732 226.125C711.196 226.302 711.719 226.391 712.303 226.391C712.876 226.391 713.373 226.307 713.795 226.141C714.222 225.974 714.553 225.742 714.787 225.445C715.021 225.148 715.139 224.807 715.139 224.422C715.139 224.062 715.032 223.76 714.818 223.516C714.61 223.271 714.303 223.062 713.896 222.891C713.495 222.719 713.003 222.562 712.42 222.422L710.678 221.984C709.329 221.656 708.264 221.143 707.482 220.445C706.701 219.747 706.313 218.807 706.318 217.625C706.313 216.656 706.571 215.81 707.092 215.086C707.618 214.362 708.339 213.797 709.256 213.391C710.173 212.984 711.214 212.781 712.381 212.781C713.568 212.781 714.605 212.984 715.49 213.391C716.381 213.797 717.074 214.362 717.568 215.086C718.063 215.81 718.318 216.648 718.334 217.602H715.092ZM726.867 223.438H729.742L731.188 225.297L732.609 226.953L735.289 230.313H732.133L730.289 228.047L729.344 226.703L726.867 223.438ZM735.531 221C735.531 222.745 735.201 224.229 734.539 225.453C733.883 226.677 732.987 227.612 731.852 228.258C730.721 228.898 729.451 229.219 728.039 229.219C726.617 229.219 725.341 228.896 724.211 228.25C723.081 227.604 722.188 226.669 721.531 225.445C720.875 224.221 720.547 222.74 720.547 221C720.547 219.255 720.875 217.771 721.531 216.547C722.188 215.323 723.081 214.391 724.211 213.75C725.341 213.104 726.617 212.781 728.039 212.781C729.451 212.781 730.721 213.104 731.852 213.75C732.987 214.391 733.883 215.323 734.539 216.547C735.201 217.771 735.531 219.255 735.531 221ZM732.102 221C732.102 219.87 731.932 218.917 731.594 218.141C731.26 217.365 730.789 216.776 730.18 216.375C729.57 215.974 728.857 215.773 728.039 215.773C727.221 215.773 726.508 215.974 725.898 216.375C725.289 216.776 724.815 217.365 724.477 218.141C724.143 218.917 723.977 219.87 723.977 221C723.977 222.13 724.143 223.083 724.477 223.859C724.815 224.635 725.289 225.224 725.898 225.625C726.508 226.026 727.221 226.227 728.039 226.227C728.857 226.227 729.57 226.026 730.18 225.625C730.789 225.224 731.26 224.635 731.594 223.859C731.932 223.083 732.102 222.13 732.102 221ZM738.037 229V213H741.42V226.211H748.279V229H738.037Z" fill="white"/>
</svg>
