<svg width="1363" height="167" viewBox="0 0 1363 167" fill="none" xmlns="http://www.w3.org/2000/svg">
<path d="M1348 0H15C6.71573 0 0 6.71573 0 15V152C0 160.284 6.71573 167 15 167H1348C1356.28 167 1363 160.284 1363 152V15C1363 6.71573 1356.28 0 1348 0Z" fill="#F0F0F0"/>
<path d="M0 15C0 6.71573 6.71573 0 15 0H37V167H15C6.71573 167 0 160.284 0 152V15Z" fill="#DF8A27"/>
<path d="M100.906 54.9219L93.3945 52.2383V49.0859L103.602 53.375V55.6367L100.906 54.9219ZM93.3945 57.1719L100.918 54.4297L103.602 53.7852V56.0352L93.3945 60.3242V57.1719Z" fill="#888888"/>
<path d="M109.93 83.0078V115H102.217V83.0078H109.93ZM119.554 83.0078V88.9624H92.813V83.0078H119.554ZM132.012 115.439C130.079 115.439 128.35 115.139 126.827 114.539C125.303 113.923 124.014 113.081 122.959 112.012C121.919 110.942 121.121 109.712 120.564 108.32C120.022 106.929 119.751 105.457 119.751 103.904V103.069C119.751 101.326 119.993 99.7144 120.477 98.2349C120.96 96.7407 121.678 95.437 122.63 94.3237C123.582 93.2104 124.776 92.3462 126.211 91.731C127.647 91.1011 129.317 90.7861 131.221 90.7861C132.906 90.7861 134.415 91.0571 135.748 91.5991C137.081 92.1411 138.208 92.9175 139.131 93.9282C140.069 94.939 140.779 96.1621 141.263 97.5977C141.761 99.0332 142.01 100.645 142.01 102.432V105.442H122.586V100.806H134.781V100.234C134.795 99.4434 134.656 98.7695 134.363 98.2129C134.085 97.6562 133.675 97.2314 133.133 96.9385C132.591 96.6455 131.932 96.499 131.155 96.499C130.35 96.499 129.683 96.6748 129.156 97.0264C128.643 97.3779 128.24 97.8613 127.947 98.4766C127.669 99.0771 127.471 99.7729 127.354 100.564C127.237 101.355 127.178 102.19 127.178 103.069V103.904C127.178 104.783 127.295 105.581 127.53 106.299C127.779 107.017 128.13 107.632 128.584 108.145C129.053 108.643 129.61 109.031 130.254 109.309C130.914 109.587 131.661 109.727 132.496 109.727C133.506 109.727 134.502 109.536 135.484 109.155C136.465 108.774 137.308 108.145 138.011 107.266L141.373 111.265C140.889 111.953 140.201 112.62 139.307 113.264C138.428 113.909 137.374 114.436 136.143 114.846C134.913 115.242 133.536 115.439 132.012 115.439ZM155.062 109.727C155.75 109.727 156.336 109.602 156.819 109.353C157.317 109.089 157.691 108.723 157.94 108.254C158.204 107.771 158.328 107.192 158.313 106.519H165.279C165.293 108.306 164.854 109.873 163.96 111.221C163.082 112.554 161.88 113.594 160.357 114.341C158.848 115.073 157.142 115.439 155.237 115.439C153.377 115.439 151.751 115.139 150.359 114.539C148.968 113.923 147.803 113.074 146.866 111.99C145.943 110.891 145.247 109.609 144.778 108.145C144.324 106.68 144.097 105.09 144.097 103.376V102.871C144.097 101.157 144.324 99.5679 144.778 98.103C145.247 96.6235 145.943 95.3418 146.866 94.2578C147.803 93.1592 148.96 92.3096 150.337 91.709C151.729 91.0938 153.348 90.7861 155.193 90.7861C157.171 90.7861 158.914 91.1597 160.423 91.9067C161.946 92.6538 163.14 93.7378 164.004 95.1587C164.869 96.5796 165.293 98.3008 165.279 100.322H158.313C158.328 99.6045 158.218 98.96 157.984 98.3887C157.75 97.8174 157.383 97.3633 156.885 97.0264C156.402 96.6748 155.779 96.499 155.018 96.499C154.256 96.499 153.641 96.6675 153.172 97.0044C152.703 97.3413 152.344 97.8101 152.095 98.4106C151.861 98.9966 151.7 99.6704 151.612 100.432C151.539 101.194 151.502 102.007 151.502 102.871V103.376C151.502 104.255 151.539 105.083 151.612 105.859C151.7 106.621 151.868 107.295 152.117 107.881C152.366 108.452 152.725 108.906 153.194 109.243C153.663 109.565 154.285 109.727 155.062 109.727ZM175.694 81.25V115H168.289V81.25H175.694ZM174.815 102.3L173.079 102.344C173.079 100.674 173.284 99.1357 173.694 97.7295C174.104 96.3232 174.69 95.1001 175.452 94.0601C176.214 93.02 177.129 92.2144 178.199 91.6431C179.268 91.0718 180.455 90.7861 181.758 90.7861C182.93 90.7861 184 90.9546 184.966 91.2915C185.948 91.6284 186.79 92.1704 187.493 92.9175C188.211 93.6646 188.76 94.6387 189.141 95.8398C189.537 97.041 189.734 98.5059 189.734 100.234V115H182.286V100.19C182.286 99.2236 182.146 98.4766 181.868 97.9492C181.604 97.4072 181.224 97.0337 180.726 96.8286C180.228 96.6089 179.62 96.499 178.902 96.499C178.038 96.499 177.334 96.6455 176.792 96.9385C176.25 97.2314 175.833 97.6416 175.54 98.1689C175.262 98.6816 175.071 99.2896 174.969 99.9927C174.866 100.696 174.815 101.465 174.815 102.3ZM221.88 106.497C221.88 105.999 221.807 105.552 221.661 105.156C221.514 104.746 221.243 104.365 220.848 104.014C220.452 103.662 219.881 103.311 219.134 102.959C218.401 102.593 217.435 102.212 216.233 101.816C214.827 101.348 213.472 100.82 212.168 100.234C210.865 99.6338 209.7 98.938 208.675 98.147C207.649 97.3413 206.836 96.4038 206.236 95.3345C205.635 94.2505 205.335 92.9907 205.335 91.5552C205.335 90.1782 205.643 88.9404 206.258 87.8418C206.873 86.7285 207.73 85.7837 208.829 85.0073C209.942 84.2163 211.246 83.6157 212.74 83.2056C214.234 82.7808 215.867 82.5684 217.64 82.5684C219.983 82.5684 222.049 82.9785 223.836 83.7988C225.638 84.6045 227.044 85.7544 228.055 87.2485C229.08 88.728 229.593 90.4785 229.593 92.5H221.924C221.924 91.6943 221.756 90.9839 221.419 90.3687C221.097 89.7534 220.606 89.27 219.947 88.9185C219.288 88.5669 218.46 88.3911 217.464 88.3911C216.497 88.3911 215.684 88.5376 215.025 88.8306C214.366 89.1235 213.868 89.519 213.531 90.0171C213.194 90.5005 213.025 91.0352 213.025 91.6211C213.025 92.1045 213.157 92.5439 213.421 92.9395C213.699 93.3203 214.087 93.6792 214.585 94.0161C215.098 94.353 215.713 94.6753 216.431 94.9829C217.164 95.2905 217.984 95.5908 218.892 95.8838C220.591 96.4258 222.1 97.0337 223.418 97.7075C224.751 98.3667 225.872 99.1211 226.78 99.9707C227.703 100.806 228.399 101.758 228.868 102.827C229.351 103.896 229.593 105.105 229.593 106.453C229.593 107.888 229.314 109.163 228.758 110.276C228.201 111.389 227.403 112.334 226.363 113.11C225.323 113.872 224.078 114.451 222.627 114.846C221.177 115.242 219.559 115.439 217.771 115.439C216.131 115.439 214.512 115.234 212.916 114.824C211.333 114.399 209.898 113.755 208.609 112.891C207.32 112.012 206.287 110.891 205.511 109.529C204.749 108.152 204.368 106.519 204.368 104.629H212.103C212.103 105.566 212.227 106.357 212.476 107.002C212.725 107.646 213.091 108.167 213.575 108.562C214.058 108.943 214.651 109.221 215.354 109.397C216.058 109.558 216.863 109.639 217.771 109.639C218.753 109.639 219.544 109.5 220.145 109.221C220.745 108.928 221.185 108.547 221.463 108.079C221.741 107.595 221.88 107.068 221.88 106.497ZM245.743 91.2256V96.3672H231.417V91.2256H245.743ZM234.427 85.3149H241.832V107.244C241.832 107.874 241.905 108.364 242.051 108.716C242.198 109.053 242.447 109.294 242.798 109.441C243.165 109.573 243.648 109.639 244.249 109.639C244.673 109.639 245.025 109.631 245.303 109.617C245.582 109.587 245.845 109.551 246.094 109.507V114.802C245.464 115.007 244.805 115.161 244.117 115.264C243.428 115.381 242.696 115.439 241.919 115.439C240.337 115.439 238.982 115.19 237.854 114.692C236.741 114.194 235.892 113.411 235.306 112.341C234.72 111.272 234.427 109.88 234.427 108.167V85.3149ZM261.036 109.023V99.2236C261.036 98.5498 260.94 97.9712 260.75 97.4878C260.56 97.0044 260.259 96.6309 259.849 96.3672C259.439 96.0889 258.89 95.9497 258.201 95.9497C257.645 95.9497 257.168 96.0449 256.773 96.2354C256.377 96.4258 256.077 96.7114 255.872 97.0923C255.667 97.4731 255.564 97.9565 255.564 98.5425H248.16C248.16 97.4438 248.401 96.4258 248.885 95.4883C249.383 94.5361 250.086 93.7085 250.994 93.0054C251.917 92.3022 253.016 91.7603 254.29 91.3794C255.579 90.9839 257.015 90.7861 258.597 90.7861C260.486 90.7861 262.171 91.1011 263.65 91.731C265.145 92.3608 266.324 93.3057 267.188 94.5654C268.052 95.8105 268.484 97.3779 268.484 99.2676V109.001C268.484 110.554 268.572 111.733 268.748 112.539C268.924 113.33 269.173 114.026 269.495 114.626V115H262.068C261.717 114.268 261.453 113.374 261.277 112.319C261.116 111.25 261.036 110.151 261.036 109.023ZM261.937 100.476L261.98 104.431H258.707C258.018 104.431 257.432 104.526 256.949 104.717C256.48 104.907 256.099 105.171 255.806 105.508C255.528 105.83 255.323 106.196 255.191 106.606C255.074 107.017 255.015 107.449 255.015 107.903C255.015 108.342 255.118 108.738 255.323 109.089C255.542 109.426 255.835 109.69 256.202 109.88C256.568 110.071 256.978 110.166 257.432 110.166C258.252 110.166 258.948 110.012 259.52 109.705C260.105 109.382 260.552 108.994 260.86 108.54C261.167 108.086 261.321 107.661 261.321 107.266L262.947 110.298C262.654 110.884 262.317 111.477 261.937 112.078C261.57 112.678 261.109 113.235 260.552 113.748C260.01 114.246 259.344 114.656 258.553 114.978C257.762 115.286 256.802 115.439 255.674 115.439C254.209 115.439 252.862 115.139 251.631 114.539C250.416 113.938 249.441 113.103 248.709 112.034C247.977 110.95 247.61 109.705 247.61 108.298C247.61 107.068 247.83 105.969 248.27 105.002C248.724 104.036 249.405 103.215 250.313 102.542C251.221 101.868 252.378 101.355 253.785 101.003C255.191 100.652 256.846 100.476 258.75 100.476H261.937ZM282.635 109.727C283.323 109.727 283.909 109.602 284.393 109.353C284.891 109.089 285.264 108.723 285.513 108.254C285.777 107.771 285.901 107.192 285.887 106.519H292.852C292.867 108.306 292.427 109.873 291.534 111.221C290.655 112.554 289.454 113.594 287.93 114.341C286.421 115.073 284.715 115.439 282.811 115.439C280.95 115.439 279.324 115.139 277.933 114.539C276.541 113.923 275.376 113.074 274.439 111.99C273.516 110.891 272.82 109.609 272.352 108.145C271.897 106.68 271.67 105.09 271.67 103.376V102.871C271.67 101.157 271.897 99.5679 272.352 98.103C272.82 96.6235 273.516 95.3418 274.439 94.2578C275.376 93.1592 276.534 92.3096 277.911 91.709C279.302 91.0938 280.921 90.7861 282.767 90.7861C284.744 90.7861 286.487 91.1597 287.996 91.9067C289.52 92.6538 290.713 93.7378 291.578 95.1587C292.442 96.5796 292.867 98.3008 292.852 100.322H285.887C285.901 99.6045 285.792 98.96 285.557 98.3887C285.323 97.8174 284.957 97.3633 284.458 97.0264C283.975 96.6748 283.353 96.499 282.591 96.499C281.829 96.499 281.214 96.6675 280.745 97.0044C280.276 97.3413 279.917 97.8101 279.668 98.4106C279.434 98.9966 279.273 99.6704 279.185 100.432C279.112 101.194 279.075 102.007 279.075 102.871V103.376C279.075 104.255 279.112 105.083 279.185 105.859C279.273 106.621 279.441 107.295 279.69 107.881C279.939 108.452 280.298 108.906 280.767 109.243C281.236 109.565 281.858 109.727 282.635 109.727ZM303.487 81.228V115H296.082V81.228H303.487ZM318.692 91.2256L308.365 103.333L302.959 108.738L299.729 104.036L304.234 98.1689L309.815 91.2256H318.692ZM310.76 115L304.41 104.167L309.881 100.278L319.241 115H310.76Z" fill="#424241"/>
<path d="M1363 15C1363 6.71573 1356.28 0 1348 0H1134V167H1348C1356.28 167 1363 160.284 1363 152V15Z" fill="#026483"/>
<path fill-rule="evenodd" clip-rule="evenodd" d="M1218.5 55C1218.37 55 1218.24 55.0527 1218.15 55.1464C1218.05 55.2402 1218 55.3674 1218 55.5V111.5C1218 111.633 1218.05 111.76 1218.15 111.854C1218.24 111.947 1218.37 112 1218.5 112H1278C1278.13 112 1278.26 111.947 1278.35 111.854C1278.45 111.76 1278.5 111.633 1278.5 111.5V66C1278.5 65.8674 1278.45 65.7402 1278.35 65.6464C1278.26 65.5527 1278.13 65.5 1278 65.5H1248.25C1247.36 65.5 1246.52 65.1045 1245.95 64.4206L1238.09 55H1218.5ZM1213.9 50.9038C1215.12 49.6848 1216.78 49 1218.5 49H1239.5C1240.39 49 1241.23 49.3955 1241.8 50.0794L1249.66 59.5H1278C1279.72 59.5 1281.38 60.1848 1282.6 61.4038C1283.82 62.6228 1284.5 64.2761 1284.5 66V111.5C1284.5 113.224 1283.82 114.877 1282.6 116.096C1281.38 117.315 1279.72 118 1278 118H1218.5C1216.78 118 1215.12 117.315 1213.9 116.096C1212.68 114.877 1212 113.224 1212 111.5V55.5C1212 53.7761 1212.68 52.1228 1213.9 50.9038Z" fill="white"/>
<path fill-rule="evenodd" clip-rule="evenodd" d="M1243.72 77.5251C1245.09 78.892 1245.09 81.108 1243.72 82.4749L1237.45 88.75L1243.72 95.0251C1245.09 96.392 1245.09 98.608 1243.72 99.9749C1242.36 101.342 1240.14 101.342 1238.78 99.9749L1230.03 91.2249C1228.66 89.858 1228.66 87.642 1230.03 86.2751L1238.78 77.5251C1240.14 76.1583 1242.36 76.1583 1243.72 77.5251Z" fill="white"/>
<path fill-rule="evenodd" clip-rule="evenodd" d="M1252.03 99.9749C1250.66 98.608 1250.66 96.392 1252.03 95.0251L1258.3 88.75L1252.03 82.4749C1250.66 81.108 1250.66 78.892 1252.03 77.5251C1253.39 76.1583 1255.61 76.1583 1256.97 77.5251L1265.72 86.2751C1267.09 87.642 1267.09 89.858 1265.72 91.2249L1256.97 99.9749C1255.61 101.342 1253.39 101.342 1252.03 99.9749Z" fill="white"/>
<path d="M115.517 45.5455H120.068L124.875 57.2727H125.08L129.886 45.5455H134.438V63H130.858V51.6392H130.713L126.196 62.9148H123.759L119.241 51.5966H119.097V63H115.517V45.5455ZM137.41 63V49.9091H141.04V63H137.41ZM139.234 48.2216C138.694 48.2216 138.231 48.0426 137.844 47.6847C137.464 47.321 137.273 46.8864 137.273 46.3807C137.273 45.8807 137.464 45.4517 137.844 45.0938C138.231 44.7301 138.694 44.5483 139.234 44.5483C139.773 44.5483 140.234 44.7301 140.614 45.0938C141.001 45.4517 141.194 45.8807 141.194 46.3807C141.194 46.8864 141.001 47.321 140.614 47.6847C140.234 48.0426 139.773 48.2216 139.234 48.2216ZM147.58 55.4318V63H143.949V49.9091H147.409V52.2188H147.562C147.852 51.4574 148.338 50.8551 149.02 50.4119C149.702 49.9631 150.528 49.7386 151.5 49.7386C152.409 49.7386 153.202 49.9375 153.878 50.3352C154.554 50.733 155.08 51.3011 155.455 52.0398C155.83 52.7727 156.017 53.6477 156.017 54.6648V63H152.386V55.3125C152.392 54.5114 152.188 53.8864 151.773 53.4375C151.358 52.983 150.787 52.7557 150.06 52.7557C149.571 52.7557 149.139 52.8608 148.764 53.071C148.395 53.2812 148.105 53.5881 147.895 53.9915C147.69 54.3892 147.585 54.8693 147.58 55.4318ZM163.702 63.2131C162.708 63.2131 161.808 62.9574 161.001 62.446C160.2 61.929 159.563 61.1705 159.092 60.1705C158.626 59.1648 158.393 57.9318 158.393 56.4716C158.393 54.9716 158.634 53.7244 159.117 52.7301C159.6 51.7301 160.242 50.983 161.043 50.4886C161.85 49.9886 162.734 49.7386 163.694 49.7386C164.427 49.7386 165.038 49.8636 165.526 50.1136C166.021 50.358 166.418 50.6648 166.719 51.0341C167.026 51.3977 167.259 51.7557 167.418 52.108H167.529V45.5455H171.151V63H167.572V60.9034H167.418C167.248 61.267 167.006 61.6278 166.694 61.9858C166.387 62.3381 165.987 62.6307 165.492 62.8636C165.004 63.0966 164.407 63.2131 163.702 63.2131ZM164.853 60.3239C165.438 60.3239 165.933 60.1648 166.336 59.8466C166.745 59.5227 167.058 59.071 167.273 58.4915C167.495 57.9119 167.606 57.233 167.606 56.4545C167.606 55.6761 167.498 55 167.282 54.4261C167.066 53.8523 166.754 53.4091 166.344 53.0966C165.935 52.7841 165.438 52.6278 164.853 52.6278C164.256 52.6278 163.754 52.7898 163.344 53.1136C162.935 53.4375 162.626 53.8864 162.415 54.4602C162.205 55.0341 162.1 55.6989 162.1 56.4545C162.1 57.2159 162.205 57.8892 162.415 58.4744C162.631 59.054 162.941 59.5085 163.344 59.8381C163.754 60.1619 164.256 60.3239 164.853 60.3239ZM183.673 50.5653C183.605 49.8778 183.313 49.3437 182.795 48.9631C182.278 48.5824 181.577 48.392 180.69 48.392C180.088 48.392 179.58 48.4773 179.165 48.6477C178.75 48.8125 178.432 49.0426 178.21 49.3381C177.994 49.6335 177.886 49.9688 177.886 50.3438C177.875 50.6562 177.94 50.929 178.082 51.1619C178.23 51.3949 178.432 51.5966 178.688 51.767C178.943 51.9318 179.239 52.0767 179.574 52.2017C179.909 52.321 180.267 52.4233 180.648 52.5085L182.216 52.8835C182.977 53.054 183.676 53.2812 184.312 53.5653C184.949 53.8494 185.5 54.1989 185.966 54.6136C186.432 55.0284 186.793 55.517 187.048 56.0795C187.31 56.642 187.443 57.2869 187.449 58.0142C187.443 59.0824 187.17 60.0085 186.631 60.7926C186.097 61.571 185.324 62.1761 184.312 62.608C183.307 63.0341 182.094 63.2472 180.673 63.2472C179.264 63.2472 178.037 63.0312 176.991 62.5994C175.952 62.1676 175.139 61.5284 174.554 60.6818C173.974 59.8295 173.67 58.7756 173.642 57.5199H177.213C177.253 58.1051 177.42 58.5937 177.716 58.9858C178.017 59.3722 178.418 59.6648 178.918 59.8636C179.423 60.0568 179.994 60.1534 180.631 60.1534C181.256 60.1534 181.798 60.0625 182.259 59.8807C182.724 59.6989 183.085 59.446 183.341 59.1222C183.597 58.7983 183.724 58.4261 183.724 58.0057C183.724 57.6136 183.608 57.2841 183.375 57.017C183.148 56.75 182.813 56.5227 182.369 56.3352C181.932 56.1477 181.395 55.9773 180.759 55.8239L178.858 55.3466C177.386 54.9886 176.224 54.429 175.372 53.6676C174.52 52.9062 174.097 51.8807 174.102 50.5909C174.097 49.5341 174.378 48.6108 174.946 47.821C175.52 47.0312 176.307 46.4148 177.307 45.9716C178.307 45.5284 179.443 45.3068 180.716 45.3068C182.011 45.3068 183.142 45.5284 184.108 45.9716C185.08 46.4148 185.835 47.0312 186.375 47.821C186.915 48.6108 187.193 49.5256 187.21 50.5653H183.673ZM193.494 55.4318V63H189.863V45.5455H193.391V52.2188H193.545C193.84 51.446 194.317 50.8409 194.977 50.4034C195.636 49.9602 196.462 49.7386 197.457 49.7386C198.366 49.7386 199.158 49.9375 199.835 50.3352C200.516 50.7273 201.045 51.2926 201.42 52.0312C201.8 52.7642 201.988 53.642 201.982 54.6648V63H198.352V55.3125C198.357 54.5057 198.153 53.8778 197.738 53.429C197.329 52.9801 196.755 52.7557 196.016 52.7557C195.522 52.7557 195.085 52.8608 194.704 53.071C194.329 53.2812 194.033 53.5881 193.817 53.9915C193.607 54.3892 193.499 54.8693 193.494 55.4318ZM204.839 63V49.9091H208.47V63H204.839ZM206.663 48.2216C206.124 48.2216 205.661 48.0426 205.274 47.6847C204.893 47.321 204.703 46.8864 204.703 46.3807C204.703 45.8807 204.893 45.4517 205.274 45.0938C205.661 44.7301 206.124 44.5483 206.663 44.5483C207.203 44.5483 207.663 44.7301 208.044 45.0938C208.43 45.4517 208.624 45.8807 208.624 46.3807C208.624 46.8864 208.43 47.321 208.044 47.6847C207.663 48.0426 207.203 48.2216 206.663 48.2216ZM218.418 49.9091V52.6364H210.339V49.9091H218.418ZM212.188 63V48.9631C212.188 48.0142 212.373 47.2273 212.742 46.6023C213.117 45.9773 213.629 45.5085 214.276 45.196C214.924 44.8835 215.66 44.7273 216.484 44.7273C217.04 44.7273 217.549 44.7699 218.009 44.8551C218.475 44.9403 218.822 45.017 219.049 45.0852L218.401 47.8125C218.259 47.767 218.083 47.7244 217.873 47.6847C217.668 47.6449 217.458 47.625 217.242 47.625C216.708 47.625 216.336 47.75 216.126 48C215.915 48.2443 215.81 48.5881 215.81 49.0312V63H212.188ZM227.599 49.9091V52.6364H219.716V49.9091H227.599ZM221.506 46.7727H225.136V58.9773C225.136 59.3125 225.188 59.5739 225.29 59.7614C225.392 59.9432 225.534 60.071 225.716 60.1449C225.903 60.2187 226.119 60.2557 226.364 60.2557C226.534 60.2557 226.705 60.2415 226.875 60.2131C227.045 60.179 227.176 60.1534 227.267 60.1364L227.838 62.8381C227.656 62.8949 227.401 62.9602 227.071 63.0341C226.741 63.1136 226.341 63.1619 225.869 63.179C224.994 63.2131 224.227 63.0966 223.568 62.8295C222.915 62.5625 222.406 62.1477 222.043 61.5852C221.679 61.0227 221.5 60.3125 221.506 59.4545V46.7727Z" fill="#929292"/>
</svg>
