<svg width="1363" height="301" viewBox="0 0 1363 301" fill="none" xmlns="http://www.w3.org/2000/svg">
<path d="M1348 0H15C6.71573 0 0 6.71573 0 15V286C0 294.284 6.71573 301 15 301H1348C1356.28 301 1363 294.284 1363 286V15C1363 6.71573 1356.28 0 1348 0Z" fill="#F0F0F0"/>
<path d="M0 15C0 6.71573 6.71573 0 15 0H37V301H15C6.71573 301 0 294.284 0 286V15Z" fill="#00DD02"/>
<path d="M1257.67 181H105.333C97.9695 181 92 186.97 92 194.333V247.667C92 255.03 97.9695 261 105.333 261H1257.67C1265.03 261 1271 255.03 1271 247.667V194.333C1271 186.97 1265.03 181 1257.67 181Z" fill="#CCCCCC"/>
<path d="M310.666 196.333H112C109.422 196.333 107.333 198.422 107.333 201V241C107.333 243.577 109.422 245.666 112 245.666H310.666C313.244 245.666 315.333 243.577 315.333 241V201C315.333 198.422 313.244 196.333 310.666 196.333Z" fill="#888888" stroke="#888888" stroke-width="4"/>
<path d="M157.687 226.958L160.708 213.167H162.51L163.489 214.344L160.271 228.333H158.281L157.687 226.958ZM156.885 213.167L159.437 227.062L158.781 228.333H156.479L153.26 213.167H156.885ZM165.146 226.99L167.677 213.167H171.292L168.073 228.333H165.781L165.146 226.99ZM163.812 213.167L166.906 227.042L166.281 228.333H164.292L161 214.323L162.021 213.167H163.812ZM177.687 228.542C176.771 228.542 175.951 228.399 175.229 228.115C174.507 227.823 173.896 227.424 173.396 226.917C172.903 226.41 172.524 225.826 172.26 225.167C172.003 224.507 171.875 223.809 171.875 223.073V222.677C171.875 221.851 171.99 221.087 172.219 220.385C172.448 219.677 172.788 219.059 173.24 218.531C173.691 218.003 174.257 217.594 174.937 217.302C175.618 217.003 176.41 216.854 177.312 216.854C178.111 216.854 178.826 216.983 179.458 217.24C180.09 217.496 180.625 217.865 181.062 218.344C181.507 218.823 181.844 219.403 182.073 220.083C182.309 220.764 182.427 221.528 182.427 222.375V223.802H173.219V221.604H179V221.333C179.007 220.958 178.941 220.639 178.802 220.375C178.67 220.111 178.476 219.91 178.219 219.771C177.962 219.632 177.649 219.562 177.281 219.562C176.899 219.562 176.583 219.646 176.333 219.812C176.09 219.979 175.899 220.208 175.76 220.5C175.628 220.785 175.535 221.115 175.479 221.49C175.424 221.865 175.396 222.26 175.396 222.677V223.073C175.396 223.49 175.451 223.868 175.562 224.208C175.68 224.549 175.847 224.84 176.062 225.083C176.285 225.319 176.549 225.503 176.854 225.635C177.167 225.767 177.521 225.833 177.917 225.833C178.396 225.833 178.868 225.743 179.333 225.562C179.799 225.382 180.198 225.083 180.531 224.667L182.125 226.562C181.896 226.889 181.569 227.205 181.146 227.51C180.729 227.816 180.229 228.066 179.646 228.26C179.062 228.448 178.41 228.542 177.687 228.542ZM183.885 212.333H187.396V225.562L187.031 228.333H183.885V212.333ZM194.312 222.573V222.792C194.312 223.646 194.226 224.424 194.052 225.125C193.878 225.826 193.611 226.434 193.25 226.948C192.889 227.455 192.434 227.847 191.885 228.125C191.337 228.403 190.687 228.542 189.937 228.542C189.257 228.542 188.674 228.396 188.187 228.104C187.701 227.805 187.295 227.396 186.969 226.875C186.642 226.347 186.378 225.74 186.177 225.052C185.976 224.358 185.816 223.615 185.698 222.823V222.562C185.816 221.778 185.976 221.042 186.177 220.354C186.378 219.66 186.642 219.052 186.969 218.531C187.295 218.003 187.698 217.594 188.177 217.302C188.663 217.003 189.243 216.854 189.917 216.854C190.674 216.854 191.326 216.996 191.875 217.281C192.43 217.566 192.889 217.965 193.25 218.479C193.611 218.993 193.878 219.597 194.052 220.292C194.226 220.986 194.312 221.746 194.312 222.573ZM190.802 222.792V222.573C190.802 222.163 190.778 221.778 190.729 221.417C190.68 221.055 190.594 220.736 190.469 220.458C190.344 220.18 190.167 219.962 189.937 219.802C189.708 219.642 189.41 219.562 189.042 219.562C188.667 219.562 188.351 219.625 188.094 219.75C187.844 219.875 187.642 220.055 187.49 220.292C187.344 220.521 187.24 220.805 187.177 221.146C187.115 221.479 187.087 221.858 187.094 222.281V223.104C187.08 223.68 187.132 224.174 187.25 224.583C187.368 224.993 187.573 225.305 187.865 225.521C188.156 225.736 188.555 225.844 189.062 225.844C189.437 225.844 189.74 225.771 189.969 225.625C190.205 225.479 190.382 225.271 190.5 225C190.618 224.729 190.698 224.406 190.74 224.031C190.781 223.656 190.802 223.243 190.802 222.792ZM207.406 223.187H203.635V220.365H207.406C207.92 220.365 208.337 220.278 208.656 220.104C208.976 219.93 209.208 219.691 209.354 219.385C209.507 219.073 209.583 218.722 209.583 218.333C209.583 217.917 209.507 217.531 209.354 217.177C209.208 216.823 208.976 216.538 208.656 216.323C208.337 216.101 207.92 215.99 207.406 215.99H205.01V228.333H201.354V213.167H207.406C208.621 213.167 209.667 213.389 210.542 213.833C211.424 214.278 212.101 214.889 212.573 215.667C213.045 216.437 213.281 217.319 213.281 218.312C213.281 219.292 213.045 220.146 212.573 220.875C212.101 221.604 211.424 222.174 210.542 222.583C209.667 222.986 208.621 223.187 207.406 223.187ZM218.625 219.854V228.333H215.114V217.062H218.396L218.625 219.854ZM221.958 216.979L221.896 220.24C221.757 220.226 221.569 220.208 221.333 220.187C221.097 220.167 220.899 220.156 220.739 220.156C220.33 220.156 219.976 220.205 219.677 220.302C219.385 220.392 219.142 220.531 218.948 220.719C218.76 220.899 218.621 221.128 218.531 221.406C218.448 221.684 218.41 222.007 218.417 222.375L217.781 221.958C217.781 221.201 217.854 220.514 218 219.896C218.153 219.271 218.368 218.733 218.646 218.281C218.924 217.823 219.26 217.472 219.656 217.229C220.052 216.979 220.496 216.854 220.989 216.854C221.163 216.854 221.333 216.865 221.5 216.885C221.674 216.906 221.826 216.937 221.958 216.979ZM222.354 222.812V222.594C222.354 221.767 222.472 221.007 222.708 220.312C222.944 219.611 223.292 219.003 223.75 218.49C224.208 217.976 224.774 217.576 225.448 217.292C226.121 217 226.899 216.854 227.781 216.854C228.67 216.854 229.451 217 230.125 217.292C230.805 217.576 231.375 217.976 231.833 218.49C232.292 219.003 232.639 219.611 232.875 220.312C233.111 221.007 233.229 221.767 233.229 222.594V222.812C233.229 223.632 233.111 224.392 232.875 225.094C232.639 225.788 232.292 226.396 231.833 226.917C231.375 227.43 230.809 227.83 230.135 228.115C229.462 228.399 228.684 228.542 227.802 228.542C226.92 228.542 226.139 228.399 225.458 228.115C224.778 227.83 224.208 227.43 223.75 226.917C223.292 226.396 222.944 225.788 222.708 225.094C222.472 224.392 222.354 223.632 222.354 222.812ZM225.865 222.594V222.812C225.865 223.236 225.896 223.632 225.958 224C226.021 224.368 226.125 224.691 226.271 224.969C226.417 225.24 226.615 225.451 226.865 225.604C227.115 225.757 227.427 225.833 227.802 225.833C228.17 225.833 228.476 225.757 228.719 225.604C228.969 225.451 229.167 225.24 229.312 224.969C229.458 224.691 229.562 224.368 229.625 224C229.687 223.632 229.719 223.236 229.719 222.812V222.594C229.719 222.184 229.687 221.799 229.625 221.437C229.562 221.069 229.458 220.746 229.312 220.469C229.167 220.184 228.969 219.962 228.719 219.802C228.469 219.642 228.156 219.562 227.781 219.562C227.413 219.562 227.104 219.642 226.854 219.802C226.611 219.962 226.417 220.184 226.271 220.469C226.125 220.746 226.021 221.069 225.958 221.437C225.896 221.799 225.865 222.184 225.865 222.594ZM235.052 217.062H238.573V228.698C238.573 229.601 238.399 230.361 238.052 230.979C237.705 231.604 237.208 232.076 236.562 232.396C235.917 232.722 235.146 232.885 234.25 232.885C233.951 232.885 233.677 232.871 233.427 232.844C233.17 232.823 232.889 232.778 232.583 232.708V230.052C232.764 230.08 232.93 230.101 233.083 230.115C233.236 230.135 233.403 230.146 233.583 230.146C233.903 230.146 234.17 230.094 234.385 229.99C234.601 229.885 234.764 229.726 234.875 229.51C234.993 229.295 235.052 229.024 235.052 228.698V217.062ZM234.792 214.156C234.792 213.656 234.972 213.246 235.333 212.927C235.694 212.608 236.163 212.448 236.74 212.448C237.316 212.448 237.785 212.608 238.146 212.927C238.507 213.246 238.687 213.656 238.687 214.156C238.687 214.656 238.507 215.066 238.146 215.385C237.785 215.705 237.316 215.865 236.74 215.865C236.163 215.865 235.694 215.705 235.333 215.385C234.972 215.066 234.792 214.656 234.792 214.156ZM246.021 228.542C245.104 228.542 244.285 228.399 243.562 228.115C242.84 227.823 242.229 227.424 241.729 226.917C241.236 226.41 240.858 225.826 240.594 225.167C240.337 224.507 240.208 223.809 240.208 223.073V222.677C240.208 221.851 240.323 221.087 240.552 220.385C240.781 219.677 241.121 219.059 241.573 218.531C242.024 218.003 242.59 217.594 243.271 217.302C243.951 217.003 244.743 216.854 245.646 216.854C246.444 216.854 247.16 216.983 247.792 217.24C248.424 217.496 248.958 217.865 249.396 218.344C249.84 218.823 250.177 219.403 250.406 220.083C250.642 220.764 250.76 221.528 250.76 222.375V223.802H241.552V221.604H247.333V221.333C247.34 220.958 247.274 220.639 247.135 220.375C247.003 220.111 246.809 219.91 246.552 219.771C246.295 219.632 245.983 219.562 245.615 219.562C245.233 219.562 244.917 219.646 244.667 219.812C244.424 219.979 244.233 220.208 244.094 220.5C243.962 220.785 243.868 221.115 243.812 221.49C243.757 221.865 243.729 222.26 243.729 222.677V223.073C243.729 223.49 243.785 223.868 243.896 224.208C244.014 224.549 244.18 224.84 244.396 225.083C244.618 225.319 244.882 225.503 245.187 225.635C245.5 225.767 245.854 225.833 246.25 225.833C246.729 225.833 247.201 225.743 247.667 225.562C248.132 225.382 248.531 225.083 248.865 224.667L250.458 226.562C250.229 226.889 249.903 227.205 249.479 227.51C249.062 227.816 248.562 228.066 247.979 228.26C247.396 228.448 246.743 228.542 246.021 228.542ZM256.948 225.833C257.274 225.833 257.552 225.774 257.781 225.656C258.017 225.531 258.194 225.358 258.312 225.135C258.437 224.906 258.496 224.632 258.49 224.312H261.792C261.799 225.16 261.59 225.903 261.167 226.542C260.75 227.174 260.18 227.667 259.458 228.021C258.743 228.368 257.934 228.542 257.031 228.542C256.149 228.542 255.378 228.399 254.719 228.115C254.059 227.823 253.507 227.42 253.062 226.906C252.625 226.385 252.295 225.778 252.073 225.083C251.858 224.389 251.75 223.635 251.75 222.823V222.583C251.75 221.771 251.858 221.017 252.073 220.323C252.295 219.621 252.625 219.014 253.062 218.5C253.507 217.979 254.055 217.576 254.708 217.292C255.368 217 256.135 216.854 257.01 216.854C257.948 216.854 258.774 217.031 259.49 217.385C260.212 217.74 260.778 218.253 261.187 218.927C261.597 219.601 261.799 220.417 261.792 221.375H258.49C258.496 221.035 258.444 220.729 258.333 220.458C258.222 220.187 258.049 219.972 257.812 219.812C257.583 219.646 257.288 219.562 256.927 219.562C256.566 219.562 256.274 219.642 256.052 219.802C255.83 219.962 255.66 220.184 255.542 220.469C255.43 220.746 255.354 221.066 255.312 221.427C255.278 221.788 255.26 222.174 255.26 222.583V222.823C255.26 223.24 255.278 223.632 255.312 224C255.354 224.361 255.434 224.68 255.552 224.958C255.67 225.229 255.84 225.444 256.062 225.604C256.285 225.757 256.58 225.833 256.948 225.833ZM269.229 217.062V219.5H262.437V217.062H269.229ZM263.865 214.26H267.375V224.656C267.375 224.955 267.41 225.187 267.479 225.354C267.549 225.514 267.667 225.628 267.833 225.698C268.007 225.76 268.236 225.792 268.521 225.792C268.722 225.792 268.889 225.788 269.021 225.781C269.153 225.767 269.278 225.75 269.396 225.729V228.24C269.097 228.337 268.785 228.41 268.458 228.458C268.132 228.514 267.785 228.542 267.417 228.542C266.667 228.542 266.024 228.424 265.49 228.187C264.962 227.951 264.559 227.58 264.281 227.073C264.003 226.566 263.865 225.906 263.865 225.094V214.26Z" fill="white"/>
<path d="M542.666 196.333H344C341.422 196.333 339.333 198.422 339.333 201V241C339.333 243.577 341.422 245.666 344 245.666H542.666C545.244 245.666 547.333 243.577 547.333 241V201C547.333 198.422 545.244 196.333 542.666 196.333Z" fill="#888888" stroke="#888888" stroke-width="4"/>
<path d="M404.156 213.167H410.125C411.292 213.167 412.305 213.34 413.167 213.687C414.028 214.035 414.691 214.549 415.156 215.229C415.628 215.91 415.864 216.75 415.864 217.75C415.864 218.618 415.729 219.344 415.458 219.927C415.187 220.51 414.809 220.993 414.323 221.375C413.844 221.75 413.285 222.059 412.646 222.302L411.448 222.979H406.437L406.417 220.156H410.125C410.59 220.156 410.976 220.073 411.281 219.906C411.587 219.74 411.816 219.503 411.969 219.198C412.128 218.885 412.208 218.514 412.208 218.083C412.208 217.646 412.128 217.271 411.969 216.958C411.809 216.646 411.573 216.406 411.26 216.24C410.955 216.073 410.576 215.99 410.125 215.99H407.812V228.333H404.156V213.167ZM412.458 228.333L409.104 221.625L412.979 221.604L416.375 228.177V228.333H412.458ZM423.364 228.542C422.448 228.542 421.628 228.399 420.906 228.115C420.184 227.823 419.573 227.424 419.073 226.917C418.58 226.41 418.201 225.826 417.937 225.167C417.68 224.507 417.552 223.809 417.552 223.073V222.677C417.552 221.851 417.667 221.087 417.896 220.385C418.125 219.677 418.465 219.059 418.917 218.531C419.368 218.003 419.934 217.594 420.614 217.302C421.295 217.003 422.087 216.854 422.989 216.854C423.788 216.854 424.503 216.983 425.135 217.24C425.767 217.496 426.302 217.865 426.739 218.344C427.184 218.823 427.521 219.403 427.75 220.083C427.986 220.764 428.104 221.528 428.104 222.375V223.802H418.896V221.604H424.677V221.333C424.684 220.958 424.618 220.639 424.479 220.375C424.347 220.111 424.153 219.91 423.896 219.771C423.639 219.632 423.326 219.562 422.958 219.562C422.576 219.562 422.26 219.646 422.01 219.812C421.767 219.979 421.576 220.208 421.437 220.5C421.305 220.785 421.212 221.115 421.156 221.49C421.101 221.865 421.073 222.26 421.073 222.677V223.073C421.073 223.49 421.128 223.868 421.239 224.208C421.358 224.549 421.524 224.84 421.739 225.083C421.962 225.319 422.226 225.503 422.531 225.635C422.844 225.767 423.198 225.833 423.594 225.833C424.073 225.833 424.545 225.743 425.01 225.562C425.476 225.382 425.875 225.083 426.208 224.667L427.802 226.562C427.573 226.889 427.246 227.205 426.823 227.51C426.406 227.816 425.906 228.066 425.323 228.26C424.739 228.448 424.087 228.542 423.364 228.542ZM435.385 225.5V220.854C435.385 220.535 435.34 220.26 435.25 220.031C435.16 219.802 435.017 219.625 434.823 219.5C434.628 219.368 434.368 219.302 434.042 219.302C433.778 219.302 433.552 219.347 433.364 219.437C433.177 219.528 433.035 219.663 432.937 219.844C432.84 220.024 432.792 220.253 432.792 220.531H429.281C429.281 220.01 429.396 219.528 429.625 219.083C429.861 218.632 430.194 218.24 430.625 217.906C431.062 217.573 431.583 217.316 432.187 217.135C432.799 216.948 433.479 216.854 434.229 216.854C435.125 216.854 435.924 217.003 436.625 217.302C437.333 217.601 437.892 218.049 438.302 218.646C438.712 219.236 438.917 219.979 438.917 220.875V225.49C438.917 226.226 438.958 226.785 439.042 227.167C439.125 227.542 439.243 227.871 439.396 228.156V228.333H435.875C435.708 227.986 435.583 227.562 435.5 227.062C435.424 226.555 435.385 226.035 435.385 225.5ZM435.812 221.448L435.833 223.323H434.281C433.955 223.323 433.677 223.368 433.448 223.458C433.226 223.549 433.045 223.674 432.906 223.833C432.774 223.986 432.677 224.16 432.614 224.354C432.559 224.549 432.531 224.753 432.531 224.969C432.531 225.177 432.58 225.365 432.677 225.531C432.781 225.691 432.92 225.816 433.094 225.906C433.267 225.996 433.462 226.042 433.677 226.042C434.066 226.042 434.396 225.969 434.667 225.823C434.944 225.67 435.156 225.486 435.302 225.271C435.448 225.055 435.521 224.854 435.521 224.667L436.292 226.104C436.153 226.382 435.993 226.663 435.812 226.948C435.639 227.233 435.42 227.496 435.156 227.74C434.899 227.976 434.583 228.17 434.208 228.323C433.833 228.469 433.378 228.542 432.844 228.542C432.149 228.542 431.51 228.399 430.927 228.115C430.351 227.83 429.889 227.434 429.542 226.927C429.194 226.413 429.021 225.823 429.021 225.156C429.021 224.573 429.125 224.052 429.333 223.594C429.549 223.135 429.871 222.746 430.302 222.427C430.733 222.108 431.281 221.865 431.948 221.698C432.614 221.531 433.399 221.448 434.302 221.448H435.812ZM445.625 225.833C445.951 225.833 446.229 225.774 446.458 225.656C446.694 225.531 446.871 225.358 446.989 225.135C447.114 224.906 447.174 224.632 447.167 224.312H450.469C450.476 225.16 450.267 225.903 449.844 226.542C449.427 227.174 448.858 227.667 448.135 228.021C447.42 228.368 446.611 228.542 445.708 228.542C444.826 228.542 444.055 228.399 443.396 228.115C442.736 227.823 442.184 227.42 441.739 226.906C441.302 226.385 440.972 225.778 440.75 225.083C440.535 224.389 440.427 223.635 440.427 222.823V222.583C440.427 221.771 440.535 221.017 440.75 220.323C440.972 219.621 441.302 219.014 441.739 218.5C442.184 217.979 442.733 217.576 443.385 217.292C444.045 217 444.812 216.854 445.687 216.854C446.625 216.854 447.451 217.031 448.167 217.385C448.889 217.74 449.455 218.253 449.864 218.927C450.274 219.601 450.476 220.417 450.469 221.375H447.167C447.174 221.035 447.121 220.729 447.01 220.458C446.899 220.187 446.726 219.972 446.489 219.812C446.26 219.646 445.965 219.562 445.604 219.562C445.243 219.562 444.951 219.642 444.729 219.802C444.507 219.962 444.337 220.184 444.219 220.469C444.108 220.746 444.031 221.066 443.989 221.427C443.955 221.788 443.937 222.174 443.937 222.583V222.823C443.937 223.24 443.955 223.632 443.989 224C444.031 224.361 444.111 224.68 444.229 224.958C444.347 225.229 444.517 225.444 444.739 225.604C444.962 225.757 445.257 225.833 445.625 225.833ZM457.906 217.062V219.5H451.114V217.062H457.906ZM452.542 214.26H456.052V224.656C456.052 224.955 456.087 225.187 456.156 225.354C456.226 225.514 456.344 225.628 456.51 225.698C456.684 225.76 456.913 225.792 457.198 225.792C457.399 225.792 457.566 225.788 457.698 225.781C457.83 225.767 457.955 225.75 458.073 225.729V228.24C457.774 228.337 457.462 228.41 457.135 228.458C456.809 228.514 456.462 228.542 456.094 228.542C455.344 228.542 454.701 228.424 454.167 228.187C453.639 227.951 453.236 227.58 452.958 227.073C452.68 226.566 452.542 225.906 452.542 225.094V214.26ZM465.5 223.573V213.167H469.146V223.573C469.146 224.587 468.913 225.465 468.448 226.208C467.989 226.951 467.364 227.528 466.573 227.937C465.788 228.34 464.906 228.542 463.927 228.542C462.913 228.542 462.01 228.371 461.219 228.031C460.434 227.691 459.816 227.167 459.364 226.458C458.92 225.75 458.698 224.847 458.698 223.75H462.364C462.364 224.264 462.424 224.667 462.542 224.958C462.66 225.243 462.833 225.444 463.062 225.562C463.299 225.674 463.587 225.729 463.927 225.729C464.26 225.729 464.542 225.646 464.771 225.479C465.007 225.305 465.187 225.059 465.312 224.74C465.437 224.413 465.5 224.024 465.5 223.573ZM479.281 224.302C479.281 224.066 479.246 223.854 479.177 223.667C479.108 223.472 478.979 223.292 478.792 223.125C478.604 222.958 478.333 222.792 477.979 222.625C477.632 222.451 477.174 222.271 476.604 222.083C475.937 221.861 475.295 221.611 474.677 221.333C474.059 221.049 473.507 220.719 473.021 220.344C472.535 219.962 472.149 219.517 471.864 219.01C471.58 218.496 471.437 217.899 471.437 217.219C471.437 216.566 471.583 215.979 471.875 215.458C472.167 214.93 472.573 214.483 473.094 214.115C473.621 213.74 474.239 213.455 474.948 213.26C475.656 213.059 476.43 212.958 477.271 212.958C478.382 212.958 479.361 213.153 480.208 213.542C481.062 213.924 481.729 214.469 482.208 215.177C482.694 215.878 482.937 216.708 482.937 217.667H479.302C479.302 217.285 479.222 216.948 479.062 216.656C478.91 216.365 478.677 216.135 478.364 215.969C478.052 215.802 477.66 215.719 477.187 215.719C476.729 215.719 476.344 215.788 476.031 215.927C475.719 216.066 475.483 216.253 475.323 216.49C475.163 216.719 475.083 216.972 475.083 217.25C475.083 217.479 475.146 217.687 475.271 217.875C475.403 218.055 475.587 218.226 475.823 218.385C476.066 218.545 476.358 218.698 476.698 218.844C477.045 218.99 477.434 219.132 477.864 219.271C478.67 219.528 479.385 219.816 480.01 220.135C480.642 220.448 481.174 220.805 481.604 221.208C482.042 221.604 482.371 222.055 482.594 222.562C482.823 223.069 482.937 223.642 482.937 224.281C482.937 224.962 482.805 225.566 482.542 226.094C482.278 226.621 481.899 227.069 481.406 227.437C480.913 227.799 480.323 228.073 479.635 228.26C478.948 228.448 478.18 228.542 477.333 228.542C476.555 228.542 475.788 228.444 475.031 228.25C474.281 228.049 473.601 227.743 472.989 227.333C472.378 226.917 471.889 226.385 471.521 225.74C471.16 225.087 470.979 224.312 470.979 223.417H474.646C474.646 223.861 474.705 224.236 474.823 224.542C474.941 224.847 475.114 225.094 475.344 225.281C475.573 225.462 475.854 225.594 476.187 225.677C476.521 225.753 476.903 225.792 477.333 225.792C477.799 225.792 478.174 225.726 478.458 225.594C478.743 225.455 478.951 225.274 479.083 225.052C479.215 224.823 479.281 224.573 479.281 224.302Z" fill="white"/>
<path d="M774.666 196.333H576C573.422 196.333 571.333 198.422 571.333 201V241C571.333 243.577 573.422 245.666 576 245.666H774.666C777.244 245.666 779.333 243.577 779.333 241V201C779.333 198.422 777.244 196.333 774.666 196.333Z" fill="#888888" stroke="#888888" stroke-width="4"/>
<path d="M1006.67 196.333H808C805.422 196.333 803.333 198.422 803.333 201V241C803.333 243.577 805.422 245.666 808 245.666H1006.67C1009.24 245.666 1011.33 243.577 1011.33 241V201C1011.33 198.422 1009.24 196.333 1006.67 196.333Z" fill="#888888" stroke="#888888" stroke-width="4"/>
<path d="M882.375 213.167V228.333H878.719V213.167H882.375ZM888.271 219.479V222.292H881.333V219.479H888.271ZM888.865 213.167V215.99H881.333V213.167H888.865ZM893.927 217.062V228.333H890.406V217.062H893.927ZM890.198 214.156C890.198 213.656 890.379 213.246 890.74 212.927C891.101 212.608 891.57 212.448 892.146 212.448C892.722 212.448 893.191 212.608 893.552 212.927C893.913 213.246 894.094 213.656 894.094 214.156C894.094 214.656 893.913 215.066 893.552 215.385C893.191 215.705 892.722 215.865 892.146 215.865C891.57 215.865 891.101 215.705 890.74 215.385C890.379 215.066 890.198 214.656 890.198 214.156ZM903.177 217.062H906.365V227.896C906.365 228.937 906.125 229.819 905.646 230.542C905.167 231.271 904.497 231.823 903.636 232.198C902.781 232.58 901.781 232.771 900.636 232.771C900.129 232.771 899.611 232.705 899.083 232.573C898.556 232.448 898.063 232.26 897.604 232.01C897.146 231.76 896.761 231.451 896.448 231.083L897.917 229.021C898.202 229.34 898.559 229.611 898.99 229.833C899.42 230.062 899.927 230.177 900.511 230.177C901.018 230.177 901.441 230.087 901.781 229.906C902.129 229.726 902.393 229.462 902.573 229.115C902.754 228.774 902.844 228.361 902.844 227.875V219.729L903.177 217.062ZM895.688 222.833V222.615C895.688 221.76 895.792 220.983 896 220.281C896.215 219.573 896.521 218.965 896.917 218.458C897.32 217.944 897.806 217.549 898.375 217.271C898.945 216.993 899.587 216.854 900.302 216.854C901.073 216.854 901.705 217.003 902.198 217.302C902.698 217.594 903.097 218.003 903.396 218.531C903.702 219.059 903.938 219.677 904.104 220.385C904.278 221.087 904.424 221.844 904.542 222.656V222.917C904.424 223.68 904.261 224.403 904.052 225.083C903.851 225.757 903.587 226.354 903.261 226.875C902.934 227.396 902.524 227.805 902.031 228.104C901.545 228.396 900.962 228.542 900.281 228.542C899.573 228.542 898.934 228.399 898.365 228.115C897.802 227.83 897.32 227.43 896.917 226.917C896.521 226.403 896.215 225.799 896 225.104C895.792 224.41 895.688 223.653 895.688 222.833ZM899.198 222.615V222.833C899.198 223.257 899.236 223.649 899.313 224.01C899.396 224.371 899.521 224.691 899.688 224.969C899.854 225.24 900.059 225.451 900.302 225.604C900.552 225.757 900.844 225.833 901.177 225.833C901.684 225.833 902.094 225.726 902.406 225.51C902.719 225.295 902.945 224.99 903.083 224.594C903.222 224.198 903.281 223.733 903.261 223.198V222.375C903.274 221.917 903.243 221.514 903.167 221.167C903.09 220.812 902.969 220.517 902.802 220.281C902.643 220.045 902.427 219.868 902.156 219.75C901.893 219.625 901.573 219.562 901.198 219.562C900.872 219.562 900.583 219.639 900.333 219.792C900.083 219.944 899.875 220.16 899.708 220.437C899.542 220.708 899.413 221.031 899.323 221.406C899.24 221.774 899.198 222.177 899.198 222.615ZM911.927 219.448V228.333H908.417V217.062H911.708L911.927 219.448ZM911.5 222.312L910.698 222.333C910.698 221.542 910.792 220.812 910.979 220.146C911.167 219.479 911.445 218.899 911.813 218.406C912.181 217.913 912.632 217.531 913.167 217.26C913.708 216.99 914.333 216.854 915.042 216.854C915.535 216.854 915.983 216.93 916.386 217.083C916.788 217.229 917.136 217.462 917.427 217.781C917.719 218.094 917.941 218.503 918.094 219.01C918.254 219.51 918.333 220.111 918.333 220.812V228.333H914.823V221.26C914.823 220.781 914.768 220.42 914.656 220.177C914.552 219.934 914.399 219.771 914.198 219.687C913.997 219.604 913.75 219.562 913.458 219.562C913.153 219.562 912.879 219.632 912.636 219.771C912.393 219.91 912.184 220.104 912.011 220.354C911.844 220.597 911.715 220.885 911.625 221.219C911.542 221.552 911.5 221.917 911.5 222.312ZM917.938 222.312L916.958 222.333C916.958 221.542 917.045 220.812 917.219 220.146C917.399 219.479 917.667 218.899 918.021 218.406C918.382 217.913 918.83 217.531 919.365 217.26C919.899 216.99 920.521 216.854 921.229 216.854C921.743 216.854 922.215 216.93 922.646 217.083C923.077 217.236 923.448 217.483 923.761 217.823C924.073 218.163 924.316 218.615 924.49 219.177C924.663 219.733 924.75 220.42 924.75 221.24V228.333H921.229V221.24C921.229 220.774 921.174 220.424 921.063 220.187C920.958 219.944 920.806 219.781 920.604 219.698C920.403 219.608 920.163 219.562 919.886 219.562C919.552 219.562 919.264 219.632 919.021 219.771C918.778 219.91 918.573 220.104 918.406 220.354C918.247 220.597 918.129 220.885 918.052 221.219C917.976 221.552 917.938 221.917 917.938 222.312ZM932.615 225.5V220.854C932.615 220.535 932.57 220.26 932.479 220.031C932.389 219.802 932.247 219.625 932.052 219.5C931.858 219.368 931.597 219.302 931.271 219.302C931.007 219.302 930.781 219.347 930.594 219.437C930.406 219.528 930.264 219.663 930.167 219.844C930.07 220.024 930.021 220.253 930.021 220.531H926.511C926.511 220.01 926.625 219.528 926.854 219.083C927.09 218.632 927.424 218.24 927.854 217.906C928.292 217.573 928.813 217.316 929.417 217.135C930.028 216.948 930.708 216.854 931.458 216.854C932.354 216.854 933.153 217.003 933.854 217.302C934.563 217.601 935.122 218.049 935.531 218.646C935.941 219.236 936.146 219.979 936.146 220.875V225.49C936.146 226.226 936.188 226.785 936.271 227.167C936.354 227.542 936.472 227.871 936.625 228.156V228.333H933.104C932.938 227.986 932.813 227.562 932.729 227.062C932.653 226.555 932.615 226.035 932.615 225.5ZM933.042 221.448L933.063 223.323H931.511C931.184 223.323 930.906 223.368 930.677 223.458C930.455 223.549 930.274 223.674 930.136 223.833C930.004 223.986 929.906 224.16 929.844 224.354C929.788 224.549 929.761 224.753 929.761 224.969C929.761 225.177 929.809 225.365 929.906 225.531C930.011 225.691 930.149 225.816 930.323 225.906C930.497 225.996 930.691 226.042 930.906 226.042C931.295 226.042 931.625 225.969 931.896 225.823C932.174 225.67 932.386 225.486 932.531 225.271C932.677 225.055 932.75 224.854 932.75 224.667L933.521 226.104C933.382 226.382 933.222 226.663 933.042 226.948C932.868 227.233 932.649 227.496 932.386 227.74C932.129 227.976 931.813 228.17 931.438 228.323C931.063 228.469 930.608 228.542 930.073 228.542C929.379 228.542 928.74 228.399 928.156 228.115C927.58 227.83 927.118 227.434 926.771 226.927C926.424 226.413 926.25 225.823 926.25 225.156C926.25 224.573 926.354 224.052 926.563 223.594C926.778 223.135 927.101 222.746 927.531 222.427C927.962 222.108 928.511 221.865 929.177 221.698C929.844 221.531 930.629 221.448 931.531 221.448H933.042Z" fill="white"/>
<path d="M98.2273 47.7273L103.852 65.4091H104.068L109.705 47.7273H115.159L107.136 71H100.795L92.7614 47.7273H98.2273ZM122.71 47.7273V71H117.869V47.7273H122.71ZM131.565 71.3295C130.452 71.3295 129.459 71.1364 128.588 70.75C127.717 70.3561 127.027 69.7765 126.52 69.0114C126.02 68.2386 125.77 67.2765 125.77 66.125C125.77 65.1553 125.948 64.3409 126.304 63.6818C126.66 63.0227 127.145 62.4924 127.759 62.0909C128.372 61.6894 129.069 61.3864 129.849 61.1818C130.637 60.9773 131.463 60.8333 132.327 60.75C133.342 60.6439 134.16 60.5455 134.781 60.4545C135.402 60.3561 135.853 60.2121 136.134 60.0227C136.414 59.8333 136.554 59.553 136.554 59.1818V59.1136C136.554 58.3939 136.327 57.8371 135.872 57.4432C135.425 57.0492 134.789 56.8523 133.963 56.8523C133.092 56.8523 132.399 57.0455 131.884 57.4318C131.368 57.8106 131.027 58.2879 130.861 58.8636L126.384 58.5C126.611 57.4394 127.058 56.5227 127.724 55.75C128.391 54.9697 129.251 54.3712 130.304 53.9545C131.365 53.5303 132.592 53.3182 133.986 53.3182C134.955 53.3182 135.884 53.4318 136.77 53.6591C137.664 53.8864 138.455 54.2386 139.145 54.7159C139.842 55.1932 140.391 55.8068 140.793 56.5568C141.194 57.2992 141.395 58.1894 141.395 59.2273V71H136.804V68.5795H136.668C136.387 69.125 136.012 69.6061 135.543 70.0227C135.073 70.4318 134.509 70.7538 133.849 70.9886C133.19 71.2159 132.429 71.3295 131.565 71.3295ZM132.952 67.9886C133.664 67.9886 134.293 67.8485 134.838 67.5682C135.384 67.2803 135.812 66.8939 136.122 66.4091C136.433 65.9242 136.588 65.375 136.588 64.7614V62.9091C136.437 63.0076 136.228 63.0985 135.963 63.1818C135.705 63.2576 135.414 63.3295 135.088 63.3977C134.762 63.4583 134.437 63.5152 134.111 63.5682C133.785 63.6136 133.49 63.6553 133.224 63.6932C132.656 63.7765 132.16 63.9091 131.736 64.0909C131.312 64.2727 130.982 64.5189 130.747 64.8295C130.512 65.1326 130.395 65.5114 130.395 65.9659C130.395 66.625 130.634 67.1288 131.111 67.4773C131.596 67.8182 132.209 67.9886 132.952 67.9886ZM151.582 71.2841C150.257 71.2841 149.056 70.9432 147.98 70.2614C146.912 69.572 146.063 68.5606 145.435 67.2273C144.813 65.8864 144.503 64.2424 144.503 62.2955C144.503 60.2955 144.825 58.6326 145.469 57.3068C146.113 55.9735 146.969 54.9773 148.037 54.3182C149.113 53.6515 150.291 53.3182 151.571 53.3182C152.548 53.3182 153.363 53.4848 154.014 53.8182C154.673 54.1439 155.204 54.553 155.605 55.0455C156.014 55.5303 156.325 56.0076 156.537 56.4773H156.685V47.7273H161.514V71H156.741V68.2045H156.537C156.31 68.6894 155.988 69.1705 155.571 69.6477C155.162 70.1174 154.628 70.5076 153.969 70.8182C153.317 71.1288 152.522 71.2841 151.582 71.2841ZM153.116 67.4318C153.897 67.4318 154.556 67.2197 155.094 66.7955C155.639 66.3636 156.056 65.7614 156.344 64.9886C156.639 64.2159 156.787 63.3106 156.787 62.2727C156.787 61.2348 156.643 60.3333 156.355 59.5682C156.067 58.803 155.651 58.2121 155.105 57.7955C154.56 57.3788 153.897 57.1705 153.116 57.1705C152.321 57.1705 151.651 57.3864 151.105 57.8182C150.56 58.25 150.147 58.8485 149.866 59.6136C149.586 60.3788 149.446 61.2652 149.446 62.2727C149.446 63.2879 149.586 64.1856 149.866 64.9659C150.154 65.7386 150.567 66.3447 151.105 66.7841C151.651 67.2159 152.321 67.4318 153.116 67.4318ZM165.494 71V53.5455H170.335V71H165.494ZM167.926 51.2955C167.206 51.2955 166.589 51.0568 166.074 50.5795C165.566 50.0947 165.312 49.5152 165.312 48.8409C165.312 48.1742 165.566 47.6023 166.074 47.125C166.589 46.6402 167.206 46.3977 167.926 46.3977C168.646 46.3977 169.259 46.6402 169.767 47.125C170.282 47.6023 170.54 48.1742 170.54 48.8409C170.54 49.5152 170.282 50.0947 169.767 50.5795C169.259 51.0568 168.646 51.2955 167.926 51.2955ZM174.213 71V53.5455H178.827V56.625H179.031C179.395 55.6023 180.001 54.7955 180.849 54.2045C181.698 53.6136 182.713 53.3182 183.895 53.3182C185.092 53.3182 186.111 53.6174 186.952 54.2159C187.793 54.8068 188.353 55.6098 188.634 56.625H188.815C189.171 55.625 189.815 54.8258 190.747 54.2273C191.687 53.6212 192.796 53.3182 194.077 53.3182C195.705 53.3182 197.027 53.8371 198.043 54.875C199.065 55.9053 199.577 57.3674 199.577 59.2614V71H194.747V60.2159C194.747 59.2462 194.49 58.5189 193.974 58.0341C193.459 57.5492 192.815 57.3068 192.043 57.3068C191.164 57.3068 190.478 57.5871 189.986 58.1477C189.493 58.7008 189.247 59.4318 189.247 60.3409V71H184.554V60.1136C184.554 59.2576 184.308 58.5758 183.815 58.0682C183.33 57.5606 182.69 57.3068 181.895 57.3068C181.357 57.3068 180.872 57.4432 180.44 57.7159C180.016 57.9811 179.679 58.3561 179.429 58.8409C179.179 59.3182 179.054 59.8788 179.054 60.5227V71H174.213ZM203.401 71V53.5455H208.241V71H203.401ZM205.832 51.2955C205.113 51.2955 204.495 51.0568 203.98 50.5795C203.473 50.0947 203.219 49.5152 203.219 48.8409C203.219 48.1742 203.473 47.6023 203.98 47.125C204.495 46.6402 205.113 46.3977 205.832 46.3977C206.552 46.3977 207.166 46.6402 207.673 47.125C208.188 47.6023 208.446 48.1742 208.446 48.8409C208.446 49.5152 208.188 50.0947 207.673 50.5795C207.166 51.0568 206.552 51.2955 205.832 51.2955ZM212.119 71V53.5455H216.812V56.5909H216.994C217.313 55.5076 217.847 54.6894 218.597 54.1364C219.347 53.5758 220.21 53.2955 221.188 53.2955C221.43 53.2955 221.691 53.3106 221.972 53.3409C222.252 53.3712 222.498 53.4129 222.71 53.4659V57.7614C222.483 57.6932 222.169 57.6326 221.767 57.5795C221.366 57.5265 220.998 57.5 220.665 57.5C219.953 57.5 219.316 57.6553 218.756 57.9659C218.203 58.2689 217.763 58.6932 217.438 59.2386C217.119 59.7841 216.96 60.4129 216.96 61.125V71H212.119ZM232.71 47.7273H238.778L245.188 63.3636H245.46L251.869 47.7273H257.938V71H253.165V55.8523H252.972L246.949 70.8864H243.699L237.676 55.7955H237.483V71H232.71V47.7273ZM266.878 71.3295C265.764 71.3295 264.772 71.1364 263.901 70.75C263.029 70.3561 262.34 69.7765 261.832 69.0114C261.332 68.2386 261.082 67.2765 261.082 66.125C261.082 65.1553 261.26 64.3409 261.616 63.6818C261.973 63.0227 262.457 62.4924 263.071 62.0909C263.685 61.6894 264.382 61.3864 265.162 61.1818C265.95 60.9773 266.776 60.8333 267.639 60.75C268.654 60.6439 269.473 60.5455 270.094 60.4545C270.715 60.3561 271.166 60.2121 271.446 60.0227C271.726 59.8333 271.866 59.553 271.866 59.1818V59.1136C271.866 58.3939 271.639 57.8371 271.185 57.4432C270.738 57.0492 270.101 56.8523 269.276 56.8523C268.404 56.8523 267.711 57.0455 267.196 57.4318C266.681 57.8106 266.34 58.2879 266.173 58.8636L261.696 58.5C261.923 57.4394 262.37 56.5227 263.037 55.75C263.704 54.9697 264.563 54.3712 265.616 53.9545C266.677 53.5303 267.904 53.3182 269.298 53.3182C270.268 53.3182 271.196 53.4318 272.082 53.6591C272.976 53.8864 273.768 54.2386 274.457 54.7159C275.154 55.1932 275.704 55.8068 276.105 56.5568C276.507 57.2992 276.707 58.1894 276.707 59.2273V71H272.116V68.5795H271.98C271.7 69.125 271.325 69.6061 270.855 70.0227C270.385 70.4318 269.821 70.7538 269.162 70.9886C268.503 71.2159 267.741 71.3295 266.878 71.3295ZM268.264 67.9886C268.976 67.9886 269.605 67.8485 270.151 67.5682C270.696 67.2803 271.124 66.8939 271.435 66.4091C271.745 65.9242 271.901 65.375 271.901 64.7614V62.9091C271.749 63.0076 271.541 63.0985 271.276 63.1818C271.018 63.2576 270.726 63.3295 270.401 63.3977C270.075 63.4583 269.749 63.5152 269.423 63.5682C269.098 63.6136 268.802 63.6553 268.537 63.6932C267.969 63.7765 267.473 63.9091 267.048 64.0909C266.624 64.2727 266.295 64.5189 266.06 64.8295C265.825 65.1326 265.707 65.5114 265.707 65.9659C265.707 66.625 265.946 67.1288 266.423 67.4773C266.908 67.8182 267.522 67.9886 268.264 67.9886ZM283.906 71L279.156 53.5455H284.054L286.759 65.2727H286.918L289.736 53.5455H294.543L297.406 65.2045H297.554L300.213 53.5455H305.099L300.361 71H295.236L292.236 60.0227H292.02L289.02 71H283.906ZM312.523 47.7273V71H307.682V47.7273H312.523ZM321.378 71.3295C320.264 71.3295 319.272 71.1364 318.401 70.75C317.529 70.3561 316.84 69.7765 316.332 69.0114C315.832 68.2386 315.582 67.2765 315.582 66.125C315.582 65.1553 315.76 64.3409 316.116 63.6818C316.473 63.0227 316.957 62.4924 317.571 62.0909C318.185 61.6894 318.882 61.3864 319.662 61.1818C320.45 60.9773 321.276 60.8333 322.139 60.75C323.154 60.6439 323.973 60.5455 324.594 60.4545C325.215 60.3561 325.666 60.2121 325.946 60.0227C326.226 59.8333 326.366 59.553 326.366 59.1818V59.1136C326.366 58.3939 326.139 57.8371 325.685 57.4432C325.238 57.0492 324.601 56.8523 323.776 56.8523C322.904 56.8523 322.211 57.0455 321.696 57.4318C321.181 57.8106 320.84 58.2879 320.673 58.8636L316.196 58.5C316.423 57.4394 316.87 56.5227 317.537 55.75C318.204 54.9697 319.063 54.3712 320.116 53.9545C321.177 53.5303 322.404 53.3182 323.798 53.3182C324.768 53.3182 325.696 53.4318 326.582 53.6591C327.476 53.8864 328.268 54.2386 328.957 54.7159C329.654 55.1932 330.204 55.8068 330.605 56.5568C331.007 57.2992 331.207 58.1894 331.207 59.2273V71H326.616V68.5795H326.48C326.2 69.125 325.825 69.6061 325.355 70.0227C324.885 70.4318 324.321 70.7538 323.662 70.9886C323.003 71.2159 322.241 71.3295 321.378 71.3295ZM322.764 67.9886C323.476 67.9886 324.105 67.8485 324.651 67.5682C325.196 67.2803 325.624 66.8939 325.935 66.4091C326.245 65.9242 326.401 65.375 326.401 64.7614V62.9091C326.249 63.0076 326.041 63.0985 325.776 63.1818C325.518 63.2576 325.226 63.3295 324.901 63.3977C324.575 63.4583 324.249 63.5152 323.923 63.5682C323.598 63.6136 323.302 63.6553 323.037 63.6932C322.469 63.7765 321.973 63.9091 321.548 64.0909C321.124 64.2727 320.795 64.5189 320.56 64.8295C320.325 65.1326 320.207 65.5114 320.207 65.9659C320.207 66.625 320.446 67.1288 320.923 67.4773C321.408 67.8182 322.022 67.9886 322.764 67.9886Z" fill="#8C8C8C"/>
<path d="M95.4766 110H105.906L116.922 136.875H117.391L128.406 110H138.836V150H130.633V123.965H130.301L119.949 149.805H114.363L104.012 123.867H103.68V150H95.4766V110ZM145.647 150V120H153.968V150H145.647ZM149.827 116.133C148.59 116.133 147.529 115.723 146.644 114.902C145.771 114.069 145.335 113.073 145.335 111.914C145.335 110.768 145.771 109.785 146.644 108.965C147.529 108.132 148.59 107.715 149.827 107.715C151.064 107.715 152.119 108.132 152.991 108.965C153.877 109.785 154.319 110.768 154.319 111.914C154.319 113.073 153.877 114.069 152.991 114.902C152.119 115.723 151.064 116.133 149.827 116.133ZM168.953 132.656V150H160.633V120H168.563V125.293H168.914C169.578 123.548 170.691 122.168 172.254 121.152C173.816 120.124 175.711 119.609 177.938 119.609C180.021 119.609 181.837 120.065 183.387 120.977C184.936 121.888 186.141 123.19 187 124.883C187.859 126.562 188.289 128.568 188.289 130.898V150H179.969V132.383C179.982 130.547 179.513 129.115 178.563 128.086C177.612 127.044 176.303 126.523 174.637 126.523C173.517 126.523 172.527 126.764 171.668 127.246C170.822 127.728 170.158 128.431 169.676 129.355C169.207 130.267 168.966 131.367 168.953 132.656ZM205.901 150.488C203.623 150.488 201.559 149.902 199.71 148.73C197.874 147.546 196.416 145.807 195.335 143.516C194.267 141.211 193.733 138.385 193.733 135.039C193.733 131.602 194.287 128.743 195.394 126.465C196.5 124.173 197.972 122.461 199.808 121.328C201.657 120.182 203.681 119.609 205.882 119.609C207.562 119.609 208.961 119.896 210.081 120.469C211.214 121.029 212.125 121.732 212.815 122.578C213.519 123.411 214.052 124.232 214.417 125.039H214.671V110H222.972V150H214.769V145.195H214.417C214.026 146.029 213.473 146.855 212.757 147.676C212.054 148.483 211.136 149.154 210.003 149.687C208.883 150.221 207.516 150.488 205.901 150.488ZM208.538 143.867C209.879 143.867 211.012 143.503 211.937 142.773C212.874 142.031 213.59 140.996 214.085 139.668C214.593 138.34 214.847 136.784 214.847 135C214.847 133.216 214.599 131.667 214.104 130.352C213.61 129.036 212.894 128.021 211.956 127.305C211.019 126.589 209.879 126.23 208.538 126.23C207.171 126.23 206.019 126.602 205.081 127.344C204.144 128.086 203.434 129.115 202.952 130.43C202.47 131.745 202.229 133.268 202.229 135C202.229 136.745 202.47 138.288 202.952 139.629C203.447 140.957 204.157 141.999 205.081 142.754C206.019 143.496 207.171 143.867 208.538 143.867ZM251.668 121.504C251.512 119.928 250.841 118.704 249.656 117.832C248.471 116.96 246.863 116.523 244.832 116.523C243.452 116.523 242.286 116.719 241.336 117.109C240.385 117.487 239.656 118.014 239.148 118.691C238.654 119.368 238.406 120.137 238.406 120.996C238.38 121.712 238.53 122.337 238.855 122.871C239.194 123.405 239.656 123.867 240.242 124.258C240.828 124.635 241.505 124.967 242.273 125.254C243.042 125.527 243.862 125.762 244.734 125.957L248.328 126.816C250.073 127.207 251.674 127.728 253.133 128.379C254.591 129.03 255.854 129.831 256.922 130.781C257.99 131.732 258.816 132.852 259.402 134.141C260.001 135.43 260.307 136.908 260.32 138.574C260.307 141.022 259.682 143.145 258.445 144.941C257.221 146.725 255.451 148.112 253.133 149.102C250.828 150.078 248.048 150.566 244.793 150.566C241.564 150.566 238.751 150.072 236.355 149.082C233.973 148.092 232.111 146.628 230.77 144.687C229.441 142.734 228.745 140.319 228.68 137.441H236.863C236.954 138.783 237.339 139.902 238.016 140.801C238.706 141.686 239.624 142.357 240.77 142.812C241.928 143.255 243.237 143.477 244.695 143.477C246.128 143.477 247.371 143.268 248.426 142.852C249.493 142.435 250.32 141.855 250.906 141.113C251.492 140.371 251.785 139.518 251.785 138.555C251.785 137.656 251.518 136.901 250.984 136.289C250.464 135.677 249.695 135.156 248.68 134.727C247.677 134.297 246.447 133.906 244.988 133.555L240.633 132.461C237.26 131.641 234.598 130.358 232.645 128.613C230.691 126.868 229.721 124.518 229.734 121.562C229.721 119.141 230.366 117.025 231.668 115.215C232.983 113.405 234.786 111.992 237.078 110.977C239.37 109.961 241.974 109.453 244.891 109.453C247.859 109.453 250.451 109.961 252.664 110.977C254.891 111.992 256.622 113.405 257.859 115.215C259.096 117.025 259.734 119.121 259.773 121.504H251.668ZM274.173 132.656V150H265.853V110H273.938V125.293H274.29C274.967 123.522 276.061 122.135 277.571 121.133C279.082 120.117 280.976 119.609 283.255 119.609C285.338 119.609 287.155 120.065 288.704 120.977C290.267 121.875 291.478 123.171 292.337 124.863C293.209 126.543 293.639 128.555 293.626 130.898V150H285.306V132.383C285.319 130.534 284.85 129.095 283.899 128.066C282.962 127.038 281.647 126.523 279.954 126.523C278.821 126.523 277.819 126.764 276.946 127.246C276.087 127.728 275.41 128.431 274.915 129.355C274.433 130.267 274.186 131.367 274.173 132.656ZM300.174 150V120H308.494V150H300.174ZM304.354 116.133C303.117 116.133 302.055 115.723 301.17 114.902C300.298 114.069 299.861 113.073 299.861 111.914C299.861 110.768 300.298 109.785 301.17 108.965C302.055 108.132 303.117 107.715 304.354 107.715C305.59 107.715 306.645 108.132 307.518 108.965C308.403 109.785 308.846 110.768 308.846 111.914C308.846 113.073 308.403 114.069 307.518 114.902C306.645 115.723 305.59 116.133 304.354 116.133ZM331.292 120V126.25H312.776V120H331.292ZM317.015 150V117.832C317.015 115.658 317.438 113.854 318.284 112.422C319.144 110.99 320.315 109.915 321.8 109.199C323.284 108.483 324.97 108.125 326.858 108.125C328.134 108.125 329.3 108.223 330.354 108.418C331.422 108.613 332.216 108.789 332.737 108.945L331.253 115.195C330.927 115.091 330.524 114.993 330.042 114.902C329.573 114.811 329.091 114.766 328.597 114.766C327.373 114.766 326.52 115.052 326.038 115.625C325.556 116.185 325.315 116.973 325.315 117.988V150H317.015ZM352.332 120V126.25H334.266V120H352.332ZM338.367 112.812H346.688V140.781C346.688 141.549 346.805 142.148 347.039 142.578C347.273 142.995 347.599 143.288 348.016 143.457C348.445 143.626 348.94 143.711 349.5 143.711C349.891 143.711 350.281 143.678 350.672 143.613C351.062 143.535 351.362 143.477 351.57 143.437L352.879 149.629C352.462 149.759 351.876 149.909 351.121 150.078C350.366 150.26 349.448 150.371 348.367 150.41C346.362 150.488 344.604 150.221 343.094 149.609C341.596 148.997 340.431 148.047 339.598 146.758C338.764 145.469 338.354 143.841 338.367 141.875V112.812Z" fill="black"/>
<path d="M637.517 230V212.545H641.207V226.957H648.69V230H637.517ZM654.799 230.247C653.964 230.247 653.219 230.102 652.566 229.812C651.913 229.517 651.396 229.082 651.015 228.509C650.64 227.929 650.452 227.207 650.452 226.344C650.452 225.616 650.586 225.006 650.853 224.511C651.12 224.017 651.484 223.619 651.944 223.318C652.404 223.017 652.927 222.79 653.512 222.636C654.103 222.483 654.722 222.375 655.37 222.312C656.131 222.233 656.745 222.159 657.211 222.091C657.677 222.017 658.015 221.909 658.225 221.767C658.435 221.625 658.54 221.415 658.54 221.136V221.085C658.54 220.545 658.37 220.128 658.029 219.832C657.694 219.537 657.217 219.389 656.597 219.389C655.944 219.389 655.424 219.534 655.038 219.824C654.651 220.108 654.396 220.466 654.271 220.898L650.913 220.625C651.083 219.83 651.418 219.142 651.918 218.562C652.418 217.977 653.063 217.528 653.853 217.216C654.648 216.898 655.569 216.739 656.614 216.739C657.342 216.739 658.038 216.824 658.702 216.994C659.373 217.165 659.967 217.429 660.484 217.787C661.006 218.145 661.418 218.605 661.719 219.168C662.021 219.724 662.171 220.392 662.171 221.17V230H658.728V228.185H658.626C658.415 228.594 658.134 228.955 657.782 229.267C657.43 229.574 657.006 229.815 656.512 229.991C656.018 230.162 655.447 230.247 654.799 230.247ZM655.839 227.741C656.373 227.741 656.844 227.636 657.254 227.426C657.663 227.21 657.984 226.92 658.217 226.557C658.45 226.193 658.566 225.781 658.566 225.321V223.932C658.452 224.006 658.296 224.074 658.097 224.136C657.904 224.193 657.685 224.247 657.441 224.298C657.197 224.344 656.952 224.386 656.708 224.426C656.464 224.46 656.242 224.491 656.043 224.52C655.617 224.582 655.245 224.682 654.927 224.818C654.609 224.955 654.362 225.139 654.185 225.372C654.009 225.599 653.921 225.884 653.921 226.224C653.921 226.719 654.1 227.097 654.458 227.358C654.822 227.614 655.282 227.741 655.839 227.741ZM664.988 230V216.909H668.508V219.193H668.644C668.883 218.381 669.283 217.767 669.846 217.352C670.408 216.932 671.056 216.722 671.789 216.722C671.971 216.722 672.167 216.733 672.377 216.756C672.587 216.778 672.772 216.81 672.931 216.849V220.071C672.761 220.02 672.525 219.974 672.224 219.935C671.923 219.895 671.647 219.875 671.397 219.875C670.863 219.875 670.386 219.991 669.965 220.224C669.55 220.452 669.221 220.77 668.977 221.179C668.738 221.588 668.619 222.06 668.619 222.594V230H664.988ZM678.166 230.247C677.331 230.247 676.587 230.102 675.933 229.812C675.28 229.517 674.763 229.082 674.382 228.509C674.007 227.929 673.82 227.207 673.82 226.344C673.82 225.616 673.953 225.006 674.22 224.511C674.487 224.017 674.851 223.619 675.311 223.318C675.771 223.017 676.294 222.79 676.879 222.636C677.47 222.483 678.089 222.375 678.737 222.312C679.499 222.233 680.112 222.159 680.578 222.091C681.044 222.017 681.382 221.909 681.592 221.767C681.803 221.625 681.908 221.415 681.908 221.136V221.085C681.908 220.545 681.737 220.128 681.396 219.832C681.061 219.537 680.584 219.389 679.964 219.389C679.311 219.389 678.791 219.534 678.405 219.824C678.018 220.108 677.763 220.466 677.638 220.898L674.28 220.625C674.45 219.83 674.786 219.142 675.286 218.562C675.786 217.977 676.43 217.528 677.22 217.216C678.016 216.898 678.936 216.739 679.982 216.739C680.709 216.739 681.405 216.824 682.07 216.994C682.74 217.165 683.334 217.429 683.851 217.787C684.374 218.145 684.786 218.605 685.087 219.168C685.388 219.724 685.538 220.392 685.538 221.17V230H682.095V228.185H681.993C681.783 228.594 681.501 228.955 681.149 229.267C680.797 229.574 680.374 229.815 679.879 229.991C679.385 230.162 678.814 230.247 678.166 230.247ZM679.206 227.741C679.74 227.741 680.212 227.636 680.621 227.426C681.03 227.21 681.351 226.92 681.584 226.557C681.817 226.193 681.933 225.781 681.933 225.321V223.932C681.82 224.006 681.663 224.074 681.464 224.136C681.271 224.193 681.053 224.247 680.808 224.298C680.564 224.344 680.32 224.386 680.075 224.426C679.831 224.46 679.609 224.491 679.411 224.52C678.984 224.582 678.612 224.682 678.294 224.818C677.976 224.955 677.729 225.139 677.553 225.372C677.376 225.599 677.288 225.884 677.288 226.224C677.288 226.719 677.467 227.097 677.825 227.358C678.189 227.614 678.649 227.741 679.206 227.741ZM700.091 216.909L695.514 230H691.423L686.847 216.909H690.682L693.401 226.276H693.537L696.247 216.909H700.091ZM707.493 230.256C706.146 230.256 704.987 229.983 704.016 229.438C703.05 228.886 702.305 228.108 701.783 227.102C701.26 226.091 700.999 224.895 700.999 223.514C700.999 222.168 701.26 220.986 701.783 219.969C702.305 218.952 703.041 218.159 703.99 217.591C704.945 217.023 706.064 216.739 707.348 216.739C708.212 216.739 709.016 216.878 709.76 217.156C710.51 217.429 711.163 217.841 711.72 218.392C712.283 218.943 712.72 219.636 713.033 220.472C713.345 221.301 713.501 222.273 713.501 223.386V224.384H702.447V222.134H710.084C710.084 221.611 709.97 221.148 709.743 220.744C709.516 220.341 709.2 220.026 708.797 219.798C708.399 219.565 707.936 219.449 707.408 219.449C706.857 219.449 706.368 219.577 705.942 219.832C705.521 220.082 705.192 220.42 704.953 220.847C704.714 221.267 704.592 221.736 704.587 222.253V224.392C704.587 225.04 704.706 225.599 704.945 226.071C705.189 226.543 705.533 226.906 705.976 227.162C706.419 227.418 706.945 227.545 707.553 227.545C707.956 227.545 708.325 227.489 708.661 227.375C708.996 227.261 709.283 227.091 709.521 226.864C709.76 226.636 709.942 226.358 710.067 226.028L713.425 226.25C713.254 227.057 712.905 227.761 712.376 228.364C711.854 228.96 711.178 229.426 710.348 229.761C709.524 230.091 708.572 230.256 707.493 230.256ZM719.501 212.545V230H715.871V212.545H719.501Z" fill="white"/>
</svg>
