<svg width="1363" height="301" viewBox="0 0 1363 301" fill="none" xmlns="http://www.w3.org/2000/svg">
<path d="M1348 0H15C6.71573 0 0 6.71573 0 15V286C0 294.284 6.71573 301 15 301H1348C1356.28 301 1363 294.284 1363 286V15C1363 6.71573 1356.28 0 1348 0Z" fill="#F0F0F0"/>
<path d="M0 15C0 6.71573 6.71573 0 15 0H37V301H15C6.71573 301 0 294.284 0 286V15Z" fill="#026483"/>
<path d="M1257.67 181H105.333C97.9695 181 92 186.97 92 194.333V247.667C92 255.03 97.9695 261 105.333 261H1257.67C1265.03 261 1271 255.03 1271 247.667V194.333C1271 186.97 1265.03 181 1257.67 181Z" fill="#2994B7"/>
<path d="M323.333 196H124.667C122.089 196 120 198.089 120 200.667V240.667C120 243.244 122.089 245.333 124.667 245.333H323.333C325.911 245.333 328 243.244 328 240.667V200.667C328 198.089 325.911 196 323.333 196Z" fill="#0D6582" stroke="#0D6582" stroke-width="4"/>
<path d="M197 212H202.969C204.136 212 205.149 212.173 206.011 212.52C206.872 212.868 207.535 213.382 208 214.062C208.472 214.743 208.708 215.583 208.708 216.583C208.708 217.451 208.573 218.177 208.302 218.76C208.031 219.343 207.653 219.826 207.167 220.208C206.688 220.583 206.129 220.892 205.49 221.135L204.292 221.812H199.281L199.261 218.989H202.969C203.434 218.989 203.82 218.906 204.125 218.739C204.431 218.573 204.66 218.336 204.813 218.031C204.972 217.718 205.052 217.347 205.052 216.916C205.052 216.479 204.972 216.104 204.813 215.791C204.653 215.479 204.417 215.239 204.104 215.073C203.799 214.906 203.42 214.823 202.969 214.823H200.656V227.166H197V212ZM205.302 227.166L201.948 220.458L205.823 220.437L209.219 227.01V227.166H205.302ZM216.208 227.375C215.292 227.375 214.472 227.232 213.75 226.948C213.028 226.656 212.417 226.257 211.917 225.75C211.424 225.243 211.045 224.659 210.781 224C210.524 223.34 210.396 222.642 210.396 221.906V221.51C210.396 220.684 210.511 219.92 210.74 219.218C210.969 218.51 211.309 217.892 211.761 217.364C212.212 216.836 212.778 216.427 213.458 216.135C214.139 215.836 214.931 215.687 215.833 215.687C216.632 215.687 217.347 215.816 217.979 216.073C218.611 216.329 219.146 216.698 219.583 217.177C220.028 217.656 220.365 218.236 220.594 218.916C220.83 219.597 220.948 220.361 220.948 221.208V222.635H211.74V220.437H217.521V220.166C217.528 219.791 217.462 219.472 217.323 219.208C217.191 218.944 216.997 218.743 216.74 218.604C216.483 218.465 216.17 218.395 215.802 218.395C215.42 218.395 215.104 218.479 214.854 218.645C214.611 218.812 214.42 219.041 214.281 219.333C214.149 219.618 214.056 219.948 214 220.323C213.945 220.698 213.917 221.093 213.917 221.51V221.906C213.917 222.323 213.972 222.701 214.083 223.041C214.202 223.382 214.368 223.673 214.583 223.916C214.806 224.152 215.07 224.336 215.375 224.468C215.688 224.6 216.042 224.666 216.438 224.666C216.917 224.666 217.389 224.576 217.854 224.395C218.32 224.215 218.719 223.916 219.052 223.5L220.646 225.395C220.417 225.722 220.09 226.038 219.667 226.343C219.25 226.649 218.75 226.899 218.167 227.093C217.583 227.281 216.931 227.375 216.208 227.375ZM228.229 224.333V219.687C228.229 219.368 228.184 219.093 228.094 218.864C228.004 218.635 227.861 218.458 227.667 218.333C227.472 218.201 227.212 218.135 226.886 218.135C226.622 218.135 226.396 218.18 226.208 218.27C226.021 218.361 225.879 218.496 225.781 218.677C225.684 218.857 225.636 219.086 225.636 219.364H222.125C222.125 218.843 222.24 218.361 222.469 217.916C222.705 217.465 223.038 217.073 223.469 216.739C223.906 216.406 224.427 216.149 225.031 215.968C225.643 215.781 226.323 215.687 227.073 215.687C227.969 215.687 228.768 215.836 229.469 216.135C230.177 216.434 230.736 216.882 231.146 217.479C231.556 218.069 231.761 218.812 231.761 219.708V224.323C231.761 225.059 231.802 225.618 231.886 226C231.969 226.375 232.087 226.704 232.24 226.989V227.166H228.719C228.552 226.819 228.427 226.395 228.344 225.895C228.268 225.388 228.229 224.868 228.229 224.333ZM228.656 220.281L228.677 222.156H227.125C226.799 222.156 226.521 222.201 226.292 222.291C226.07 222.382 225.889 222.507 225.75 222.666C225.618 222.819 225.521 222.993 225.458 223.187C225.403 223.382 225.375 223.586 225.375 223.802C225.375 224.01 225.424 224.198 225.521 224.364C225.625 224.524 225.764 224.649 225.938 224.739C226.111 224.829 226.306 224.875 226.521 224.875C226.91 224.875 227.24 224.802 227.511 224.656C227.788 224.503 228 224.319 228.146 224.104C228.292 223.888 228.365 223.687 228.365 223.5L229.136 224.937C228.997 225.215 228.837 225.496 228.656 225.781C228.483 226.066 228.264 226.329 228 226.573C227.743 226.809 227.427 227.003 227.052 227.156C226.677 227.302 226.222 227.375 225.688 227.375C224.993 227.375 224.354 227.232 223.771 226.948C223.195 226.663 222.733 226.267 222.386 225.76C222.038 225.246 221.865 224.656 221.865 223.989C221.865 223.406 221.969 222.885 222.177 222.427C222.393 221.968 222.715 221.579 223.146 221.26C223.577 220.941 224.125 220.698 224.792 220.531C225.458 220.364 226.243 220.281 227.146 220.281H228.656ZM238.469 224.666C238.795 224.666 239.073 224.607 239.302 224.489C239.538 224.364 239.715 224.191 239.833 223.968C239.958 223.739 240.018 223.465 240.011 223.145H243.313C243.32 223.993 243.111 224.736 242.688 225.375C242.271 226.007 241.702 226.5 240.979 226.854C240.264 227.201 239.455 227.375 238.552 227.375C237.67 227.375 236.899 227.232 236.24 226.948C235.58 226.656 235.028 226.253 234.583 225.739C234.146 225.218 233.816 224.611 233.594 223.916C233.379 223.222 233.271 222.468 233.271 221.656V221.416C233.271 220.604 233.379 219.85 233.594 219.156C233.816 218.454 234.146 217.847 234.583 217.333C235.028 216.812 235.577 216.409 236.229 216.125C236.889 215.833 237.656 215.687 238.531 215.687C239.469 215.687 240.295 215.864 241.011 216.218C241.733 216.573 242.299 217.086 242.708 217.76C243.118 218.434 243.32 219.25 243.313 220.208H240.011C240.018 219.868 239.965 219.562 239.854 219.291C239.743 219.02 239.57 218.805 239.333 218.645C239.104 218.479 238.809 218.395 238.448 218.395C238.087 218.395 237.795 218.475 237.573 218.635C237.351 218.795 237.181 219.017 237.063 219.302C236.952 219.579 236.875 219.899 236.833 220.26C236.799 220.621 236.781 221.007 236.781 221.416V221.656C236.781 222.073 236.799 222.465 236.833 222.833C236.875 223.194 236.955 223.513 237.073 223.791C237.191 224.062 237.361 224.277 237.583 224.437C237.806 224.59 238.101 224.666 238.469 224.666ZM250.75 215.895V218.333H243.958V215.895H250.75ZM245.386 213.093H248.896V223.489C248.896 223.788 248.931 224.02 249 224.187C249.07 224.347 249.188 224.461 249.354 224.531C249.528 224.593 249.757 224.625 250.042 224.625C250.243 224.625 250.41 224.621 250.542 224.614C250.674 224.6 250.799 224.583 250.917 224.562V227.073C250.618 227.17 250.306 227.243 249.979 227.291C249.653 227.347 249.306 227.375 248.938 227.375C248.188 227.375 247.545 227.257 247.011 227.02C246.483 226.784 246.08 226.413 245.802 225.906C245.524 225.399 245.386 224.739 245.386 223.927V213.093Z" fill="white"/>
<path d="M573.333 196H374.667C372.089 196 370 198.089 370 200.667V240.667C370 243.244 372.089 245.333 374.667 245.333H573.333C575.911 245.333 578 243.244 578 240.667V200.667C578 198.089 575.911 196 573.333 196Z" fill="#0D6582" stroke="#0D6582" stroke-width="4"/>
<path d="M98.2273 47.7273L103.852 65.4091H104.068L109.705 47.7273H115.159L107.136 71H100.795L92.7614 47.7273H98.2273ZM122.71 47.7273V71H117.869V47.7273H122.71ZM131.565 71.3295C130.452 71.3295 129.459 71.1364 128.588 70.75C127.717 70.3561 127.027 69.7765 126.52 69.0114C126.02 68.2386 125.77 67.2765 125.77 66.125C125.77 65.1553 125.948 64.3409 126.304 63.6818C126.66 63.0227 127.145 62.4924 127.759 62.0909C128.372 61.6894 129.069 61.3864 129.849 61.1818C130.637 60.9773 131.463 60.8333 132.327 60.75C133.342 60.6439 134.16 60.5455 134.781 60.4545C135.402 60.3561 135.853 60.2121 136.134 60.0227C136.414 59.8333 136.554 59.553 136.554 59.1818V59.1136C136.554 58.3939 136.327 57.8371 135.872 57.4432C135.425 57.0492 134.789 56.8523 133.963 56.8523C133.092 56.8523 132.399 57.0455 131.884 57.4318C131.368 57.8106 131.027 58.2879 130.861 58.8636L126.384 58.5C126.611 57.4394 127.058 56.5227 127.724 55.75C128.391 54.9697 129.251 54.3712 130.304 53.9545C131.365 53.5303 132.592 53.3182 133.986 53.3182C134.955 53.3182 135.884 53.4318 136.77 53.6591C137.664 53.8864 138.455 54.2386 139.145 54.7159C139.842 55.1932 140.391 55.8068 140.793 56.5568C141.194 57.2992 141.395 58.1894 141.395 59.2273V71H136.804V68.5795H136.668C136.387 69.125 136.012 69.6061 135.543 70.0227C135.073 70.4318 134.509 70.7538 133.849 70.9886C133.19 71.2159 132.429 71.3295 131.565 71.3295ZM132.952 67.9886C133.664 67.9886 134.293 67.8485 134.838 67.5682C135.384 67.2803 135.812 66.8939 136.122 66.4091C136.433 65.9242 136.588 65.375 136.588 64.7614V62.9091C136.437 63.0076 136.228 63.0985 135.963 63.1818C135.705 63.2576 135.414 63.3295 135.088 63.3977C134.762 63.4583 134.437 63.5152 134.111 63.5682C133.785 63.6136 133.49 63.6553 133.224 63.6932C132.656 63.7765 132.16 63.9091 131.736 64.0909C131.312 64.2727 130.982 64.5189 130.747 64.8295C130.512 65.1326 130.395 65.5114 130.395 65.9659C130.395 66.625 130.634 67.1288 131.111 67.4773C131.596 67.8182 132.209 67.9886 132.952 67.9886ZM151.582 71.2841C150.257 71.2841 149.056 70.9432 147.98 70.2614C146.912 69.572 146.063 68.5606 145.435 67.2273C144.813 65.8864 144.503 64.2424 144.503 62.2955C144.503 60.2955 144.825 58.6326 145.469 57.3068C146.113 55.9735 146.969 54.9773 148.037 54.3182C149.113 53.6515 150.291 53.3182 151.571 53.3182C152.548 53.3182 153.363 53.4848 154.014 53.8182C154.673 54.1439 155.204 54.553 155.605 55.0455C156.014 55.5303 156.325 56.0076 156.537 56.4773H156.685V47.7273H161.514V71H156.741V68.2045H156.537C156.31 68.6894 155.988 69.1705 155.571 69.6477C155.162 70.1174 154.628 70.5076 153.969 70.8182C153.317 71.1288 152.522 71.2841 151.582 71.2841ZM153.116 67.4318C153.897 67.4318 154.556 67.2197 155.094 66.7955C155.639 66.3636 156.056 65.7614 156.344 64.9886C156.639 64.2159 156.787 63.3106 156.787 62.2727C156.787 61.2348 156.643 60.3333 156.355 59.5682C156.067 58.803 155.651 58.2121 155.105 57.7955C154.56 57.3788 153.897 57.1705 153.116 57.1705C152.321 57.1705 151.651 57.3864 151.105 57.8182C150.56 58.25 150.147 58.8485 149.866 59.6136C149.586 60.3788 149.446 61.2652 149.446 62.2727C149.446 63.2879 149.586 64.1856 149.866 64.9659C150.154 65.7386 150.567 66.3447 151.105 66.7841C151.651 67.2159 152.321 67.4318 153.116 67.4318ZM165.494 71V53.5455H170.335V71H165.494ZM167.926 51.2955C167.206 51.2955 166.589 51.0568 166.074 50.5795C165.566 50.0947 165.312 49.5152 165.312 48.8409C165.312 48.1742 165.566 47.6023 166.074 47.125C166.589 46.6402 167.206 46.3977 167.926 46.3977C168.646 46.3977 169.259 46.6402 169.767 47.125C170.282 47.6023 170.54 48.1742 170.54 48.8409C170.54 49.5152 170.282 50.0947 169.767 50.5795C169.259 51.0568 168.646 51.2955 167.926 51.2955ZM174.213 71V53.5455H178.827V56.625H179.031C179.395 55.6023 180.001 54.7955 180.849 54.2045C181.698 53.6136 182.713 53.3182 183.895 53.3182C185.092 53.3182 186.111 53.6174 186.952 54.2159C187.793 54.8068 188.353 55.6098 188.634 56.625H188.815C189.171 55.625 189.815 54.8258 190.747 54.2273C191.687 53.6212 192.796 53.3182 194.077 53.3182C195.705 53.3182 197.027 53.8371 198.043 54.875C199.065 55.9053 199.577 57.3674 199.577 59.2614V71H194.747V60.2159C194.747 59.2462 194.49 58.5189 193.974 58.0341C193.459 57.5492 192.815 57.3068 192.043 57.3068C191.164 57.3068 190.478 57.5871 189.986 58.1477C189.493 58.7008 189.247 59.4318 189.247 60.3409V71H184.554V60.1136C184.554 59.2576 184.308 58.5758 183.815 58.0682C183.33 57.5606 182.69 57.3068 181.895 57.3068C181.357 57.3068 180.872 57.4432 180.44 57.7159C180.016 57.9811 179.679 58.3561 179.429 58.8409C179.179 59.3182 179.054 59.8788 179.054 60.5227V71H174.213ZM203.401 71V53.5455H208.241V71H203.401ZM205.832 51.2955C205.113 51.2955 204.495 51.0568 203.98 50.5795C203.473 50.0947 203.219 49.5152 203.219 48.8409C203.219 48.1742 203.473 47.6023 203.98 47.125C204.495 46.6402 205.113 46.3977 205.832 46.3977C206.552 46.3977 207.166 46.6402 207.673 47.125C208.188 47.6023 208.446 48.1742 208.446 48.8409C208.446 49.5152 208.188 50.0947 207.673 50.5795C207.166 51.0568 206.552 51.2955 205.832 51.2955ZM212.119 71V53.5455H216.812V56.5909H216.994C217.313 55.5076 217.847 54.6894 218.597 54.1364C219.347 53.5758 220.21 53.2955 221.188 53.2955C221.43 53.2955 221.691 53.3106 221.972 53.3409C222.252 53.3712 222.498 53.4129 222.71 53.4659V57.7614C222.483 57.6932 222.169 57.6326 221.767 57.5795C221.366 57.5265 220.998 57.5 220.665 57.5C219.953 57.5 219.316 57.6553 218.756 57.9659C218.203 58.2689 217.763 58.6932 217.438 59.2386C217.119 59.7841 216.96 60.4129 216.96 61.125V71H212.119ZM232.71 47.7273H238.778L245.188 63.3636H245.46L251.869 47.7273H257.938V71H253.165V55.8523H252.972L246.949 70.8864H243.699L237.676 55.7955H237.483V71H232.71V47.7273ZM266.878 71.3295C265.764 71.3295 264.772 71.1364 263.901 70.75C263.029 70.3561 262.34 69.7765 261.832 69.0114C261.332 68.2386 261.082 67.2765 261.082 66.125C261.082 65.1553 261.26 64.3409 261.616 63.6818C261.973 63.0227 262.457 62.4924 263.071 62.0909C263.685 61.6894 264.382 61.3864 265.162 61.1818C265.95 60.9773 266.776 60.8333 267.639 60.75C268.654 60.6439 269.473 60.5455 270.094 60.4545C270.715 60.3561 271.166 60.2121 271.446 60.0227C271.726 59.8333 271.866 59.553 271.866 59.1818V59.1136C271.866 58.3939 271.639 57.8371 271.185 57.4432C270.738 57.0492 270.101 56.8523 269.276 56.8523C268.404 56.8523 267.711 57.0455 267.196 57.4318C266.681 57.8106 266.34 58.2879 266.173 58.8636L261.696 58.5C261.923 57.4394 262.37 56.5227 263.037 55.75C263.704 54.9697 264.563 54.3712 265.616 53.9545C266.677 53.5303 267.904 53.3182 269.298 53.3182C270.268 53.3182 271.196 53.4318 272.082 53.6591C272.976 53.8864 273.768 54.2386 274.457 54.7159C275.154 55.1932 275.704 55.8068 276.105 56.5568C276.507 57.2992 276.707 58.1894 276.707 59.2273V71H272.116V68.5795H271.98C271.7 69.125 271.325 69.6061 270.855 70.0227C270.385 70.4318 269.821 70.7538 269.162 70.9886C268.503 71.2159 267.741 71.3295 266.878 71.3295ZM268.264 67.9886C268.976 67.9886 269.605 67.8485 270.151 67.5682C270.696 67.2803 271.124 66.8939 271.435 66.4091C271.745 65.9242 271.901 65.375 271.901 64.7614V62.9091C271.749 63.0076 271.541 63.0985 271.276 63.1818C271.018 63.2576 270.726 63.3295 270.401 63.3977C270.075 63.4583 269.749 63.5152 269.423 63.5682C269.098 63.6136 268.802 63.6553 268.537 63.6932C267.969 63.7765 267.473 63.9091 267.048 64.0909C266.624 64.2727 266.295 64.5189 266.06 64.8295C265.825 65.1326 265.707 65.5114 265.707 65.9659C265.707 66.625 265.946 67.1288 266.423 67.4773C266.908 67.8182 267.522 67.9886 268.264 67.9886ZM283.906 71L279.156 53.5455H284.054L286.759 65.2727H286.918L289.736 53.5455H294.543L297.406 65.2045H297.554L300.213 53.5455H305.099L300.361 71H295.236L292.236 60.0227H292.02L289.02 71H283.906ZM312.523 47.7273V71H307.682V47.7273H312.523ZM321.378 71.3295C320.264 71.3295 319.272 71.1364 318.401 70.75C317.529 70.3561 316.84 69.7765 316.332 69.0114C315.832 68.2386 315.582 67.2765 315.582 66.125C315.582 65.1553 315.76 64.3409 316.116 63.6818C316.473 63.0227 316.957 62.4924 317.571 62.0909C318.185 61.6894 318.882 61.3864 319.662 61.1818C320.45 60.9773 321.276 60.8333 322.139 60.75C323.154 60.6439 323.973 60.5455 324.594 60.4545C325.215 60.3561 325.666 60.2121 325.946 60.0227C326.226 59.8333 326.366 59.553 326.366 59.1818V59.1136C326.366 58.3939 326.139 57.8371 325.685 57.4432C325.238 57.0492 324.601 56.8523 323.776 56.8523C322.904 56.8523 322.211 57.0455 321.696 57.4318C321.181 57.8106 320.84 58.2879 320.673 58.8636L316.196 58.5C316.423 57.4394 316.87 56.5227 317.537 55.75C318.204 54.9697 319.063 54.3712 320.116 53.9545C321.177 53.5303 322.404 53.3182 323.798 53.3182C324.768 53.3182 325.696 53.4318 326.582 53.6591C327.476 53.8864 328.268 54.2386 328.957 54.7159C329.654 55.1932 330.204 55.8068 330.605 56.5568C331.007 57.2992 331.207 58.1894 331.207 59.2273V71H326.616V68.5795H326.48C326.2 69.125 325.825 69.6061 325.355 70.0227C324.885 70.4318 324.321 70.7538 323.662 70.9886C323.003 71.2159 322.241 71.3295 321.378 71.3295ZM322.764 67.9886C323.476 67.9886 324.105 67.8485 324.651 67.5682C325.196 67.2803 325.624 66.8939 325.935 66.4091C326.245 65.9242 326.401 65.375 326.401 64.7614V62.9091C326.249 63.0076 326.041 63.0985 325.776 63.1818C325.518 63.2576 325.226 63.3295 324.901 63.3977C324.575 63.4583 324.249 63.5152 323.923 63.5682C323.598 63.6136 323.302 63.6553 323.037 63.6932C322.469 63.7765 321.973 63.9091 321.548 64.0909C321.124 64.2727 320.795 64.5189 320.56 64.8295C320.325 65.1326 320.207 65.5114 320.207 65.9659C320.207 66.625 320.446 67.1288 320.923 67.4773C321.408 67.8182 322.022 67.9886 322.764 67.9886Z" fill="#8C8C8C"/>
<path d="M95.4766 110H105.906L116.922 136.875H117.391L128.406 110H138.836V150H130.633V123.965H130.301L119.949 149.805H114.363L104.012 123.867H103.68V150H95.4766V110ZM145.647 150V120H153.968V150H145.647ZM149.827 116.133C148.59 116.133 147.529 115.723 146.644 114.902C145.771 114.069 145.335 113.073 145.335 111.914C145.335 110.768 145.771 109.785 146.644 108.965C147.529 108.132 148.59 107.715 149.827 107.715C151.064 107.715 152.119 108.132 152.991 108.965C153.877 109.785 154.319 110.768 154.319 111.914C154.319 113.073 153.877 114.069 152.991 114.902C152.119 115.723 151.064 116.133 149.827 116.133ZM168.953 132.656V150H160.633V120H168.563V125.293H168.914C169.578 123.548 170.691 122.168 172.254 121.152C173.816 120.124 175.711 119.609 177.938 119.609C180.021 119.609 181.837 120.065 183.387 120.977C184.936 121.888 186.141 123.19 187 124.883C187.859 126.562 188.289 128.568 188.289 130.898V150H179.969V132.383C179.982 130.547 179.513 129.115 178.563 128.086C177.612 127.044 176.303 126.523 174.637 126.523C173.517 126.523 172.527 126.764 171.668 127.246C170.822 127.728 170.158 128.431 169.676 129.355C169.207 130.267 168.966 131.367 168.953 132.656ZM205.901 150.488C203.623 150.488 201.559 149.902 199.71 148.73C197.874 147.546 196.416 145.807 195.335 143.516C194.267 141.211 193.733 138.385 193.733 135.039C193.733 131.602 194.287 128.743 195.394 126.465C196.5 124.173 197.972 122.461 199.808 121.328C201.657 120.182 203.681 119.609 205.882 119.609C207.562 119.609 208.961 119.896 210.081 120.469C211.214 121.029 212.125 121.732 212.815 122.578C213.519 123.411 214.052 124.232 214.417 125.039H214.671V110H222.972V150H214.769V145.195H214.417C214.026 146.029 213.473 146.855 212.757 147.676C212.054 148.483 211.136 149.154 210.003 149.687C208.883 150.221 207.516 150.488 205.901 150.488ZM208.538 143.867C209.879 143.867 211.012 143.503 211.937 142.773C212.874 142.031 213.59 140.996 214.085 139.668C214.593 138.34 214.847 136.784 214.847 135C214.847 133.216 214.599 131.667 214.104 130.352C213.61 129.036 212.894 128.021 211.956 127.305C211.019 126.589 209.879 126.23 208.538 126.23C207.171 126.23 206.019 126.602 205.081 127.344C204.144 128.086 203.434 129.115 202.952 130.43C202.47 131.745 202.229 133.268 202.229 135C202.229 136.745 202.47 138.288 202.952 139.629C203.447 140.957 204.157 141.999 205.081 142.754C206.019 143.496 207.171 143.867 208.538 143.867ZM251.668 121.504C251.512 119.928 250.841 118.704 249.656 117.832C248.471 116.96 246.863 116.523 244.832 116.523C243.452 116.523 242.286 116.719 241.336 117.109C240.385 117.487 239.656 118.014 239.148 118.691C238.654 119.368 238.406 120.137 238.406 120.996C238.38 121.712 238.53 122.337 238.855 122.871C239.194 123.405 239.656 123.867 240.242 124.258C240.828 124.635 241.505 124.967 242.273 125.254C243.042 125.527 243.862 125.762 244.734 125.957L248.328 126.816C250.073 127.207 251.674 127.728 253.133 128.379C254.591 129.03 255.854 129.831 256.922 130.781C257.99 131.732 258.816 132.852 259.402 134.141C260.001 135.43 260.307 136.908 260.32 138.574C260.307 141.022 259.682 143.145 258.445 144.941C257.221 146.725 255.451 148.112 253.133 149.102C250.828 150.078 248.048 150.566 244.793 150.566C241.564 150.566 238.751 150.072 236.355 149.082C233.973 148.092 232.111 146.628 230.77 144.687C229.441 142.734 228.745 140.319 228.68 137.441H236.863C236.954 138.783 237.339 139.902 238.016 140.801C238.706 141.686 239.624 142.357 240.77 142.812C241.928 143.255 243.237 143.477 244.695 143.477C246.128 143.477 247.371 143.268 248.426 142.852C249.493 142.435 250.32 141.855 250.906 141.113C251.492 140.371 251.785 139.518 251.785 138.555C251.785 137.656 251.518 136.901 250.984 136.289C250.464 135.677 249.695 135.156 248.68 134.727C247.677 134.297 246.447 133.906 244.988 133.555L240.633 132.461C237.26 131.641 234.598 130.358 232.645 128.613C230.691 126.868 229.721 124.518 229.734 121.562C229.721 119.141 230.366 117.025 231.668 115.215C232.983 113.405 234.786 111.992 237.078 110.977C239.37 109.961 241.974 109.453 244.891 109.453C247.859 109.453 250.451 109.961 252.664 110.977C254.891 111.992 256.622 113.405 257.859 115.215C259.096 117.025 259.734 119.121 259.773 121.504H251.668ZM274.173 132.656V150H265.853V110H273.938V125.293H274.29C274.967 123.522 276.061 122.135 277.571 121.133C279.082 120.117 280.976 119.609 283.255 119.609C285.338 119.609 287.155 120.065 288.704 120.977C290.267 121.875 291.478 123.171 292.337 124.863C293.209 126.543 293.639 128.555 293.626 130.898V150H285.306V132.383C285.319 130.534 284.85 129.095 283.899 128.066C282.962 127.038 281.647 126.523 279.954 126.523C278.821 126.523 277.819 126.764 276.946 127.246C276.087 127.728 275.41 128.431 274.915 129.355C274.433 130.267 274.186 131.367 274.173 132.656ZM300.174 150V120H308.494V150H300.174ZM304.354 116.133C303.117 116.133 302.055 115.723 301.17 114.902C300.298 114.069 299.861 113.073 299.861 111.914C299.861 110.768 300.298 109.785 301.17 108.965C302.055 108.132 303.117 107.715 304.354 107.715C305.59 107.715 306.645 108.132 307.518 108.965C308.403 109.785 308.846 110.768 308.846 111.914C308.846 113.073 308.403 114.069 307.518 114.902C306.645 115.723 305.59 116.133 304.354 116.133ZM331.292 120V126.25H312.776V120H331.292ZM317.015 150V117.832C317.015 115.658 317.438 113.854 318.284 112.422C319.144 110.99 320.315 109.915 321.8 109.199C323.284 108.483 324.97 108.125 326.858 108.125C328.134 108.125 329.3 108.223 330.354 108.418C331.422 108.613 332.216 108.789 332.737 108.945L331.253 115.195C330.927 115.091 330.524 114.993 330.042 114.902C329.573 114.811 329.091 114.766 328.597 114.766C327.373 114.766 326.52 115.052 326.038 115.625C325.556 116.185 325.315 116.973 325.315 117.988V150H317.015ZM352.332 120V126.25H334.266V120H352.332ZM338.367 112.812H346.688V140.781C346.688 141.549 346.805 142.148 347.039 142.578C347.273 142.995 347.599 143.288 348.016 143.457C348.445 143.626 348.94 143.711 349.5 143.711C349.891 143.711 350.281 143.678 350.672 143.613C351.062 143.535 351.362 143.477 351.57 143.437L352.879 149.629C352.462 149.759 351.876 149.909 351.121 150.078C350.366 150.26 349.448 150.371 348.367 150.41C346.362 150.488 344.604 150.221 343.094 149.609C341.596 148.997 340.431 148.047 339.598 146.758C338.764 145.469 338.354 143.841 338.367 141.875V112.812Z" fill="black"/>
<path d="M433 229.667V212.212H436.69V226.624H444.173V229.667H433ZM450.282 229.914C449.447 229.914 448.702 229.769 448.049 229.479C447.396 229.184 446.879 228.749 446.498 228.176C446.123 227.596 445.935 226.874 445.935 226.011C445.935 225.283 446.069 224.673 446.336 224.178C446.603 223.684 446.967 223.286 447.427 222.985C447.887 222.684 448.41 222.457 448.995 222.303C449.586 222.15 450.205 222.042 450.853 221.979C451.614 221.9 452.228 221.826 452.694 221.758C453.16 221.684 453.498 221.576 453.708 221.434C453.918 221.292 454.023 221.082 454.023 220.803V220.752C454.023 220.212 453.853 219.795 453.512 219.499C453.177 219.204 452.7 219.056 452.08 219.056C451.427 219.056 450.907 219.201 450.521 219.491C450.134 219.775 449.879 220.133 449.754 220.565L446.396 220.292C446.566 219.497 446.901 218.809 447.401 218.229C447.901 217.644 448.546 217.195 449.336 216.883C450.131 216.565 451.052 216.406 452.097 216.406C452.825 216.406 453.521 216.491 454.185 216.661C454.856 216.832 455.45 217.096 455.967 217.454C456.489 217.812 456.901 218.272 457.202 218.835C457.504 219.391 457.654 220.059 457.654 220.837V229.667H454.211V227.852H454.109C453.898 228.261 453.617 228.622 453.265 228.934C452.913 229.241 452.489 229.482 451.995 229.658C451.501 229.829 450.93 229.914 450.282 229.914ZM451.322 227.408C451.856 227.408 452.327 227.303 452.737 227.093C453.146 226.877 453.467 226.587 453.7 226.224C453.933 225.86 454.049 225.448 454.049 224.988V223.599C453.935 223.673 453.779 223.741 453.58 223.803C453.387 223.86 453.168 223.914 452.924 223.965C452.68 224.011 452.435 224.053 452.191 224.093C451.947 224.127 451.725 224.158 451.526 224.187C451.1 224.249 450.728 224.349 450.41 224.485C450.092 224.622 449.845 224.806 449.668 225.039C449.492 225.266 449.404 225.551 449.404 225.891C449.404 226.386 449.583 226.764 449.941 227.025C450.305 227.281 450.765 227.408 451.322 227.408ZM460.471 229.667V216.576H463.991V218.86H464.127C464.366 218.048 464.766 217.434 465.329 217.019C465.891 216.599 466.539 216.389 467.272 216.389C467.454 216.389 467.65 216.4 467.86 216.423C468.07 216.445 468.255 216.477 468.414 216.516V219.738C468.244 219.687 468.008 219.641 467.707 219.602C467.406 219.562 467.13 219.542 466.88 219.542C466.346 219.542 465.869 219.658 465.448 219.891C465.033 220.119 464.704 220.437 464.46 220.846C464.221 221.255 464.102 221.727 464.102 222.261V229.667H460.471ZM473.649 229.914C472.814 229.914 472.07 229.769 471.416 229.479C470.763 229.184 470.246 228.749 469.865 228.176C469.49 227.596 469.303 226.874 469.303 226.011C469.303 225.283 469.436 224.673 469.703 224.178C469.97 223.684 470.334 223.286 470.794 222.985C471.254 222.684 471.777 222.457 472.362 222.303C472.953 222.15 473.572 222.042 474.22 221.979C474.982 221.9 475.595 221.826 476.061 221.758C476.527 221.684 476.865 221.576 477.075 221.434C477.286 221.292 477.391 221.082 477.391 220.803V220.752C477.391 220.212 477.22 219.795 476.879 219.499C476.544 219.204 476.067 219.056 475.447 219.056C474.794 219.056 474.274 219.201 473.888 219.491C473.501 219.775 473.246 220.133 473.121 220.565L469.763 220.292C469.933 219.497 470.269 218.809 470.769 218.229C471.269 217.644 471.913 217.195 472.703 216.883C473.499 216.565 474.419 216.406 475.465 216.406C476.192 216.406 476.888 216.491 477.553 216.661C478.223 216.832 478.817 217.096 479.334 217.454C479.857 217.812 480.269 218.272 480.57 218.835C480.871 219.391 481.021 220.059 481.021 220.837V229.667H477.578V227.852H477.476C477.266 228.261 476.984 228.622 476.632 228.934C476.28 229.241 475.857 229.482 475.362 229.658C474.868 229.829 474.297 229.914 473.649 229.914ZM474.689 227.408C475.223 227.408 475.695 227.303 476.104 227.093C476.513 226.877 476.834 226.587 477.067 226.224C477.3 225.86 477.416 225.448 477.416 224.988V223.599C477.303 223.673 477.146 223.741 476.947 223.803C476.754 223.86 476.536 223.914 476.291 223.965C476.047 224.011 475.803 224.053 475.558 224.093C475.314 224.127 475.092 224.158 474.894 224.187C474.467 224.249 474.095 224.349 473.777 224.485C473.459 224.622 473.212 224.806 473.036 225.039C472.859 225.266 472.771 225.551 472.771 225.891C472.771 226.386 472.95 226.764 473.308 227.025C473.672 227.281 474.132 227.408 474.689 227.408ZM495.574 216.576L490.997 229.667H486.906L482.33 216.576H486.165L488.884 225.943H489.02L491.73 216.576H495.574ZM502.976 229.923C501.629 229.923 500.47 229.65 499.499 229.105C498.533 228.553 497.788 227.775 497.266 226.769C496.743 225.758 496.482 224.562 496.482 223.181C496.482 221.835 496.743 220.653 497.266 219.636C497.788 218.619 498.524 217.826 499.473 217.258C500.428 216.69 501.547 216.406 502.831 216.406C503.695 216.406 504.499 216.545 505.243 216.823C505.993 217.096 506.646 217.508 507.203 218.059C507.766 218.61 508.203 219.303 508.516 220.139C508.828 220.968 508.984 221.94 508.984 223.053V224.051H497.93V221.801H505.567C505.567 221.278 505.453 220.815 505.226 220.411C504.999 220.008 504.683 219.693 504.28 219.465C503.882 219.232 503.419 219.116 502.891 219.116C502.34 219.116 501.851 219.244 501.425 219.499C501.004 219.749 500.675 220.087 500.436 220.514C500.197 220.934 500.075 221.403 500.07 221.92V224.059C500.07 224.707 500.189 225.266 500.428 225.738C500.672 226.21 501.016 226.573 501.459 226.829C501.902 227.085 502.428 227.212 503.036 227.212C503.439 227.212 503.808 227.156 504.144 227.042C504.479 226.928 504.766 226.758 505.004 226.531C505.243 226.303 505.425 226.025 505.55 225.695L508.908 225.917C508.737 226.724 508.388 227.428 507.859 228.031C507.337 228.627 506.661 229.093 505.831 229.428C505.007 229.758 504.055 229.923 502.976 229.923ZM514.984 212.212V229.667H511.354V212.212H514.984Z" fill="white"/>
</svg>
