<svg width="1363" height="167" viewBox="0 0 1363 167" fill="none" xmlns="http://www.w3.org/2000/svg">
<path d="M1348 0H15C6.71573 0 0 6.71573 0 15V152C0 160.284 6.71573 167 15 167H1348C1356.28 167 1363 160.284 1363 152V15C1363 6.71573 1356.28 0 1348 0Z" fill="#F0F0F0"/>
<path d="M0 15C0 6.71573 6.71573 0 15 0H37V167H15C6.71573 167 0 160.284 0 152V15Z" fill="#424241"/>
<path d="M100.906 54.9219L93.3945 52.2383V49.0859L103.602 53.375V55.6367L100.906 54.9219ZM93.3945 57.1719L100.918 54.4297L103.602 53.7852V56.0352L93.3945 60.3242V57.1719Z" fill="#888888"/>
<path d="M101.822 112.1L108.194 83.0078H111.995L114.061 85.4907L107.271 115H103.074L101.822 112.1ZM100.13 83.0078L105.513 112.319L104.129 115H99.2729L92.4834 83.0078H100.13ZM117.554 112.166L122.894 83.0078H130.518L123.729 115H118.895L117.554 112.166ZM114.742 83.0078L121.268 112.275L119.949 115H115.752L108.809 85.4468L110.962 83.0078H114.742ZM141.021 91.2256V115H133.594V91.2256H141.021ZM133.155 85.0952C133.155 84.0405 133.536 83.1763 134.297 82.5024C135.059 81.8286 136.048 81.4917 137.264 81.4917C138.479 81.4917 139.468 81.8286 140.23 82.5024C140.992 83.1763 141.373 84.0405 141.373 85.0952C141.373 86.1499 140.992 87.0142 140.23 87.688C139.468 88.3618 138.479 88.6987 137.264 88.6987C136.048 88.6987 135.059 88.3618 134.297 87.688C133.536 87.0142 133.155 86.1499 133.155 85.0952ZM153.062 97.1143V115H145.657V91.2256H152.579L153.062 97.1143ZM160.093 91.0498L159.961 97.9272C159.668 97.8979 159.273 97.8613 158.775 97.8174C158.277 97.7734 157.859 97.7515 157.522 97.7515C156.658 97.7515 155.911 97.854 155.281 98.0591C154.666 98.2495 154.153 98.5425 153.743 98.938C153.348 99.3188 153.055 99.8022 152.864 100.388C152.688 100.974 152.608 101.655 152.623 102.432L151.282 101.553C151.282 99.9561 151.436 98.5059 151.744 97.2021C152.066 95.8838 152.52 94.7485 153.106 93.7964C153.692 92.8296 154.402 92.0898 155.237 91.5771C156.072 91.0498 157.01 90.7861 158.05 90.7861C158.416 90.7861 158.775 90.8081 159.126 90.8521C159.493 90.896 159.815 90.9619 160.093 91.0498ZM173.716 115.439C171.783 115.439 170.054 115.139 168.531 114.539C167.007 113.923 165.718 113.081 164.664 112.012C163.624 110.942 162.825 109.712 162.269 108.32C161.727 106.929 161.456 105.457 161.456 103.904V103.069C161.456 101.326 161.697 99.7144 162.181 98.2349C162.664 96.7407 163.382 95.437 164.334 94.3237C165.286 93.2104 166.48 92.3462 167.916 91.731C169.351 91.1011 171.021 90.7861 172.925 90.7861C174.61 90.7861 176.119 91.0571 177.452 91.5991C178.785 92.1411 179.913 92.9175 180.835 93.9282C181.773 94.939 182.483 96.1621 182.967 97.5977C183.465 99.0332 183.714 100.645 183.714 102.432V105.442H164.29V100.806H176.485V100.234C176.5 99.4434 176.36 98.7695 176.067 98.2129C175.789 97.6562 175.379 97.2314 174.837 96.9385C174.295 96.6455 173.636 96.499 172.859 96.499C172.054 96.499 171.387 96.6748 170.86 97.0264C170.347 97.3779 169.944 97.8613 169.651 98.4766C169.373 99.0771 169.175 99.7729 169.058 100.564C168.941 101.355 168.882 102.19 168.882 103.069V103.904C168.882 104.783 169 105.581 169.234 106.299C169.483 107.017 169.834 107.632 170.289 108.145C170.757 108.643 171.314 109.031 171.958 109.309C172.618 109.587 173.365 109.727 174.2 109.727C175.21 109.727 176.207 109.536 177.188 109.155C178.169 108.774 179.012 108.145 179.715 107.266L183.077 111.265C182.593 111.953 181.905 112.62 181.011 113.264C180.132 113.909 179.078 114.436 177.847 114.846C176.617 115.242 175.24 115.439 173.716 115.439ZM195.799 115H188.35V89.292C188.35 87.4463 188.724 85.8936 189.471 84.6338C190.218 83.374 191.272 82.4219 192.635 81.7773C193.997 81.1182 195.608 80.7886 197.469 80.7886C198.113 80.7886 198.721 80.8325 199.292 80.9204C199.864 81.0083 200.42 81.1182 200.962 81.25L200.984 86.6992C200.721 86.626 200.45 86.5747 200.171 86.5454C199.893 86.5161 199.549 86.5015 199.139 86.5015C198.421 86.5015 197.813 86.6113 197.315 86.8311C196.817 87.0361 196.436 87.3511 196.172 87.7759C195.923 88.186 195.799 88.6914 195.799 89.292V115ZM200.413 91.2256V96.3672H184.922V91.2256H200.413ZM210.542 97.1143V115H203.138V91.2256H210.059L210.542 97.1143ZM217.574 91.0498L217.442 97.9272C217.149 97.8979 216.753 97.8613 216.255 97.8174C215.757 97.7734 215.34 97.7515 215.003 97.7515C214.139 97.7515 213.392 97.854 212.762 98.0591C212.146 98.2495 211.634 98.5425 211.224 98.938C210.828 99.3188 210.535 99.8022 210.345 100.388C210.169 100.974 210.088 101.655 210.103 102.432L208.763 101.553C208.763 99.9561 208.917 98.5059 209.224 97.2021C209.546 95.8838 210 94.7485 210.586 93.7964C211.172 92.8296 211.883 92.0898 212.718 91.5771C213.553 91.0498 214.49 90.7861 215.53 90.7861C215.896 90.7861 216.255 90.8081 216.607 90.8521C216.973 90.896 217.295 90.9619 217.574 91.0498ZM231.812 109.023V99.2236C231.812 98.5498 231.717 97.9712 231.526 97.4878C231.336 97.0044 231.036 96.6309 230.625 96.3672C230.215 96.0889 229.666 95.9497 228.978 95.9497C228.421 95.9497 227.945 96.0449 227.549 96.2354C227.154 96.4258 226.854 96.7114 226.648 97.0923C226.443 97.4731 226.341 97.9565 226.341 98.5425H218.936C218.936 97.4438 219.178 96.4258 219.661 95.4883C220.159 94.5361 220.862 93.7085 221.771 93.0054C222.693 92.3022 223.792 91.7603 225.066 91.3794C226.355 90.9839 227.791 90.7861 229.373 90.7861C231.263 90.7861 232.947 91.1011 234.427 91.731C235.921 92.3608 237.1 93.3057 237.964 94.5654C238.829 95.8105 239.261 97.3779 239.261 99.2676V109.001C239.261 110.554 239.349 111.733 239.524 112.539C239.7 113.33 239.949 114.026 240.271 114.626V115H232.845C232.493 114.268 232.229 113.374 232.054 112.319C231.893 111.25 231.812 110.151 231.812 109.023ZM232.713 100.476L232.757 104.431H229.483C228.794 104.431 228.208 104.526 227.725 104.717C227.256 104.907 226.875 105.171 226.583 105.508C226.304 105.83 226.099 106.196 225.967 106.606C225.85 107.017 225.792 107.449 225.792 107.903C225.792 108.342 225.894 108.738 226.099 109.089C226.319 109.426 226.612 109.69 226.978 109.88C227.344 110.071 227.754 110.166 228.208 110.166C229.029 110.166 229.725 110.012 230.296 109.705C230.882 109.382 231.329 108.994 231.636 108.54C231.944 108.086 232.098 107.661 232.098 107.266L233.724 110.298C233.431 110.884 233.094 111.477 232.713 112.078C232.347 112.678 231.885 113.235 231.329 113.748C230.787 114.246 230.12 114.656 229.329 114.978C228.538 115.286 227.579 115.439 226.451 115.439C224.986 115.439 223.638 115.139 222.408 114.539C221.192 113.938 220.218 113.103 219.485 112.034C218.753 110.95 218.387 109.705 218.387 108.298C218.387 107.068 218.606 105.969 219.046 105.002C219.5 104.036 220.181 103.215 221.089 102.542C221.998 101.868 223.155 101.355 224.561 101.003C225.967 100.652 227.623 100.476 229.527 100.476H232.713ZM250.84 96.2573V115H243.436V91.2256H250.379L250.84 96.2573ZM249.939 102.3L248.248 102.344C248.248 100.674 248.445 99.1357 248.841 97.7295C249.236 96.3232 249.822 95.1001 250.599 94.0601C251.375 93.02 252.327 92.2144 253.455 91.6431C254.598 91.0718 255.916 90.7861 257.41 90.7861C258.45 90.7861 259.395 90.9473 260.245 91.2695C261.094 91.5771 261.827 92.0679 262.442 92.7417C263.057 93.4009 263.526 94.2651 263.848 95.3345C264.185 96.3892 264.354 97.6562 264.354 99.1357V115H256.949V100.081C256.949 99.0698 256.832 98.3081 256.597 97.7954C256.377 97.2827 256.055 96.9385 255.63 96.7627C255.206 96.5869 254.686 96.499 254.07 96.499C253.426 96.499 252.847 96.6455 252.334 96.9385C251.822 97.2314 251.382 97.6416 251.016 98.1689C250.665 98.6816 250.394 99.2896 250.203 99.9927C250.027 100.696 249.939 101.465 249.939 102.3ZM263.519 102.3L261.453 102.344C261.453 100.674 261.636 99.1357 262.002 97.7295C262.383 96.3232 262.947 95.1001 263.694 94.0601C264.456 93.02 265.401 92.2144 266.529 91.6431C267.657 91.0718 268.968 90.7861 270.462 90.7861C271.546 90.7861 272.542 90.9473 273.45 91.2695C274.358 91.5918 275.142 92.1118 275.801 92.8296C276.46 93.5474 276.973 94.4995 277.339 95.686C277.706 96.8579 277.889 98.3081 277.889 100.037V115H270.462V100.037C270.462 99.0552 270.345 98.3154 270.11 97.8174C269.891 97.3047 269.568 96.9604 269.144 96.7847C268.719 96.5942 268.213 96.499 267.627 96.499C266.924 96.499 266.316 96.6455 265.804 96.9385C265.291 97.2314 264.859 97.6416 264.507 98.1689C264.17 98.6816 263.921 99.2896 263.76 99.9927C263.599 100.696 263.519 101.465 263.519 102.3ZM293.643 115.439C291.709 115.439 289.981 115.139 288.458 114.539C286.934 113.923 285.645 113.081 284.59 112.012C283.55 110.942 282.752 109.712 282.195 108.32C281.653 106.929 281.382 105.457 281.382 103.904V103.069C281.382 101.326 281.624 99.7144 282.107 98.2349C282.591 96.7407 283.309 95.437 284.261 94.3237C285.213 93.2104 286.407 92.3462 287.842 91.731C289.278 91.1011 290.948 90.7861 292.852 90.7861C294.537 90.7861 296.045 91.0571 297.378 91.5991C298.711 92.1411 299.839 92.9175 300.762 93.9282C301.7 94.939 302.41 96.1621 302.894 97.5977C303.392 99.0332 303.641 100.645 303.641 102.432V105.442H284.217V100.806H296.412V100.234C296.426 99.4434 296.287 98.7695 295.994 98.2129C295.716 97.6562 295.306 97.2314 294.764 96.9385C294.222 96.6455 293.562 96.499 292.786 96.499C291.98 96.499 291.314 96.6748 290.787 97.0264C290.274 97.3779 289.871 97.8613 289.578 98.4766C289.3 99.0771 289.102 99.7729 288.985 100.564C288.868 101.355 288.809 102.19 288.809 103.069V103.904C288.809 104.783 288.926 105.581 289.161 106.299C289.41 107.017 289.761 107.632 290.215 108.145C290.684 108.643 291.241 109.031 291.885 109.309C292.544 109.587 293.292 109.727 294.126 109.727C295.137 109.727 296.133 109.536 297.115 109.155C298.096 108.774 298.938 108.145 299.642 107.266L303.003 111.265C302.52 111.953 301.832 112.62 300.938 113.264C300.059 113.909 299.004 114.436 297.774 114.846C296.543 115.242 295.167 115.439 293.643 115.439ZM319.109 108.32C319.109 107.91 318.97 107.559 318.692 107.266C318.428 106.958 317.959 106.68 317.286 106.431C316.612 106.167 315.667 105.903 314.451 105.64C313.294 105.391 312.203 105.061 311.177 104.651C310.167 104.241 309.28 103.743 308.519 103.157C307.757 102.571 307.156 101.875 306.717 101.069C306.292 100.264 306.08 99.3408 306.08 98.3008C306.08 97.29 306.292 96.3379 306.717 95.4443C307.156 94.5361 307.793 93.7378 308.628 93.0493C309.478 92.3462 310.511 91.7969 311.727 91.4014C312.942 90.9912 314.327 90.7861 315.879 90.7861C318.018 90.7861 319.864 91.1157 321.417 91.7749C322.969 92.4194 324.163 93.3276 324.998 94.4995C325.848 95.6567 326.272 96.9971 326.272 98.5205H318.868C318.868 97.9199 318.765 97.4072 318.56 96.9824C318.37 96.5576 318.055 96.2354 317.615 96.0156C317.176 95.7812 316.59 95.6641 315.857 95.6641C315.345 95.6641 314.876 95.7593 314.451 95.9497C314.041 96.1401 313.711 96.4038 313.462 96.7407C313.213 97.0776 313.089 97.4731 313.089 97.9272C313.089 98.2495 313.162 98.5425 313.309 98.8062C313.47 99.0552 313.711 99.2896 314.034 99.5093C314.356 99.7144 314.766 99.9048 315.264 100.081C315.762 100.242 316.363 100.388 317.066 100.52C318.663 100.813 320.157 101.23 321.548 101.772C322.94 102.314 324.068 103.083 324.932 104.08C325.811 105.076 326.25 106.416 326.25 108.101C326.25 109.155 326.009 110.129 325.525 111.023C325.042 111.902 324.346 112.678 323.438 113.352C322.53 114.011 321.438 114.524 320.164 114.89C318.89 115.256 317.454 115.439 315.857 115.439C313.587 115.439 311.668 115.037 310.101 114.231C308.533 113.411 307.347 112.385 306.541 111.155C305.75 109.91 305.354 108.65 305.354 107.375H312.254C312.283 108.108 312.459 108.708 312.781 109.177C313.118 109.646 313.565 109.99 314.122 110.21C314.678 110.43 315.323 110.54 316.055 110.54C316.729 110.54 317.286 110.444 317.725 110.254C318.179 110.063 318.523 109.807 318.758 109.485C318.992 109.148 319.109 108.76 319.109 108.32Z" fill="#424241"/>
<path d="M1363 15C1363 6.71573 1356.28 0 1348 0H1134V167H1348C1356.28 167 1363 160.284 1363 152V15Z" fill="#03E9F4"/>
<path fill-rule="evenodd" clip-rule="evenodd" d="M1203 49C1203 47.8954 1203.9 47 1205 47H1292.5C1293.6 47 1294.5 47.8954 1294.5 49V118.996C1294.5 120.101 1293.6 120.996 1292.5 120.996H1205C1203.9 120.996 1203 120.101 1203 118.996V49ZM1207 51V55.4945H1290.5V51H1207ZM1290.5 59.4945H1235.44V116.996H1290.5V59.4945ZM1231.44 116.996V59.4945H1207V116.996H1231.44Z" fill="white"/>
<path fill-rule="evenodd" clip-rule="evenodd" d="M1209.97 64.8003C1209.97 63.6957 1210.87 62.8003 1211.97 62.8003H1225.97C1227.08 62.8003 1227.97 63.6957 1227.97 64.8003V84.1955C1227.97 85.3001 1227.08 86.1955 1225.97 86.1955H1211.97C1210.87 86.1955 1209.97 85.3001 1209.97 84.1955V64.8003ZM1213.97 66.8003V82.1955H1223.97V66.8003H1213.97ZM1239.58 65.6963C1239.58 64.5917 1240.47 63.6963 1241.58 63.6963H1284.5C1285.61 63.6963 1286.5 64.5917 1286.5 65.6963V111.905C1286.5 113.009 1285.61 113.905 1284.5 113.905H1241.58C1240.47 113.905 1239.58 113.009 1239.58 111.905V65.6963ZM1243.58 67.6963V109.905H1282.5V67.6963H1243.58ZM1209.81 95.9362C1209.81 94.8316 1210.71 93.9362 1211.81 93.9362H1220.73C1221.84 93.9362 1222.73 94.8316 1222.73 95.9362C1222.73 97.0408 1221.84 97.9362 1220.73 97.9362H1211.81C1210.71 97.9362 1209.81 97.0408 1209.81 95.9362ZM1209.81 102.936C1209.81 101.832 1210.71 100.936 1211.81 100.936H1226.35C1227.46 100.936 1228.35 101.832 1228.35 102.936C1228.35 104.041 1227.46 104.936 1226.35 104.936H1211.81C1210.71 104.936 1209.81 104.041 1209.81 102.936ZM1209.81 109.936C1209.81 108.832 1210.71 107.936 1211.81 107.936H1220.73C1221.84 107.936 1222.73 108.832 1222.73 109.936C1222.73 111.041 1221.84 111.936 1220.73 111.936H1211.81C1210.71 111.936 1209.81 111.041 1209.81 109.936Z" fill="white"/>
<path d="M114.517 45.5455H119.068L123.875 57.2727H124.08L128.886 45.5455H133.438V63H129.858V51.6392H129.713L125.196 62.9148H122.759L118.241 51.5966H118.097V63H114.517V45.5455ZM136.41 63V49.9091H140.04V63H136.41ZM138.234 48.2216C137.694 48.2216 137.231 48.0426 136.844 47.6847C136.464 47.321 136.273 46.8864 136.273 46.3807C136.273 45.8807 136.464 45.4517 136.844 45.0938C137.231 44.7301 137.694 44.5483 138.234 44.5483C138.773 44.5483 139.234 44.7301 139.614 45.0938C140.001 45.4517 140.194 45.8807 140.194 46.3807C140.194 46.8864 140.001 47.321 139.614 47.6847C139.234 48.0426 138.773 48.2216 138.234 48.2216ZM146.58 55.4318V63H142.949V49.9091H146.409V52.2188H146.562C146.852 51.4574 147.338 50.8551 148.02 50.4119C148.702 49.9631 149.528 49.7386 150.5 49.7386C151.409 49.7386 152.202 49.9375 152.878 50.3352C153.554 50.733 154.08 51.3011 154.455 52.0398C154.83 52.7727 155.017 53.6477 155.017 54.6648V63H151.386V55.3125C151.392 54.5114 151.188 53.8864 150.773 53.4375C150.358 52.983 149.787 52.7557 149.06 52.7557C148.571 52.7557 148.139 52.8608 147.764 53.071C147.395 53.2812 147.105 53.5881 146.895 53.9915C146.69 54.3892 146.585 54.8693 146.58 55.4318ZM162.702 63.2131C161.708 63.2131 160.808 62.9574 160.001 62.446C159.2 61.929 158.563 61.1705 158.092 60.1705C157.626 59.1648 157.393 57.9318 157.393 56.4716C157.393 54.9716 157.634 53.7244 158.117 52.7301C158.6 51.7301 159.242 50.983 160.043 50.4886C160.85 49.9886 161.734 49.7386 162.694 49.7386C163.427 49.7386 164.038 49.8636 164.526 50.1136C165.021 50.358 165.418 50.6648 165.719 51.0341C166.026 51.3977 166.259 51.7557 166.418 52.108H166.529V45.5455H170.151V63H166.572V60.9034H166.418C166.248 61.267 166.006 61.6278 165.694 61.9858C165.387 62.3381 164.987 62.6307 164.492 62.8636C164.004 63.0966 163.407 63.2131 162.702 63.2131ZM163.853 60.3239C164.438 60.3239 164.933 60.1648 165.336 59.8466C165.745 59.5227 166.058 59.071 166.273 58.4915C166.495 57.9119 166.606 57.233 166.606 56.4545C166.606 55.6761 166.498 55 166.282 54.4261C166.066 53.8523 165.754 53.4091 165.344 53.0966C164.935 52.7841 164.438 52.6278 163.853 52.6278C163.256 52.6278 162.754 52.7898 162.344 53.1136C161.935 53.4375 161.626 53.8864 161.415 54.4602C161.205 55.0341 161.1 55.6989 161.1 56.4545C161.1 57.2159 161.205 57.8892 161.415 58.4744C161.631 59.054 161.941 59.5085 162.344 59.8381C162.754 60.1619 163.256 60.3239 163.853 60.3239ZM182.673 50.5653C182.605 49.8778 182.313 49.3437 181.795 48.9631C181.278 48.5824 180.577 48.392 179.69 48.392C179.088 48.392 178.58 48.4773 178.165 48.6477C177.75 48.8125 177.432 49.0426 177.21 49.3381C176.994 49.6335 176.886 49.9688 176.886 50.3438C176.875 50.6562 176.94 50.929 177.082 51.1619C177.23 51.3949 177.432 51.5966 177.688 51.767C177.943 51.9318 178.239 52.0767 178.574 52.2017C178.909 52.321 179.267 52.4233 179.648 52.5085L181.216 52.8835C181.977 53.054 182.676 53.2812 183.312 53.5653C183.949 53.8494 184.5 54.1989 184.966 54.6136C185.432 55.0284 185.793 55.517 186.048 56.0795C186.31 56.642 186.443 57.2869 186.449 58.0142C186.443 59.0824 186.17 60.0085 185.631 60.7926C185.097 61.571 184.324 62.1761 183.312 62.608C182.307 63.0341 181.094 63.2472 179.673 63.2472C178.264 63.2472 177.037 63.0312 175.991 62.5994C174.952 62.1676 174.139 61.5284 173.554 60.6818C172.974 59.8295 172.67 58.7756 172.642 57.5199H176.213C176.253 58.1051 176.42 58.5937 176.716 58.9858C177.017 59.3722 177.418 59.6648 177.918 59.8636C178.423 60.0568 178.994 60.1534 179.631 60.1534C180.256 60.1534 180.798 60.0625 181.259 59.8807C181.724 59.6989 182.085 59.446 182.341 59.1222C182.597 58.7983 182.724 58.4261 182.724 58.0057C182.724 57.6136 182.608 57.2841 182.375 57.017C182.148 56.75 181.813 56.5227 181.369 56.3352C180.932 56.1477 180.395 55.9773 179.759 55.8239L177.858 55.3466C176.386 54.9886 175.224 54.429 174.372 53.6676C173.52 52.9062 173.097 51.8807 173.102 50.5909C173.097 49.5341 173.378 48.6108 173.946 47.821C174.52 47.0312 175.307 46.4148 176.307 45.9716C177.307 45.5284 178.443 45.3068 179.716 45.3068C181.011 45.3068 182.142 45.5284 183.108 45.9716C184.08 46.4148 184.835 47.0312 185.375 47.821C185.915 48.6108 186.193 49.5256 186.21 50.5653H182.673ZM192.494 55.4318V63H188.863V45.5455H192.391V52.2188H192.545C192.84 51.446 193.317 50.8409 193.977 50.4034C194.636 49.9602 195.462 49.7386 196.457 49.7386C197.366 49.7386 198.158 49.9375 198.835 50.3352C199.516 50.7273 200.045 51.2926 200.42 52.0312C200.8 52.7642 200.988 53.642 200.982 54.6648V63H197.352V55.3125C197.357 54.5057 197.153 53.8778 196.738 53.429C196.329 52.9801 195.755 52.7557 195.016 52.7557C194.522 52.7557 194.085 52.8608 193.704 53.071C193.329 53.2812 193.033 53.5881 192.817 53.9915C192.607 54.3892 192.499 54.8693 192.494 55.4318ZM203.839 63V49.9091H207.47V63H203.839ZM205.663 48.2216C205.124 48.2216 204.661 48.0426 204.274 47.6847C203.893 47.321 203.703 46.8864 203.703 46.3807C203.703 45.8807 203.893 45.4517 204.274 45.0938C204.661 44.7301 205.124 44.5483 205.663 44.5483C206.203 44.5483 206.663 44.7301 207.044 45.0938C207.43 45.4517 207.624 45.8807 207.624 46.3807C207.624 46.8864 207.43 47.321 207.044 47.6847C206.663 48.0426 206.203 48.2216 205.663 48.2216ZM217.418 49.9091V52.6364H209.339V49.9091H217.418ZM211.188 63V48.9631C211.188 48.0142 211.373 47.2273 211.742 46.6023C212.117 45.9773 212.629 45.5085 213.276 45.196C213.924 44.8835 214.66 44.7273 215.484 44.7273C216.04 44.7273 216.549 44.7699 217.009 44.8551C217.475 44.9403 217.822 45.017 218.049 45.0852L217.401 47.8125C217.259 47.767 217.083 47.7244 216.873 47.6847C216.668 47.6449 216.458 47.625 216.242 47.625C215.708 47.625 215.336 47.75 215.126 48C214.915 48.2443 214.81 48.5881 214.81 49.0312V63H211.188ZM226.599 49.9091V52.6364H218.716V49.9091H226.599ZM220.506 46.7727H224.136V58.9773C224.136 59.3125 224.188 59.5739 224.29 59.7614C224.392 59.9432 224.534 60.071 224.716 60.1449C224.903 60.2187 225.119 60.2557 225.364 60.2557C225.534 60.2557 225.705 60.2415 225.875 60.2131C226.045 60.179 226.176 60.1534 226.267 60.1364L226.838 62.8381C226.656 62.8949 226.401 62.9602 226.071 63.0341C225.741 63.1136 225.341 63.1619 224.869 63.179C223.994 63.2131 223.227 63.0966 222.568 62.8295C221.915 62.5625 221.406 62.1477 221.043 61.5852C220.679 61.0227 220.5 60.3125 220.506 59.4545V46.7727Z" fill="#8B8B8B"/>
</svg>
