<svg width="1363" height="167" viewBox="0 0 1363 167" fill="none" xmlns="http://www.w3.org/2000/svg">
<path d="M1348 0H15C6.71573 0 0 6.71573 0 15V152C0 160.284 6.71573 167 15 167H1348C1356.28 167 1363 160.284 1363 152V15C1363 6.71573 1356.28 0 1348 0Z" fill="#F0F0F0"/>
<path d="M0 15C0 6.71573 6.71573 0 15 0H37V167H15C6.71573 167 0 160.284 0 152V15Z" fill="#DF8A27"/>
<path d="M115.994 95.708V101.641H99.5806V95.708H115.994ZM102.151 83.0078V115H94.439V83.0078H102.151ZM121.18 83.0078V115H113.489V83.0078H121.18ZM124.805 103.354V102.893C124.805 101.15 125.054 99.5459 125.552 98.0811C126.05 96.6016 126.783 95.3198 127.75 94.2358C128.716 93.1519 129.91 92.3096 131.331 91.709C132.752 91.0938 134.393 90.7861 136.253 90.7861C138.128 90.7861 139.776 91.0938 141.197 91.709C142.632 92.3096 143.833 93.1519 144.8 94.2358C145.767 95.3198 146.5 96.6016 146.998 98.0811C147.496 99.5459 147.745 101.15 147.745 102.893V103.354C147.745 105.083 147.496 106.687 146.998 108.167C146.5 109.631 145.767 110.913 144.8 112.012C143.833 113.096 142.64 113.938 141.219 114.539C139.798 115.139 138.157 115.439 136.297 115.439C134.437 115.439 132.789 115.139 131.353 114.539C129.917 113.938 128.716 113.096 127.75 112.012C126.783 110.913 126.05 109.631 125.552 108.167C125.054 106.687 124.805 105.083 124.805 103.354ZM132.21 102.893V103.354C132.21 104.248 132.276 105.083 132.408 105.859C132.54 106.636 132.759 107.317 133.067 107.903C133.375 108.474 133.792 108.921 134.319 109.243C134.847 109.565 135.506 109.727 136.297 109.727C137.073 109.727 137.718 109.565 138.23 109.243C138.758 108.921 139.175 108.474 139.483 107.903C139.791 107.317 140.01 106.636 140.142 105.859C140.274 105.083 140.34 104.248 140.34 103.354V102.893C140.34 102.029 140.274 101.216 140.142 100.454C140.01 99.6777 139.791 98.9966 139.483 98.4106C139.175 97.8101 138.758 97.3413 138.23 97.0044C137.703 96.6675 137.044 96.499 136.253 96.499C135.477 96.499 134.825 96.6675 134.297 97.0044C133.785 97.3413 133.375 97.8101 133.067 98.4106C132.759 98.9966 132.54 99.6777 132.408 100.454C132.276 101.216 132.21 102.029 132.21 102.893ZM158.27 107.925L162.664 91.2256H167.3L165.652 99.5972L161.302 115H157.588L158.27 107.925ZM156.534 91.2256L159.258 107.793L159.566 115H155.062L149.437 91.2256H156.534ZM171.211 107.441L173.958 91.2256H181.055L175.474 115H170.97L171.211 107.441ZM167.828 91.2256L172.266 107.881L172.947 115H169.19L164.927 99.6411L163.345 91.2256H167.828ZM209.466 83.0078V115H201.753V83.0078H209.466ZM219.09 83.0078V88.9624H192.349V83.0078H219.09ZM216.475 103.354V102.893C216.475 101.15 216.724 99.5459 217.222 98.0811C217.72 96.6016 218.453 95.3198 219.419 94.2358C220.386 93.1519 221.58 92.3096 223.001 91.709C224.422 91.0938 226.062 90.7861 227.923 90.7861C229.798 90.7861 231.446 91.0938 232.867 91.709C234.302 92.3096 235.503 93.1519 236.47 94.2358C237.437 95.3198 238.169 96.6016 238.667 98.0811C239.166 99.5459 239.415 101.15 239.415 102.893V103.354C239.415 105.083 239.166 106.687 238.667 108.167C238.169 109.631 237.437 110.913 236.47 112.012C235.503 113.096 234.31 113.938 232.889 114.539C231.468 115.139 229.827 115.439 227.967 115.439C226.106 115.439 224.458 115.139 223.023 114.539C221.587 113.938 220.386 113.096 219.419 112.012C218.453 110.913 217.72 109.631 217.222 108.167C216.724 106.687 216.475 105.083 216.475 103.354ZM223.88 102.893V103.354C223.88 104.248 223.946 105.083 224.078 105.859C224.209 106.636 224.429 107.317 224.737 107.903C225.044 108.474 225.462 108.921 225.989 109.243C226.517 109.565 227.176 109.727 227.967 109.727C228.743 109.727 229.388 109.565 229.9 109.243C230.428 108.921 230.845 108.474 231.153 107.903C231.46 107.317 231.68 106.636 231.812 105.859C231.944 105.083 232.01 104.248 232.01 103.354V102.893C232.01 102.029 231.944 101.216 231.812 100.454C231.68 99.6777 231.46 98.9966 231.153 98.4106C230.845 97.8101 230.428 97.3413 229.9 97.0044C229.373 96.6675 228.714 96.499 227.923 96.499C227.146 96.499 226.495 96.6675 225.967 97.0044C225.455 97.3413 225.044 97.8101 224.737 98.4106C224.429 98.9966 224.209 99.6777 224.078 100.454C223.946 101.216 223.88 102.029 223.88 102.893ZM254.268 83.0078H266.858C269.319 83.0078 271.458 83.374 273.274 84.1064C275.091 84.8389 276.49 85.9229 277.471 87.3584C278.467 88.7939 278.965 90.5664 278.965 92.6758C278.965 94.5068 278.68 96.0376 278.108 97.2681C277.537 98.4985 276.739 99.5166 275.713 100.322C274.703 101.113 273.523 101.765 272.176 102.278L269.649 103.706H259.08L259.036 97.7515H266.858C267.84 97.7515 268.653 97.5757 269.297 97.2241C269.942 96.8726 270.425 96.3745 270.748 95.73C271.084 95.0708 271.253 94.2871 271.253 93.3789C271.253 92.4561 271.084 91.665 270.748 91.0059C270.411 90.3467 269.913 89.8413 269.253 89.4897C268.609 89.1382 267.811 88.9624 266.858 88.9624H261.98V115H254.268V83.0078ZM271.78 115L264.705 100.85L272.879 100.806L280.042 114.67V115H271.78ZM297.159 109.221V91.2256H304.585V115H297.642L297.159 109.221ZM297.862 104.387L299.795 104.343C299.795 105.94 299.605 107.419 299.224 108.782C298.843 110.129 298.279 111.301 297.532 112.297C296.8 113.293 295.892 114.07 294.808 114.626C293.738 115.168 292.5 115.439 291.094 115.439C289.922 115.439 288.846 115.278 287.864 114.956C286.897 114.619 286.062 114.099 285.359 113.396C284.656 112.678 284.107 111.763 283.711 110.649C283.331 109.521 283.14 108.174 283.14 106.606V91.2256H290.545V106.65C290.545 107.178 290.611 107.632 290.743 108.013C290.875 108.394 291.065 108.716 291.314 108.979C291.563 109.229 291.871 109.419 292.237 109.551C292.618 109.668 293.05 109.727 293.533 109.727C294.646 109.727 295.518 109.492 296.148 109.023C296.778 108.555 297.217 107.917 297.466 107.112C297.73 106.306 297.862 105.398 297.862 104.387ZM315.945 96.3013V115H308.541V91.2256H315.484L315.945 96.3013ZM315.066 102.3L313.331 102.344C313.331 100.527 313.55 98.9087 313.99 97.4878C314.429 96.0522 315.052 94.8364 315.857 93.8403C316.663 92.8442 317.623 92.0898 318.736 91.5771C319.864 91.0498 321.116 90.7861 322.493 90.7861C323.592 90.7861 324.595 90.9473 325.503 91.2695C326.426 91.5918 327.217 92.1118 327.876 92.8296C328.55 93.5474 329.063 94.4995 329.415 95.686C329.781 96.8579 329.964 98.3081 329.964 100.037V115H322.515V100.015C322.515 99.0625 322.383 98.3374 322.12 97.8394C321.856 97.3267 321.475 96.9751 320.977 96.7847C320.479 96.5942 319.871 96.499 319.153 96.499C318.392 96.499 317.747 96.6455 317.22 96.9385C316.692 97.2314 316.268 97.6416 315.945 98.1689C315.638 98.6816 315.411 99.2896 315.264 99.9927C315.132 100.696 315.066 101.465 315.066 102.3ZM345.85 104.871H339.544C339.544 103.582 339.632 102.446 339.808 101.465C339.998 100.469 340.32 99.5752 340.774 98.7842C341.229 97.9932 341.844 97.2607 342.62 96.5869C343.309 96.0156 343.902 95.4663 344.4 94.939C344.898 94.4116 345.279 93.877 345.542 93.335C345.806 92.793 345.938 92.2144 345.938 91.5991C345.938 90.8374 345.828 90.2148 345.608 89.7314C345.403 89.248 345.088 88.8892 344.664 88.6548C344.253 88.4058 343.733 88.2812 343.104 88.2812C342.591 88.2812 342.107 88.4058 341.653 88.6548C341.214 88.9038 340.855 89.292 340.577 89.8193C340.298 90.332 340.145 91.0132 340.115 91.8628H332.667C332.71 89.6802 333.194 87.9077 334.117 86.5454C335.054 85.1685 336.299 84.165 337.852 83.5352C339.419 82.8906 341.17 82.5684 343.104 82.5684C345.242 82.5684 347.081 82.8979 348.619 83.5571C350.157 84.2163 351.336 85.1978 352.156 86.5015C352.977 87.7905 353.387 89.3799 353.387 91.2695C353.387 92.5293 353.145 93.6279 352.662 94.5654C352.193 95.4883 351.556 96.3525 350.75 97.1582C349.959 97.9492 349.073 98.7988 348.091 99.707C347.242 100.454 346.663 101.216 346.355 101.992C346.048 102.754 345.879 103.713 345.85 104.871ZM338.643 111.55C338.643 110.496 339.024 109.617 339.786 108.914C340.547 108.196 341.536 107.837 342.752 107.837C343.968 107.837 344.957 108.196 345.718 108.914C346.48 109.617 346.861 110.496 346.861 111.55C346.861 112.605 346.48 113.491 345.718 114.209C344.957 114.912 343.968 115.264 342.752 115.264C341.536 115.264 340.547 114.912 339.786 114.209C339.024 113.491 338.643 112.605 338.643 111.55Z" fill="#424241"/>
<path d="M1363 15C1363 6.71573 1356.28 0 1348 0H1134V167H1348C1356.28 167 1363 160.284 1363 152V15Z" fill="#026483"/>
<path d="M1260.77 81.3079C1263.96 81.3079 1267.09 82.2553 1269.74 84.0303C1272.4 85.8053 1274.47 88.3282 1275.69 91.2799C1276.92 94.2317 1277.24 97.4797 1276.61 100.613C1275.99 103.747 1274.45 106.625 1272.19 108.884C1269.93 111.143 1267.05 112.682 1263.92 113.305C1260.79 113.928 1257.54 113.609 1254.59 112.386C1251.64 111.163 1249.11 109.093 1247.34 106.436C1245.56 103.78 1244.62 100.657 1244.62 97.4617C1244.62 93.1775 1246.32 89.0687 1249.35 86.0393C1252.38 83.0099 1256.49 81.3079 1260.77 81.3079ZM1260.77 75.9233C1256.51 75.9233 1252.35 77.1865 1248.8 79.5532C1245.26 81.9199 1242.5 85.2837 1240.87 89.2193C1239.24 93.155 1238.81 97.4856 1239.64 101.664C1240.48 105.842 1242.53 109.679 1245.54 112.692C1248.55 115.704 1252.39 117.755 1256.57 118.586C1260.75 119.417 1265.08 118.991 1269.01 117.361C1272.95 115.73 1276.31 112.97 1278.68 109.428C1281.04 105.886 1282.31 101.722 1282.31 97.4617C1282.31 91.7494 1280.04 86.271 1276 82.2318C1271.96 78.1926 1266.48 75.9233 1260.77 75.9233Z" fill="white"/>
<path d="M1274.23 49H1220.38C1218.96 49 1217.59 49.5673 1216.58 50.5771C1215.57 51.5869 1215 52.9565 1215 54.3846V108.231C1215 109.659 1215.57 111.028 1216.58 112.038C1217.59 113.048 1218.96 113.615 1220.38 113.615H1231.15V108.231H1220.38V70.5384H1279.62V54.3846C1279.62 52.9565 1279.05 51.5869 1278.04 50.5771C1277.03 49.5673 1275.66 49 1274.23 49ZM1220.38 65.1538V54.3846H1274.23V65.1538H1220.38Z" fill="white"/>
<path d="M1255.38 89.3848V105.539L1268.85 97.4617L1255.38 89.3848Z" fill="white"/>
<path d="M100.511 54.9219L93 52.2383V49.0859L103.207 53.375V55.6367L100.511 54.9219ZM93 57.1719L100.523 54.4297L103.207 53.7852V56.0352L93 60.3242V57.1719Z" fill="#888888"/>
<path d="M115.123 45.5455H119.674L124.48 57.2727H124.685L129.492 45.5455H134.043V63H130.463V51.6392H130.319L125.801 62.9148H123.364L118.847 51.5966H118.702V63H115.123V45.5455ZM137.015 63V49.9091H140.646V63H137.015ZM138.839 48.2216C138.299 48.2216 137.836 48.0426 137.45 47.6847C137.069 47.321 136.879 46.8864 136.879 46.3807C136.879 45.8807 137.069 45.4517 137.45 45.0938C137.836 44.7301 138.299 44.5483 138.839 44.5483C139.379 44.5483 139.839 44.7301 140.22 45.0938C140.606 45.4517 140.799 45.8807 140.799 46.3807C140.799 46.8864 140.606 47.321 140.22 47.6847C139.839 48.0426 139.379 48.2216 138.839 48.2216ZM147.185 55.4318V63H143.554V49.9091H147.015V52.2188H147.168C147.458 51.4574 147.944 50.8551 148.625 50.4119C149.307 49.9631 150.134 49.7386 151.105 49.7386C152.015 49.7386 152.807 49.9375 153.483 50.3352C154.159 50.733 154.685 51.3011 155.06 52.0398C155.435 52.7727 155.623 53.6477 155.623 54.6648V63H151.992V55.3125C151.998 54.5114 151.793 53.8864 151.378 53.4375C150.963 52.983 150.392 52.7557 149.665 52.7557C149.176 52.7557 148.745 52.8608 148.37 53.071C148 53.2812 147.711 53.5881 147.5 53.9915C147.296 54.3892 147.191 54.8693 147.185 55.4318ZM163.308 63.2131C162.314 63.2131 161.413 62.9574 160.606 62.446C159.805 61.929 159.169 61.1705 158.697 60.1705C158.231 59.1648 157.998 57.9318 157.998 56.4716C157.998 54.9716 158.24 53.7244 158.723 52.7301C159.206 51.7301 159.848 50.983 160.649 50.4886C161.456 49.9886 162.339 49.7386 163.299 49.7386C164.032 49.7386 164.643 49.8636 165.132 50.1136C165.626 50.358 166.024 50.6648 166.325 51.0341C166.632 51.3977 166.865 51.7557 167.024 52.108H167.135V45.5455H170.757V63H167.177V60.9034H167.024C166.853 61.267 166.612 61.6278 166.299 61.9858C165.993 62.3381 165.592 62.6307 165.098 62.8636C164.609 63.0966 164.012 63.2131 163.308 63.2131ZM164.458 60.3239C165.044 60.3239 165.538 60.1648 165.941 59.8466C166.35 59.5227 166.663 59.071 166.879 58.4915C167.1 57.9119 167.211 57.233 167.211 56.4545C167.211 55.6761 167.103 55 166.887 54.4261C166.672 53.8523 166.359 53.4091 165.95 53.0966C165.541 52.7841 165.044 52.6278 164.458 52.6278C163.862 52.6278 163.359 52.7898 162.95 53.1136C162.541 53.4375 162.231 53.8864 162.021 54.4602C161.811 55.0341 161.706 55.6989 161.706 56.4545C161.706 57.2159 161.811 57.8892 162.021 58.4744C162.237 59.054 162.547 59.5085 162.95 59.8381C163.359 60.1619 163.862 60.3239 164.458 60.3239ZM183.279 50.5653C183.211 49.8778 182.918 49.3437 182.401 48.9631C181.884 48.5824 181.182 48.392 180.296 48.392C179.694 48.392 179.185 48.4773 178.77 48.6477C178.355 48.8125 178.037 49.0426 177.816 49.3381C177.6 49.6335 177.492 49.9688 177.492 50.3438C177.48 50.6562 177.546 50.929 177.688 51.1619C177.836 51.3949 178.037 51.5966 178.293 51.767C178.549 51.9318 178.844 52.0767 179.179 52.2017C179.515 52.321 179.873 52.4233 180.253 52.5085L181.821 52.8835C182.583 53.054 183.282 53.2812 183.918 53.5653C184.554 53.8494 185.105 54.1989 185.571 54.6136C186.037 55.0284 186.398 55.517 186.654 56.0795C186.915 56.642 187.049 57.2869 187.054 58.0142C187.049 59.0824 186.776 60.0085 186.236 60.7926C185.702 61.571 184.929 62.1761 183.918 62.608C182.912 63.0341 181.699 63.2472 180.279 63.2472C178.87 63.2472 177.642 63.0312 176.597 62.5994C175.557 62.1676 174.745 61.5284 174.159 60.6818C173.58 59.8295 173.276 58.7756 173.248 57.5199H176.819C176.858 58.1051 177.026 58.5937 177.321 58.9858C177.623 59.3722 178.023 59.6648 178.523 59.8636C179.029 60.0568 179.6 60.1534 180.236 60.1534C180.861 60.1534 181.404 60.0625 181.864 59.8807C182.33 59.6989 182.691 59.446 182.946 59.1222C183.202 58.7983 183.33 58.4261 183.33 58.0057C183.33 57.6136 183.213 57.2841 182.98 57.017C182.753 56.75 182.418 56.5227 181.975 56.3352C181.537 56.1477 181 55.9773 180.364 55.8239L178.463 55.3466C176.992 54.9886 175.83 54.429 174.978 53.6676C174.125 52.9062 173.702 51.8807 173.708 50.5909C173.702 49.5341 173.983 48.6108 174.551 47.821C175.125 47.0312 175.912 46.4148 176.912 45.9716C177.912 45.5284 179.049 45.3068 180.321 45.3068C181.617 45.3068 182.748 45.5284 183.713 45.9716C184.685 46.4148 185.441 47.0312 185.98 47.821C186.52 48.6108 186.799 49.5256 186.816 50.5653H183.279ZM193.099 55.4318V63H189.468V45.5455H192.997V52.2188H193.15C193.446 51.446 193.923 50.8409 194.582 50.4034C195.241 49.9602 196.068 49.7386 197.062 49.7386C197.971 49.7386 198.764 49.9375 199.44 50.3352C200.122 50.7273 200.65 51.2926 201.025 52.0312C201.406 52.7642 201.593 53.642 201.588 54.6648V63H197.957V55.3125C197.963 54.5057 197.758 53.8778 197.343 53.429C196.934 52.9801 196.36 52.7557 195.622 52.7557C195.127 52.7557 194.69 52.8608 194.309 53.071C193.934 53.2812 193.639 53.5881 193.423 53.9915C193.213 54.3892 193.105 54.8693 193.099 55.4318ZM204.445 63V49.9091H208.076V63H204.445ZM206.269 48.2216C205.729 48.2216 205.266 48.0426 204.88 47.6847C204.499 47.321 204.309 46.8864 204.309 46.3807C204.309 45.8807 204.499 45.4517 204.88 45.0938C205.266 44.7301 205.729 44.5483 206.269 44.5483C206.809 44.5483 207.269 44.7301 207.65 45.0938C208.036 45.4517 208.229 45.8807 208.229 46.3807C208.229 46.8864 208.036 47.321 207.65 47.6847C207.269 48.0426 206.809 48.2216 206.269 48.2216ZM218.024 49.9091V52.6364H209.944V49.9091H218.024ZM211.794 63V48.9631C211.794 48.0142 211.978 47.2273 212.348 46.6023C212.723 45.9773 213.234 45.5085 213.882 45.196C214.529 44.8835 215.265 44.7273 216.089 44.7273C216.646 44.7273 217.154 44.7699 217.615 44.8551C218.081 44.9403 218.427 45.017 218.654 45.0852L218.007 47.8125C217.865 47.767 217.689 47.7244 217.478 47.6847C217.274 47.6449 217.064 47.625 216.848 47.625C216.314 47.625 215.941 47.75 215.731 48C215.521 48.2443 215.416 48.5881 215.416 49.0312V63H211.794ZM227.205 49.9091V52.6364H219.321V49.9091H227.205ZM221.111 46.7727H224.742V58.9773C224.742 59.3125 224.793 59.5739 224.895 59.7614C224.998 59.9432 225.14 60.071 225.321 60.1449C225.509 60.2187 225.725 60.2557 225.969 60.2557C226.14 60.2557 226.31 60.2415 226.48 60.2131C226.651 60.179 226.782 60.1534 226.873 60.1364L227.444 62.8381C227.262 62.8949 227.006 62.9602 226.676 63.0341C226.347 63.1136 225.946 63.1619 225.475 63.179C224.6 63.2131 223.833 63.0966 223.174 62.8295C222.52 62.5625 222.012 62.1477 221.648 61.5852C221.284 61.0227 221.105 60.3125 221.111 59.4545V46.7727Z" fill="#929292"/>
</svg>
